<svg width="12566" height="633" viewBox="0 0 12566 633" fill="none" xmlns="http://www.w3.org/2000/svg">
<path d="M12401.1 222.537L12435.4 227.732L12401.1 233.068L12397.4 233.653L12400.9 234.992L12515.4 278.024L12397.7 244.99L12396.8 246.668L12421.5 270.895L12390.6 255.196L12387.4 253.569L12389.3 256.618L12469.7 385.18L12380.8 262.871L12379 263.624L12384.7 297.67L12368.9 266.889L12367.2 263.521L12367 267.303L12360.3 425.5L12356.4 267.347L12354.5 266.922L12339 297.762L12344.4 263.691L12344.9 260.629L12342.7 262.829L12318.3 287.376L12334.1 256.663L12332.6 255.434L12183.1 378.246L12326.4 246.851L12328.9 244.587L12325.6 245.127L12291.3 250.718L12322.2 235.124L12325.3 233.609L12321.9 233.238L12196.5 219.326L12321.7 222.732L12325.4 222.832L12322.3 220.886L12270.7 188.428L12325.2 210.751L12326.3 209.111L12301.5 184.887L12332.5 200.593L12335 201.852L12333.9 199.302L12287.2 92.3912L12342.2 192.803L12344.1 192.157L12338.4 158.125L12354.2 188.889L12355.6 191.646L12356 188.583L12369.9 96.8301L12366.6 188.372L12368.5 188.857L12384.1 158.018L12378.6 192.089L12380.6 192.631L12419.5 99.2821L12388.9 199.281L12388.2 201.547L12390.3 200.464L12421.1 184.621L12396.6 208.956L12397.6 210.616L12502.6 176.283L12400.9 220.631L12397.7 222.018L12401.1 222.537Z" fill="black" stroke="white" stroke-width="2"/>
<path d="M12412 342.321L12377.2 364.147L12505.8 353.904L12378.4 376.567L12416.6 391.388L12375.6 388.751L12491.4 464.459L12369.2 399.5L12391.3 433.877L12359.8 407.77L12414.5 546.056L12348.3 412.746L12345.8 453.529L12335.8 413.943L12312.7 566L12323.5 411.242L12297.4 442.871L12312.7 404.92L12196.1 514.986L12304.5 395.577L12185 440.49L12299.5 384.136L12258.5 381.8L12298.3 371.71L12149.9 315.138L12301.1 359.533L12269.3 333.665L12307.5 348.772L12210 199.059L12316.9 340.506L12306.6 300.996L12328.4 335.528L12323.5 141.564L12340.9 334.331L12356 296.258L12353.2 337.03L12444.5 203.257L12364 343.355L12398.6 321.277L12372.3 352.697L12412 342.321Z" fill="#E71D73"/>
<path d="M12288.6 276.832L12248 283.184L12382.3 325.511L12244.2 295.042L12273.5 323.692L12236.9 305.148L12321.9 419.037L12226.8 312.502L12233.6 352.755L12214.8 316.386L12188.8 456.532L12202.3 316.423L12183.9 352.891L12190.3 312.608L12118.5 415.149L12180.1 305.316L12143.6 324.082L12172.6 295.264L12054.7 297.79L12168.7 283.426L12128 277.312L12168.6 270.97L12087.5 220.848L12172.4 259.101L12143.1 230.452L12179.8 249.005L12131.5 160.133L12189.9 241.643L12183.1 201.399L12201.8 237.757L12211 116.975L12214.4 237.721L12232.7 201.253L12226.3 241.536L12255.2 212.49L12236.6 248.83L12338.4 180.77L12244 258.881L12284.5 252.231L12247.9 270.719L12288.6 276.832Z" fill="white"/>
<path d="M8683.4 427.4L8648.69 427.513L8681.75 417L8685.38 415.847L8681.65 415.068L8561.97 390.035L8683.31 404.695L8684.01 402.889L8655.84 382.73L8688.83 393.513L8692.25 394.631L8689.9 391.909L8590.78 277.149L8697.33 384.433L8698.99 383.414L8688.15 350.64L8708.47 378.645L8710.69 381.708L8710.27 377.947L8692.73 220.582L8720.73 376.284L8722.66 376.415L8733.3 343.564L8733.15 378.063L8733.14 381.163L8734.96 378.655L8755.29 350.672L8744.42 383.432L8746.11 384.414L8875.07 240.196L8753.49 391.957L8751.4 394.572L8754.58 393.533L8787.57 382.773L8759.41 402.908L8756.67 404.865L8760.03 404.721L8886.07 399.304L8761.82 415.074L8758.2 415.534L8761.55 416.984L8817.49 441.178L8760.21 427.447L8759.4 429.233L8787.55 449.39L8754.57 438.599L8751.87 437.717L8753.42 440.095L8822.52 546.288L8746.14 447.781L8744.4 448.708L8755.25 481.466L8734.94 453.477L8733.12 450.969L8733.13 454.067L8733.43 546.864L8722.68 455.897L8720.73 455.707L8710.1 488.558L8710.25 454.059L8708.28 453.815L8684.04 552.022L8699.01 448.518L8699.35 446.173L8697.44 447.566L8669.41 467.933L8689.93 440.134L8688.64 438.667L8574.56 502.511L8683.96 429.231L8686.71 427.39L8683.4 427.4Z" fill="black" stroke="white" stroke-width="2"/>
<path d="M8170.76 421.587L8134.62 415.705L8170.84 410.483L8174.57 409.945L8171.06 408.563L8078.97 372.274L8174.59 398.062L8178.21 399.037L8175.56 396.39L8149.74 370.553L8182.2 387.471L8185.33 389.103L8183.52 386.072L8115.14 271.55L8192.55 379.577L8194.35 378.84L8188.73 342.876L8205.03 375.517L8206.66 378.781L8206.92 375.142L8217.63 226.627L8218.09 375.193L8219.98 375.649L8236.71 343.317L8230.6 379.176L8230.08 382.231L8232.29 380.056L8258.28 354.463L8241.3 386.659L8242.82 387.903L8384.7 273.068L8249.19 397.03L8246.77 399.25L8250.02 398.756L8286.2 393.266L8253.42 409.342L8250.58 410.733L8253.7 411.228L8359.3 427.972L8253.82 422.313L8250.06 422.111L8253.22 424.152L8307.24 458.987L8250 434.798L8248.91 436.426L8274.72 462.259L8242.26 445.334L8239.74 444.018L8240.88 446.623L8283.82 544.308L8231.96 453.323L8230.1 453.973L8235.73 489.922L8219.44 457.299L8218.18 454.774L8217.57 457.53L8200.98 532.438L8206.36 457.697L8204.48 457.165L8187.74 489.498L8193.86 453.639L8191.99 453.002L8150.61 531.007L8183.19 446.046L8184.12 443.642L8181.81 444.793L8149.13 461.134L8175.29 435.765L8174.26 434.102L8062.86 472.584L8171.01 423.485L8174.02 422.119L8170.76 421.587Z" fill="black" stroke="white" stroke-width="2"/>
<path d="M7672.31 439.433L7635.82 442.396L7669.72 428.634L7669.42 426.711L7601.61 421.192L7670.48 415.673L7673.58 415.425L7670.92 413.82L7639.66 394.935L7675.22 403.568L7678.86 404.451L7676.15 401.872L7603.02 332.316L7683.42 393.457L7686.39 395.718L7684.95 392.274L7670.86 358.71L7694.52 386.485L7696.98 389.372L7696.26 385.647L7672.65 262.825L7707.13 383.067L7708.18 386.721L7709.06 383.025L7717.55 347.62L7720.22 383.898L7720.45 386.989L7722.07 384.348L7741.16 353.265L7732.41 388.595L7734.18 389.43L7821.19 271.972L7742.54 396.79L7740.86 399.452L7743.77 398.247L7777.57 384.233L7749.61 407.707L7747.11 409.805L7750.36 409.468L7841.41 400.017L7753.08 420.21L7749.66 420.992L7752.98 422.131L7813.77 442.983L7752.41 433.238L7751.73 435.082L7782.99 453.966L7747.42 445.324L7744.96 444.728L7746.35 446.843L7785.75 507.215L7739.35 455.574L7737.69 456.63L7751.78 490.177L7728.14 462.417L7726.38 460.349L7726.38 463.066L7726.38 521.241L7715.53 465.919L7713.58 465.878L7705.09 501.282L7702.42 465.005L7700.48 464.751L7678.53 528.118L7690.24 460.238L7690.71 457.513L7688.61 459.307L7660.8 483.015L7680.11 452.109L7678.73 450.731L7602.48 498.295L7673.02 441.207L7675.54 439.171L7672.31 439.433Z" fill="black" stroke="white" stroke-width="2"/>
<path d="M7233.69 440.055L7198.67 450.72L7228.86 430.055L7228.19 428.237L7169.67 434.886L7226.86 417.227L7229.8 416.319L7226.88 415.325L7192.31 403.53L7228.91 404.392L7232.49 404.476L7229.47 402.549L7157.16 356.504L7234.76 392.767L7238.15 394.353L7236 391.287L7215.09 361.492L7244.12 383.592L7247.18 385.927L7245.64 382.396L7206.98 294.011L7255.73 377.597L7257.52 380.667L7257.59 377.114L7258.35 340.715L7268.68 375.592L7269.56 378.563L7270.59 375.637L7282.61 341.204L7281.59 377.587L7283.5 378.031L7331.78 272.664L7293.23 383.448L7292.22 386.355L7294.75 384.598L7324.79 363.707L7302.47 392.598L7300.49 395.154L7303.57 394.161L7373.42 371.59L7308.49 404.086L7305.48 405.595L7308.83 405.974L7362.04 412.007L7310.6 416.951L7310.37 418.893L7344.93 430.689L7308.34 429.819L7305.65 429.755L7307.64 431.559L7351.22 471.114L7302.57 441.508L7301.23 442.937L7322.15 472.714L7293.13 450.625L7290.75 448.809L7291.57 451.694L7304.98 499.011L7281.52 456.642L7279.73 453.395L7279.65 457.106L7278.9 493.506L7268.56 458.629L7266.61 458.761L7258.05 514.247L7255.65 456.567L7255.53 453.795L7253.85 456.003L7231.73 485.087L7244.01 450.781L7242.41 449.695L7188.25 497.686L7234.75 441.65L7236.88 439.083L7233.69 440.055Z" fill="black" stroke="white" stroke-width="2"/>
<path d="M6828.84 434.725L6800.48 457.89L6820.57 427.308L6819.24 425.893L6760.29 459.865L6813.84 416.206L6816.25 414.244L6813.15 414.433L6776.69 416.646L6810.87 403.55L6814.04 402.334L6810.72 401.638L6739.45 386.727L6811.86 390.574L6815.65 390.775L6812.46 388.733L6781.8 369.109L6817.04 378.532L6820.51 379.459L6818.02 376.873L6756.24 312.606L6825.49 368.561L6828.4 370.913L6827.05 367.423L6813.93 333.463L6836.73 361.804L6838.68 364.218L6838.51 361.123L6836.56 324.702L6849.43 358.75L6851.36 358.439L6854.87 275.092L6862.43 359.787L6862.69 362.681L6864.26 360.241L6884.13 329.507L6874.44 364.71L6876.12 365.672L6921.54 318.972L6884.31 373.14L6882.48 375.804L6885.5 374.64L6932.47 356.495L6891.12 384.206L6888.06 386.258L6891.74 386.035L6928.19 383.827L6894 396.916L6891.11 398.025L6894.11 398.816L6950.67 413.742L6893.02 409.907L6892.42 411.747L6923.07 431.355L6887.84 421.935L6885.25 421.241L6886.76 423.463L6912.2 460.9L6879.42 431.941L6877.83 433.051L6890.95 467.011L6868.15 438.67L6865.86 435.828L6866.38 439.439L6873.2 486.956L6855.44 441.718L6854.33 438.885L6853.54 441.826L6844.12 477.129L6842.46 440.73L6840.56 440.34L6814.49 494.16L6830.44 435.762L6831.26 432.747L6828.84 434.725Z" fill="black" stroke="white" stroke-width="2"/>
<path d="M6357.59 412.716L6338.43 443.919L6347.34 408.43L6348.23 404.871L6345.66 407.485L6306.88 446.829L6337.32 400.183L6339.09 397.46L6336.09 398.714L6302.39 412.796L6330.36 389.187L6332.81 387.122L6329.62 387.427L6276.9 392.479L6327.06 376.598L6330.5 375.509L6326.99 374.672L6291.58 366.223L6327.96 363.529L6331.78 363.247L6328.31 361.626L6266.59 332.806L6332.73 351.357L6335.88 352.24L6333.76 349.747L6310.2 321.993L6341.06 341.255L6343.68 342.897L6342.51 340.028L6328.69 306.274L6352.04 334.196L6353.78 333.31L6339.97 278.61L6364.66 330.915L6365.87 333.472L6366.54 330.724L6375.19 295.167L6377.62 331.596L6379.54 331.924L6398.1 288.692L6389.69 336.402L6389.14 339.562L6391.39 337.279L6421.39 306.885L6399.72 344.626L6398.25 347.183L6400.97 346.046L6434.66 331.972L6406.69 355.576L6404.19 357.681L6407.44 357.335L6454.77 352.287L6409.96 368.19L6406.78 369.321L6410.07 370.105L6445.46 378.54L6409.1 381.23L6406.17 381.447L6408.62 383.063L6442.16 405.142L6404.36 393.419L6401.07 392.401L6403.3 395.021L6426.86 422.775L6396 403.513L6393.51 401.957L6394.54 404.71L6407.85 440.448L6385.04 410.615L6383 407.944L6383.25 411.296L6385.97 447.734L6372.42 413.908L6371.25 410.978L6370.52 414.05L6359.44 460.822L6359.44 413.239L6359.44 409.699L6357.59 412.716Z" fill="black" stroke="white" stroke-width="2"/>
<path d="M5845.41 373.397L5838.02 409.258L5834.32 372.856L5834.02 369.925L5832.47 372.432L5811.65 406.157L5822.07 368.552L5823.01 365.183L5820.43 367.549L5793.54 392.265L5811.8 360.543L5813.39 357.78L5810.51 359.139L5775.18 375.793L5804.46 349.785L5806.83 347.687L5803.69 348.044L5767.52 352.155L5800.81 337.234L5803.57 335.996L5800.62 335.345L5765.26 327.562L5801.17 324.165L5804.31 323.868L5801.57 322.302L5769.96 304.229L5805.54 311.834L5808.57 312.482L5806.49 310.185L5782 283.151L5813.46 301.457L5816.38 303.153L5814.86 300.142L5797.33 265.41L5824.19 294.049L5826.24 296.233L5825.91 293.256L5821.94 256.878L5836.63 290.302L5838.02 293.466L5838.54 290.048L5843.85 254.681L5849.62 290.697L5850.07 293.538L5851.48 291.027L5870.48 257.068L5861.85 294.982L5861.14 298.112L5863.5 295.94L5890.39 271.234L5872.12 302.953L5870.64 305.523L5873.38 304.374L5909.35 289.254L5879.5 313.697L5876.87 315.848L5880.25 315.464L5916.4 311.344L5883.13 326.254L5880.36 327.494L5883.32 328.143L5918.84 335.928L5882.77 339.333L5879.63 339.629L5882.37 341.196L5913.97 359.27L5878.4 351.664L5875.53 351.05L5877.43 353.289L5902.11 382.36L5870.51 362.074L5867.68 360.258L5869.06 363.325L5884.02 396.661L5859.76 369.468L5857.77 367.235L5858.02 370.217L5861.26 409.051L5847.32 373.236L5846.09 370.08L5845.41 373.397Z" fill="black" stroke="white" stroke-width="2"/>
<path d="M5349.8 352.376L5346.96 383.471L5340.35 352.976L5339.72 350.096L5338.46 352.761L5324.04 383.33L5329.28 350.477L5329.83 347.025L5327.54 349.664L5307.1 373.174L5319.55 344.548L5320.83 341.625L5318.11 343.298L5289.76 360.781L5312.1 335.946L5314.21 333.597L5311.13 334.302L5280.87 341.237L5307.67 325.413L5310.27 323.874L5307.26 323.558L5276.55 320.333L5306.66 314.029L5309.75 313.382L5306.85 312.132L5278.34 299.827L5309.21 302.881L5312.3 303.186L5309.97 301.135L5286.64 280.557L5315.05 293.072L5318.14 294.431L5316.29 291.609L5298.13 263.848L5323.62 285.561L5325.9 287.503L5325.25 284.58L5318.41 254.128L5334.05 281.053L5335.79 284.042L5335.91 280.587L5337.04 250.119L5345.37 280.097L5346.14 282.869L5347.25 280.217L5360.12 249.627L5356.42 282.577L5356.06 285.767L5358.17 283.345L5378.6 259.844L5366.14 288.468L5364.96 291.188L5367.55 289.74L5396.6 273.492L5373.64 297.051L5371.26 299.483L5374.58 298.723L5404.82 291.783L5378.04 307.595L5375.43 309.137L5378.45 309.451L5409.3 312.661L5379.05 318.988L5375.96 319.634L5378.86 320.885L5407.37 333.19L5376.49 330.137L5373.57 329.847L5375.71 331.86L5399.41 354.149L5370.7 339.973L5367.68 338.485L5369.39 341.378L5385.25 368.206L5362.1 347.473L5359.87 345.477L5360.45 348.412L5366.9 381.018L5351.68 352.002L5350.11 349.003L5349.8 352.376Z" fill="black" stroke="white" stroke-width="2"/>
<path d="M4860.5 306.069L4870.04 332.758L4852.95 310.176L4851.17 307.827L4851.15 310.773L4850.95 341.459L4842.72 312.412L4841.76 309.049L4840.79 312.408L4832.96 339.577L4832.26 311.247L4832.19 308.061L4830.43 310.721L4813.77 335.954L4822.67 306.965L4823.59 303.944L4821.1 305.881L4798.83 323.161L4814.85 299.885L4816.56 297.391L4813.7 298.372L4787.17 307.461L4809.56 290.757L4812.09 288.87L4808.93 288.956L4780.75 289.725L4807.34 280.434L4810.27 279.412L4807.3 278.531L4780.21 270.506L4808.39 269.95L4811.76 269.884L4808.9 268.101L4783.34 252.187L4812.63 260.32L4815.52 261.121L4813.69 258.747L4796.42 236.287L4819.59 252.477L4822.42 254.457L4821.08 251.27L4810.37 225.759L4828.68 247.261L4830.55 249.451L4830.44 246.576L4829.34 216.473L4838.9 245.014L4839.92 248.058L4840.81 244.974L4848.64 217.814L4849.33 246.144L4849.4 249.11L4851.14 246.706L4868.85 222.222L4858.95 250.394L4857.82 253.599L4860.5 251.516L4882.76 234.237L4866.75 257.496L4865.03 259.995L4867.9 259.009L4894.54 249.855L4872.04 266.632L4869.51 268.519L4872.67 268.433L4900.85 267.664L4874.26 276.955L4871.49 277.924L4874.27 278.848L4902.31 288.143L4873.25 287.447L4869.89 287.366L4872.66 289.271L4895.98 305.298L4868.99 297.076L4866.13 296.204L4867.89 298.622L4885.67 323.006L4862.05 304.938L4859.36 302.88L4860.5 306.069Z" fill="black" stroke="white" stroke-width="2"/>
<path d="M4350.21 306.025L4362.88 325.659L4344.91 310.738L4342.65 308.856L4343.3 311.729L4348.9 336.403L4336.84 314.641L4335.15 311.583L4334.97 315.075L4333.78 338.355L4327.91 315.741L4327.11 312.655L4326 315.645L4317.36 339.027L4319.07 314.083L4319.28 310.93L4317.29 313.385L4302.65 331.438L4311.15 309.741L4312.25 306.921L4309.68 308.529L4290.09 320.806L4304.93 303.193L4306.96 300.78L4303.91 301.582L4281.42 307.487L4301.03 295.037L4303.65 293.376L4300.55 293.194L4277.3 291.831L4299.82 286.098L4303.09 285.266L4299.9 284.182L4276.39 276.203L4301.44 277.237L4304.43 277.361L4302.12 275.464L4284.04 260.672L4305.67 269.323L4308.88 270.607L4306.85 267.808L4293.47 249.348L4312.22 263.178L4314.53 264.886L4313.77 262.11L4307.24 238.152L4320.27 259.27L4321.95 262.003L4322.12 258.797L4323.31 235.524L4329.18 258.14L4329.92 261.011L4331.07 258.275L4340.69 235.291L4338.03 259.76L4337.66 263.137L4339.8 260.498L4354.43 242.45L4345.94 264.13L4344.83 266.954L4347.4 265.342L4367.08 252.991L4352.16 270.684L4350.13 273.097L4353.18 272.295L4375.67 266.39L4356.06 278.84L4353.58 280.415L4356.5 280.68L4380.77 282.883L4357.31 287.775L4354.02 288.461L4357.15 289.685L4378.88 298.18L4355.67 296.641L4352.69 296.443L4354.95 298.396L4373.8 314.641L4351.46 304.571L4348.37 303.179L4350.21 306.025Z" fill="black" stroke="white" stroke-width="2"/>
<path d="M3826.69 289.873L3841.08 307.203L3822.17 294.994L3819.69 293.396L3820.68 296.171L3828.89 319.139L3814.84 299.704L3812.79 296.871L3813.03 300.358L3814.57 322.776L3806.35 301.81L3805.18 298.842L3804.44 301.943L3798.87 325.315L3797.63 301.246L3797.47 298.09L3795.78 300.765L3783.85 319.73L3789.48 297.985L3790.24 295.054L3787.89 296.956L3770.54 310.965L3782.72 292.399L3784.45 289.76L3781.51 290.921L3760.67 299.164L3778.01 284.988L3780.4 283.026L3777.31 283.216L3754.9 284.591L3775.79 276.509L3778.94 275.292L3775.64 274.598L3752.23 269.67L3776.32 267.773L3779.3 267.538L3776.78 265.932L3757.77 253.859L3779.47 259.645L3782.81 260.536L3780.46 258L3765.53 241.877L3785.06 252.953L3787.57 254.373L3786.48 251.707L3777.47 229.531L3792.37 248.241L3794.37 250.752L3794.15 247.55L3792.61 225.14L3800.83 246.108L3801.91 248.869L3802.72 246.016L3809.29 222.909L3809.56 246.633L3809.6 250.029L3811.41 247.153L3823.33 228.194L3817.7 249.923L3816.94 252.859L3819.3 250.951L3836.7 236.863L3824.47 255.514L3822.74 258.154L3825.67 256.993L3846.52 248.749L3829.18 262.925L3826.91 264.785L3829.84 264.699L3853.32 264.011L3831.44 271.395L3828.25 272.469L3831.51 273.31L3853.28 278.937L3830.89 280.138L3827.9 280.299L3830.39 281.967L3850.3 295.342L3827.76 288.28L3824.52 287.267L3826.69 289.873Z" fill="black" stroke="white" stroke-width="2"/>
<path d="M3281.76 286.886L3296.04 294.889L3280.03 291.537L3277.15 290.933L3279.07 293.168L3290.62 306.61L3276.05 297.101L3273.12 295.191L3274.6 298.36L3281.48 313.161L3270.44 301.084L3268.29 298.732L3268.71 301.891L3271.02 319.194L3263.91 303.191L3262.62 300.304L3262.01 303.404L3258.86 319.383L3257.01 303.157L3256.67 300.149L3255.15 302.77L3247.03 316.802L3250.45 301.03L3251.12 297.946L3248.8 300.082L3236.8 311.112L3244.87 296.972L3246.41 294.28L3243.59 295.566L3228.74 302.343L3240.81 291.413L3243.31 289.149L3239.98 289.685L3222.82 292.443L3238.67 284.875L3241.37 283.584L3238.44 282.992L3222.4 279.757L3238.62 278.026L3242.06 277.659L3238.96 276.134L3224.65 269.099L3240.79 271.523L3243.64 271.95L3241.67 269.85L3229.78 257.162L3244.76 265.966L3247.52 267.593L3246.17 264.682L3239.29 249.886L3250.33 261.965L3252.33 264.155L3252.06 261.201L3250.49 243.808L3256.86 259.82L3258.11 262.976L3258.77 259.643L3261.91 243.674L3263.76 259.885L3264.1 262.899L3265.62 260.272L3273.76 246.168L3270.32 262.015L3269.65 265.1L3271.97 262.963L3283.97 251.933L3275.9 266.073L3274.45 268.625L3277.16 267.491L3292.92 260.9L3280 271.606L3277.42 273.752L3280.76 273.369L3296.99 271.51L3282.12 278.16L3279.39 279.381L3282.31 280.048L3299.3 283.932L3282.19 285.016L3278.81 285.23L3281.76 286.886Z" fill="black" stroke="white" stroke-width="2"/>
<path d="M2732.99 298.003L2745.47 297.763L2733.64 301.733L2730.85 302.671L2733.64 303.627L2746.44 308.02L2733.19 307.385L2729.7 307.218L2732.57 309.207L2742.82 316.294L2730.88 312.604L2727.84 311.662L2729.8 314.175L2738 324.676L2727.13 316.884L2724.57 315.042L2725.61 318.026L2729.7 329.77L2722.22 319.792L2720.4 317.37L2720.42 320.398L2720.49 332.784L2716.65 321.071L2715.67 318.072L2714.74 321.09L2711.1 332.994L2710.95 320.559L2710.91 317.46L2709.13 319.996L2701.97 330.197L2705.7 318.336L2706.71 315.119L2704.1 317.265L2693.88 325.701L2701.4 314.592L2703.08 312.111L2700.24 313.085L2688.43 317.147L2698.45 309.744L2701.23 307.689L2697.78 307.943L2685.66 308.834L2697.23 304.195L2699.9 303.124L2697.14 302.308L2684.42 298.542L2697.67 298.559L2700.88 298.563L2698.24 296.737L2688 289.651L2699.94 293.344L2702.77 294.221L2701.05 291.807L2693.29 280.953L2703.66 289.036L2706.34 291.124L2705.22 287.917L2701.12 276.184L2708.6 286.152L2710.42 288.578L2710.4 285.545L2710.32 273.101L2714.17 284.872L2715.15 287.872L2716.08 284.854L2719.72 272.949L2719.87 285.384L2719.9 288.322L2721.67 285.973L2729.51 275.536L2725.14 287.566L2724 290.725L2726.68 288.706L2736.66 281.211L2729.44 291.331L2727.7 293.766L2730.55 292.866L2743.25 288.861L2732.41 296.174L2729.6 298.068L2732.99 298.003Z" fill="black" stroke="white" stroke-width="2"/>
<path d="M2249.84 321.511L2259.9 321.318L2250.37 324.517L2247.58 325.454L2250.37 326.411L2260.68 329.952L2250.02 329.441L2246.53 329.274L2249.41 331.262L2257.66 336.973L2248.04 333.999L2245 333.057L2246.96 335.57L2253.57 344.031L2244.81 337.751L2242.24 335.909L2243.28 338.893L2246.59 348.362L2240.55 340.315L2238.73 337.893L2238.75 340.92L2238.8 350.911L2235.71 341.467L2234.73 338.469L2233.8 341.486L2230.86 351.087L2230.75 341.059L2230.71 337.96L2228.93 340.496L2223.15 348.722L2226.15 339.16L2227.17 335.943L2224.56 338.089L2216.33 344.883L2222.39 335.926L2224.07 333.446L2221.24 334.42L2211.72 337.694L2219.79 331.729L2222.57 329.674L2219.12 329.928L2209.36 330.645L2218.7 326.904L2221.37 325.833L2218.61 325.016L2208.36 321.983L2219.03 321.997L2222.24 322.001L2219.6 320.174L2211.35 314.465L2220.97 317.441L2223.8 318.318L2222.08 315.905L2215.83 307.151L2224.18 313.662L2226.86 315.75L2225.74 312.544L2222.43 303.084L2228.46 311.122L2230.28 313.548L2230.26 310.515L2230.2 300.477L2233.31 309.969L2234.29 312.969L2235.21 309.95L2238.15 300.349L2238.27 310.377L2238.3 313.315L2240.07 310.966L2246.4 302.545L2242.88 312.235L2241.73 315.395L2244.42 313.376L2252.46 307.333L2246.64 315.489L2244.9 317.924L2247.75 317.024L2257.99 313.795L2249.26 319.683L2246.46 321.577L2249.84 321.511Z" fill="black" stroke="white" stroke-width="2"/>
<path d="M1756 342.933L1764.01 342.779L1756.42 345.326L1754.33 346.029L1756.42 346.746L1764.63 349.565L1756.14 349.158L1753.52 349.033L1755.68 350.524L1762.25 355.071L1754.59 352.703L1752.31 351.997L1753.78 353.882L1759.04 360.618L1752.07 355.618L1750.14 354.237L1750.92 356.475L1753.55 364.012L1748.75 357.607L1747.38 355.791L1747.4 358.061L1747.44 366.013L1744.98 358.496L1744.24 356.247L1743.55 358.51L1741.21 366.152L1741.11 358.17L1741.09 355.845L1739.75 357.748L1735.15 364.295L1737.54 356.683L1738.3 354.271L1736.35 355.88L1729.79 361.29L1734.62 354.161L1735.88 352.3L1733.75 353.031L1726.17 355.637L1732.6 350.888L1734.68 349.347L1732.1 349.537L1724.33 350.108L1731.76 347.13L1733.76 346.327L1731.69 345.715L1723.53 343.3L1732.03 343.311L1734.44 343.314L1732.46 341.944L1725.89 337.398L1733.55 339.768L1735.67 340.425L1734.38 338.615L1729.4 331.648L1736.05 336.832L1738.06 338.398L1737.22 335.993L1734.59 328.463L1739.39 334.861L1740.76 336.681L1740.74 334.406L1740.69 326.417L1743.16 333.972L1743.9 336.222L1744.59 333.958L1746.93 326.317L1747.02 334.298L1747.05 336.501L1748.37 334.74L1753.41 328.038L1750.61 335.754L1749.75 338.123L1751.76 336.609L1758.17 331.799L1753.53 338.292L1752.23 340.118L1754.37 339.443L1762.52 336.873L1755.57 341.562L1753.46 342.982L1756 342.933Z" fill="black" stroke="white" stroke-width="1.5"/>
<path d="M1259.75 357.305L1266.19 357.181L1260.09 359.23L1258.69 359.699L1260.08 360.177L1266.69 362.443L1259.85 362.116L1258.1 362.032L1259.54 363.026L1264.83 366.683L1258.67 364.779L1257.15 364.308L1258.13 365.565L1262.36 370.983L1256.75 366.962L1255.47 366.041L1255.99 367.533L1258.1 373.592L1254.24 368.445L1253.33 367.234L1253.34 368.748L1253.38 375.137L1251.4 369.095L1250.91 367.595L1250.44 369.104L1248.56 375.245L1248.49 368.83L1248.47 367.281L1247.58 368.549L1243.88 373.811L1245.81 367.692L1246.31 366.084L1245.01 367.157L1239.73 371.509L1243.61 365.778L1244.45 364.538L1243.04 365.025L1236.94 367.12L1242.11 363.301L1243.5 362.273L1241.78 362.4L1235.52 362.86L1241.49 360.467L1242.83 359.931L1241.45 359.523L1234.88 357.581L1241.72 357.589L1243.33 357.591L1242.01 356.678L1236.72 353.022L1242.88 354.927L1244.3 355.366L1243.43 354.159L1239.43 348.56L1244.78 352.73L1246.12 353.774L1245.56 352.171L1243.45 346.117L1247.31 351.26L1248.22 352.473L1248.21 350.956L1248.16 344.537L1250.15 350.61L1250.64 352.11L1251.11 350.6L1252.99 344.459L1253.06 350.874L1253.08 352.343L1253.96 351.169L1258.01 345.784L1255.75 351.991L1255.18 353.571L1256.52 352.562L1261.67 348.695L1257.94 353.916L1257.07 355.134L1258.5 354.684L1265.05 352.617L1259.46 356.391L1258.05 357.338L1259.75 357.305Z" fill="black" stroke="white"/>
<path d="M765.747 361.305L772.19 361.181L766.086 363.23L764.69 363.699L766.083 364.177L772.687 366.443L765.85 366.116L764.104 366.032L765.542 367.026L770.828 370.683L764.671 368.779L763.148 368.308L764.129 369.565L768.359 374.983L762.754 370.962L761.47 370.041L761.99 371.533L764.104 377.592L760.241 372.445L759.332 371.234L759.341 372.748L759.378 379.137L757.397 373.095L756.906 371.595L756.444 373.104L754.564 379.245L754.489 372.83L754.47 371.281L753.58 372.549L749.882 377.811L751.806 371.692L752.312 370.084L751.011 371.157L745.734 375.509L749.614 369.778L750.453 368.538L749.037 369.025L742.943 371.12L748.11 367.301L749.5 366.273L747.776 366.4L741.521 366.86L747.491 364.467L748.826 363.931L747.447 363.523L740.882 361.581L747.721 361.589L749.326 361.591L748.006 360.678L742.722 357.022L748.879 358.927L750.296 359.366L749.434 358.159L745.434 352.56L750.783 356.73L752.122 357.774L751.562 356.171L749.449 350.117L753.307 355.26L754.217 356.473L754.207 354.956L754.164 348.537L756.153 354.61L756.644 356.11L757.106 354.6L758.986 348.459L759.062 354.874L759.079 356.343L759.961 355.169L764.007 349.784L761.754 355.991L761.18 357.571L762.524 356.562L767.672 352.695L763.944 357.916L763.075 359.134L764.501 358.684L771.052 356.617L765.458 360.391L764.054 361.338L765.747 361.305Z" fill="black" stroke="white"/>
<path d="M8806.01 424.78L8845.19 412.336L8706 390.894L8847.16 400.035L8813.79 376.175L8852.86 388.934L8751.57 289.27L8861.74 380.13L8848.91 341.377L8872.95 374.479L8877.43 232.002L8885.36 372.536L8897.94 333.707L8897.77 374.489L8953.13 262.24L8908.95 380.149L8942.16 356.061L8917.84 388.953L9034 368.553L8923.54 400.054L8964.68 399.92L8925.5 412.355L9013.3 449.578L8923.53 424.666L8956.9 448.525L8917.82 435.757L8979.06 516.264L8908.93 444.571L8921.78 483.314L8897.75 450.221L8906.98 571.002L8885.33 452.165L8872.75 490.994L8872.92 450.212L8848.86 483.295L8861.72 444.552L8771.42 527.283L8852.84 435.747L8813.77 448.477L8847.14 424.647L8806.01 424.78Z" fill="white"/>
<path d="M9288.87 300.567L9326.69 284.457L9186.09 276.334L9327.48 272.024L9292 251.443L9332.11 260.432L9221.8 170.841L9340.11 250.824L9323.65 213.466L9350.73 244.134L9341.65 101.876L9362.9 241.021L9371.73 201.173L9375.43 241.786L9419.88 124.786L9387.11 246.358L9417.88 219.224L9396.79 254.278L9510.49 222.935L9403.52 264.787L9444.46 260.746L9406.64 276.847L9497.58 305.561L9405.85 289.288L9441.33 309.871L9401.22 300.872L9469.83 375.198L9393.21 310.49L9409.68 347.838L9382.61 317.178L9403.27 436.536L9370.43 320.293L9361.6 360.141L9357.9 319.527L9337.08 354.746L9346.21 314.956L9264.17 405.892L9336.54 307.035L9298.85 323.42L9329.8 296.527L9288.87 300.567Z" fill="white"/>
<path d="M8303.29 418.123L8345.66 410.173L8233.25 378.462L8349.29 397.612L8317.62 368.49L8356.65 386.779L8288.6 301.137L8367.01 378.744L8358.62 336.735L8379.4 374.292L8396.16 253.91L8392.56 373.854L8410.63 335.018L8405.22 377.476L8477.21 267.637L8416.14 384.803L8453.79 363.961L8424.26 395.112L8513.84 390.829L8428.78 407.404L8471.6 412.528L8429.24 420.468L8502.26 460.398L8425.62 433.04L8457.28 462.161L8418.25 443.862L8459.37 512.05L8407.87 451.906L8416.28 493.906L8395.51 456.36L8390.01 553.901L8382.33 456.796L8364.27 495.632L8369.67 453.174L8340.39 484.556L8358.74 445.846L8277.84 503.336L8350.63 435.539L8308.34 443.8L8346.12 423.247L8303.29 418.123Z" fill="white"/>
<path d="M7791.56 396.532L7830.65 378.367L7748.19 372.543L7831.07 365.298L7793.18 344.898L7835.52 352.984L7770.19 304.003L7843.58 342.638L7825.07 304.003L7854.49 335.265L7841.73 234.042L7867.13 331.591L7875.05 289.498L7880.3 331.975L7919.76 234.039L7892.69 336.379L7924.02 306.887L7903.1 344.362L7972.19 320.544L7910.51 355.16L7953.28 349.551L7914.18 367.706L7980.69 380.783L7913.78 380.783L7951.65 401.184L7909.31 393.088L7951.65 442.069L7901.24 403.446L7919.76 442.069L7890.36 410.816L7903.1 497.043L7877.7 414.491L7869.79 456.584L7864.54 414.107L7843.92 451.747L7852.14 409.704L7802.79 456.584L7841.73 401.72L7802.79 420.168L7834.32 390.922L7791.56 396.532Z" fill="white"/>
<path d="M7304.35 327.067L7338.35 300.566L7269.15 311.972L7335.81 287.739L7294.31 276.394L7337.38 274.738L7269.15 236.588L7342.9 262.842L7316.17 229.368L7351.87 253.204L7320.61 176.088L7363.36 246.777L7361.59 203.982L7376.27 244.186L7392.33 163.09L7389.34 245.688L7413.22 209.897L7401.28 251.12L7447.65 213.59L7410.93 259.972L7451.34 244.877L7417.34 271.369L7485.08 269.134L7419.89 284.201L7461.38 295.55L7418.31 297.196L7469.65 332.588L7412.77 309.105L7439.51 342.567L7403.83 318.736L7425.15 383.088L7392.33 325.167L7394.09 367.962L7379.41 327.758L7367.8 369.074L7366.34 326.26L7335.81 369.074L7354.4 320.824L7320.61 347.568L7344.75 311.972L7304.35 327.067Z" fill="white"/>
<path d="M6836.1 310.487L6847.96 269.045L6802.99 304.324L6838.35 260.175L6798.13 275.454L6831.96 248.746L6767.99 257.13L6829.42 235.878L6788.1 224.575L6830.99 222.809L6779.49 192.017L6836.49 210.845L6809.85 177.303L6845.4 201.145L6821.99 146.324L6856.84 194.664L6855.06 151.672L6869.69 192.017L6879.99 140.824L6882.7 193.486L6906.46 157.489L6894.59 198.925L6937.99 157.489L6904.21 207.792L6944.43 192.521L6910.59 219.224L6957.99 215.824L6913.13 232.106L6954.45 243.395L6911.58 245.158L6961.49 275.958L6906.07 257.13L6932.71 290.672L6897.16 266.83L6912.11 307.062L6885.72 273.32L6888.49 317.474L6872.87 275.958L6861.31 317.474L6859.85 274.49L6836.1 310.487Z" fill="white"/>
<path d="M9237.77 431.463L9203.97 439.376L9233.82 421.7L9237.1 419.761L9233.29 419.839L9111.04 422.349L9232.57 409.36L9232.85 407.443L9200.88 394.13L9235.44 397.223L9239.03 397.543L9236.12 395.42L9113.74 305.877L9241.69 386.463L9243.07 385.098L9225.14 355.6L9251.23 378.322L9254.09 380.807L9252.83 377.236L9200.37 227.841L9262.65 373.265L9264.57 372.957L9267.54 338.558L9275.16 372.206L9275.84 375.23L9277.05 372.376L9290.57 340.54L9287.34 374.906L9289.21 375.481L9382.45 205.968L9298.1 381.172L9296.65 384.191L9299.52 382.462L9329.24 364.563L9306.33 390.513L9304.1 393.035L9307.34 392.139L9428.94 358.532L9311.42 401.824L9307.99 403.087L9311.58 403.746L9371.52 414.749L9312.63 414.243L9312.23 416.166L9344.2 429.48L9309.63 426.379L9306.8 426.126L9308.85 428.095L9400.05 516.037L9303.48 437.222L9301.99 438.516L9319.93 467.997L9293.85 445.288L9291.51 443.253L9292.22 446.27L9313.37 536.625L9282.45 450.403L9280.51 450.654L9277.53 485.054L9269.92 451.405L9267.95 451.611L9266.41 552.751L9257.73 448.531L9257.53 446.17L9255.98 447.958L9233.24 474.104L9246.99 442.404L9245.4 441.265L9148.6 529.117L9238.73 433.121L9240.99 430.708L9237.77 431.463Z" fill="black" stroke="white" stroke-width="2"/>
<path d="M9812.34 420.149L9785.92 442.673L9804.36 413.281L9806.38 410.058L9803.04 411.871L9695.53 470.12L9797.59 402.886L9796.96 401.055L9762.44 403.874L9794.58 390.782L9797.91 389.426L9794.36 388.868L9644.55 365.359L9795.2 378.358L9795.81 376.509L9766.35 358.508L9799.96 366.747L9803.63 367.648L9800.88 365.049L9685.79 256.303L9807.79 357.02L9809.35 355.869L9796.23 323.93L9818.42 350.35L9820.41 352.723L9820.18 349.632L9817.61 315.139L9830.48 347.166L9832.41 346.82L9837.61 153.424L9842.92 347.804L9843.01 351.153L9844.77 348.302L9862.99 318.771L9854.51 352.337L9853.69 355.6L9856.16 353.317L9948.84 267.728L9864.22 360.06L9861.75 362.752L9865.25 361.692L9923.56 344.006L9870.99 370.543L9871.52 372.432L9906.03 369.618L9873.88 382.703L9871.26 383.773L9873.97 384.587L9995.34 420.959L9873.38 395.158L9872.66 396.99L9902.11 414.975L9868.52 406.74L9865.51 406.002L9867.52 408.36L9927.73 478.978L9860.73 416.512L9859.12 417.624L9872.24 449.563L9850.06 423.143L9848.39 424.231L9893.37 514.833L9837.9 426.175L9836.65 424.167L9836.08 426.468L9827.86 460.126L9825.55 425.649L9823.62 425.366L9777.83 547.811L9813.95 421.185L9814.86 418.003L9812.34 420.149Z" fill="black" stroke="white" stroke-width="2"/>
<path d="M10350 428.977L10331.5 458.366L10340.3 424.809L10341.3 421.129L10338.7 423.858L10253.5 511.57L10330.8 416.91L10329.6 415.351L10297.5 428.356L10324.3 406.258L10327.1 403.968L10323.5 404.498L10173.5 426.827L10321.2 394.217L10321.2 392.271L10287.7 383.894L10322.2 381.715L10326 381.477L10322.6 379.818L10180.3 310.431L10326.8 370.093L10327.9 368.528L10305.9 341.968L10335 360.551L10337.6 362.221L10336.4 359.34L10323.7 327.191L10345.5 353.908L10347.3 353.001L10294.4 166.888L10357.6 350.8L10358.7 353.969L10359.5 350.722L10368.1 317.096L10370 351.663L10370.2 355.022L10371.9 352.105L10434.7 242.734L10381.6 356.132L10380 359.439L10383 357.383L10433.4 323.079L10391.2 364.114L10392.2 365.758L10424.3 352.76L10397.6 374.853L10395.4 376.624L10398.2 376.624L10514.8 376.624L10400.8 386.888L10400.7 388.854L10434.1 397.217L10399.6 399.393L10396.5 399.588L10399.1 401.238L10477.7 450.64L10395.1 411.048L10393.9 412.589L10416 439.148L10386.9 420.565L10385.6 422.1L10455.6 495.123L10376.2 427.09L10374.4 425.549L10374.6 427.913L10376.8 462.492L10364.3 430.279L10362.3 430.546L10351.9 540.464L10351.9 429.51L10351.9 426.041L10350 428.977Z" fill="black" stroke="white" stroke-width="2"/>
<path d="M10871.5 429.186L10859.8 461.855L10861.2 427.189L10861.3 423.388L10859.3 426.622L10794.9 530.57L10850.2 421.526L10848.7 420.25L10820.1 439.84L10841.5 412.515L10843.7 409.684L10840.4 410.964L10698.7 464.955L10835.9 401.424L10835.5 399.517L10801 398.522L10834.3 388.984L10837.9 387.941L10834.2 387.051L10680.3 349.819L10836.2 376.652L10837 374.878L10809.8 353.671L10842.1 365.584L10845 366.655L10843.3 364.086L10823.9 335.424L10851 356.829L10852.5 355.572L10761 185.127L10862.1 351.206L10863.9 354.068L10864 350.719L10865.1 316.039L10874.5 349.385L10875.4 352.626L10876.4 349.416L10914.3 229.104L10886.7 351.267L10885.9 354.83L10888.4 352.174L10930.2 307.862L10897.8 357.005L10899.2 358.381L10927.7 338.8L10906.3 366.121L10904.6 368.312L10907.3 367.715L11021.3 342.689L10912.1 377.178L10912.4 379.132L10946.9 380.116L10913.6 389.646L10910.6 390.5L10913.6 391.549L11000.9 422.945L10911.7 401.999L10910.9 403.762L10938.1 424.969L10905.7 413.055L10904.8 414.825L10988.9 471.128L10896.7 421.723L10894.6 420.603L10895.3 422.88L10904.8 456.18L10885.7 427.4L10883.9 428.074L10897.2 537.68L10873.4 429.309L10872.7 425.922L10871.5 429.186Z" fill="black" stroke="white" stroke-width="2"/>
<path d="M11901.6 321.985L11922.3 349.858L11894.2 329.49L11891.2 327.256L11892.7 330.715L11943.6 441.893L11883.4 335.541L11881.5 336.048L11882 370.68L11871.1 337.731L11870 334.317L11869.2 337.824L11835.7 485.715L11858.8 336.279L11857 335.549L11837 363.73L11847.5 330.755L11848.7 327.148L11845.9 329.718L11729.6 437.244L11838.3 322.288L11837.3 320.652L11804.5 331.596L11832.4 311.235L11834.9 309.405L11831.8 309.428L11797.2 309.676L11830 298.983L11829.8 297.036L11637.2 278.856L11831.5 286.616L11834.8 286.75L11832.1 284.803L11803.9 264.641L11836.8 275.355L11840 276.397L11837.9 273.777L11758.7 175.561L11845.2 266.19L11847.7 268.833L11846.8 265.275L11833.1 205.901L11856.1 260.142L11858 259.738L11857.5 225.115L11868.4 258.068L11869.3 260.71L11870.3 258.116L11912.5 149.405L11880.8 259.397L11882.6 260.252L11902.5 232.076L11892 265.031L11891.1 267.984L11893.6 266.136L11968.1 210.813L11901.2 273.463L11902.2 275.141L11935 264.198L11907.1 284.558L11908.1 286.289L12001.5 247.499L11909.3 296.888L11907.3 298.007L11909.5 298.722L11942.5 309.192L11908 309.176L11907.5 311.07L12006.2 360.649L11902.8 320.457L11899.6 319.201L11901.6 321.985Z" fill="black" stroke="white" stroke-width="2"/>
<path d="M6270.58 318.693L6262.92 276.273L6241.6 315.384L6250.39 272.558L6221.05 304.031L6239.6 265.127L6189.57 295.884L6231.64 254.705L6189.57 262.815L6227.27 242.289L6167.47 237.407L6226.93 229.124L6188.21 210.796L6230.63 216.487L6194.1 182.884L6238.03 205.62L6217.45 167.833L6248.4 197.567L6238.03 154.382L6260.72 193.137L6266.14 150.348L6273.79 192.767L6291.1 150.346L6286.34 196.474L6315.67 165.01L6296.29 205.619L6337.27 182.882L6305.08 214.347L6347.14 206.226L6309.45 226.743L6352.1 233.385L6309.8 239.917L6348.51 258.245L6306.09 252.555L6337.27 282.046L6298.68 263.432L6320.67 301.821L6288.32 271.474L6296.29 313.824L6276 275.904L6270.58 318.693Z" fill="white"/>
<path d="M5716.12 325.081L5700.2 285.022L5689.31 325.081L5687.18 283.865L5664.66 320.53L5675.14 278.72L5641.31 308.663L5665.26 270.083L5625.64 286.37L5658.52 258.779L5614.23 265.348L5655.57 245.945L5614 235.654L5656.7 232.823L5614.23 207.129L5661.8 220.704L5634.13 187.749L5670.36 210.757L5651.65 170.483L5681.56 203.972L5678.39 160.959L5694.3 201.019L5702.86 156.007L5707.33 202.165L5729.85 165.51L5719.36 207.321L5749.01 179.872L5729.25 215.968L5768.86 199.671L5735.99 227.251L5779.11 225.306L5738.94 240.096L5780.51 250.386L5737.81 253.218L5774.22 275.943L5732.71 265.346L5761.87 298.615L5724.15 275.283L5740.36 315.212L5712.95 282.068L5716.12 325.081Z" fill="white"/>
<path d="M5232.77 323.025L5215.01 289.749L5209.46 325.648L5203.57 290.017L5187.58 324.103L5192.6 286.721L5166.11 316.069L5183.17 280.177L5150.31 298.217L5176.2 271.007L5138.33 281.053L5172.38 260.136L5135.21 255.256L5172.07 248.615L5132.63 230.429L5175.32 237.578L5148.04 211.629L5181.79 228.091L5161.58 194.902L5190.87 221.095L5183.9 184.003L5201.65 217.281L5204.69 177.303L5213.1 217.002L5229.09 182.925L5224.07 220.308L5247.16 193.539L5233.51 226.86L5266.36 208.812L5240.47 236.012L5277.78 230.101L5244.29 246.892L5281.45 251.772L5244.6 258.413L5278.48 274.611L5241.35 269.459L5269.96 295.534L5234.88 278.937L5252.88 312.072L5225.8 285.933L5232.77 323.025Z" fill="white"/>
<path d="M4728.62 313.048L4707.82 288.768L4709.81 319.498L4698.4 291.091L4691.42 322.236L4688.71 290.377L4672.18 319.527L4679.71 286.692L4655.82 307.656L4672.26 280.383L4642.76 295.649L4667.1 272.087L4635.45 274.871L4664.73 262.608L4628.75 254.798L4665.39 252.877L4638.05 236.41L4669.01 243.837L4646.18 220.081L4675.24 236.381L4662.66 206.963L4683.46 231.245L4678.64 197.601L4692.88 228.913L4699.86 197.775L4702.57 229.636L4716.76 203.242L4711.58 233.325L4735.45 212.358L4719.03 239.621L4748.82 227.879L4724.19 247.923L4755.84 245.14L4726.55 257.403L4757.57 264.588L4725.89 267.14L4754.36 283.467L4722.27 276.173L4743.26 300.291L4716.05 283.629L4728.62 313.048Z" fill="white"/>
<path d="M4241.61 337.493L4219.5 321.284L4227.16 346.546L4212.1 325.06L4212.35 352.418L4203.87 326.354L4195.76 353.91L4195.63 325.034L4179.79 347.191L4188.18 321.22L4166.54 339.716L4182.26 315.302L4156.38 323.798L4178.44 307.85L4146.88 308.348L4177.09 299.598L4151.06 291.185L4178.35 291.348L4154.66 275.97L4182.09 283.909L4165.85 261.806L4187.95 278.018L4177.37 250.875L4195.36 274.234L4195.12 246.88L4203.59 272.949L4210.29 248.149L4211.83 274.27L4227.67 252.112L4219.27 278.073L4241.85 262.462L4225.2 283.997L4251.08 275.5L4229.02 291.449L4256.32 291.397L4230.37 299.706L4257.32 307.781L4229.12 307.951L4251.33 323.991L4225.37 315.389L4241.61 337.493Z" fill="white"/>
<path d="M3743.5 364.233L3723.3 350.781L3731.09 372.817L3716.9 354.416L3718.21 378.603L3709.68 355.889L3703.6 380.584L3702.34 355.051L3689.21 375.28L3695.6 351.976L3677.2 369.198L3690.12 346.978L3667.58 355.526L3686.45 340.54L3658.55 342.241L3684.93 333.295L3661.56 326.895L3685.71 325.948L3664.14 313.294L3688.72 319.22L3673.48 300.32L3693.67 313.776L3683.22 290.193L3700.07 310.133L3698.76 285.951L3707.29 308.668L3712.23 286.467L3714.64 309.507L3727.76 289.277L3721.37 312.573L3740.72 297.865L3726.85 317.576L3749.4 309.028L3730.53 324.014L3754.67 322.878L3732.05 331.262L3756.21 337.328L3731.27 338.605L3751.56 351.903L3728.26 345.333L3743.5 364.233Z" fill="white"/>
<path d="M3250.2 385.193L3231.58 379.308L3242.52 394.599L3227.45 383.546L3233.86 401.945L3222.19 386.298L3223.02 406.74L3216.34 387.289L3210.71 405.855L3210.44 386.418L3200.06 403.839L3205.09 383.779L3189.58 395.42L3200.81 379.625L3179.64 387.169L3198.02 374.366L3178.53 374.638L3196.98 368.514L3177.49 363.55L3197.81 362.641L3181.81 351.439L3200.42 357.328L3187.07 341.436L3204.55 353.083L3198.14 334.687L3209.8 350.337L3208.66 332.077L3215.67 349.345L3221.29 330.78L3221.56 350.211L3233.22 334.523L3226.91 352.853L3242.42 341.211L3231.19 357.007L3249.59 350.738L3233.99 362.269L3254.01 361.561L3235.02 368.118L3253.67 373.863L3234.19 373.991L3250.2 385.193Z" fill="white"/>
<path d="M2769.72 378.577L2752.54 382.283L2767.91 389.353L2751.2 387.44L2764.43 398.956L2748.32 391.935L2758.09 407.545L2744.19 395.323L2748.07 412.346L2739.19 397.273L2738.85 415.518L2733.83 397.596L2726.9 413.618L2728.63 396.26L2715.45 411.604L2724.1 393.395L2709 402.302L2720.68 389.285L2703.23 394.102L2718.71 384.326L2701.2 382.711L2718.38 379.009L2700.86 372.542L2719.71 373.847L2706.49 362.331L2722.59 369.356L2713.55 355.595L2726.73 365.965L2722.85 348.946L2731.72 364.014L2733.84 346.548L2737.09 363.691L2744.02 347.669L2742.28 365.027L2753.87 351.919L2746.82 367.893L2762.15 358.405L2750.24 372.002L2767.38 368.171L2752.21 376.961L2769.72 378.577Z" fill="white"/>
<path d="M2295.73 361.569L2283.24 364.263L2294.42 369.404L2282.27 368.013L2291.88 376.386L2280.18 371.281L2287.28 382.631L2277.17 373.744L2279.99 386.121L2273.54 375.162L2273.29 388.428L2269.64 375.397L2264.6 387.046L2265.86 374.426L2256.28 385.582L2262.57 372.343L2251.58 378.819L2260.08 369.355L2247.39 372.857L2258.64 365.749L2245.92 364.575L2258.4 361.883L2245.67 357.181L2259.38 358.13L2249.76 349.757L2261.47 354.865L2254.9 344.86L2264.48 352.4L2261.65 340.026L2268.11 350.981L2269.65 338.282L2272.01 350.746L2277.05 339.097L2275.79 351.718L2284.21 342.187L2279.08 353.801L2290.23 346.903L2281.57 356.789L2294.03 354.003L2283 360.394L2295.73 361.569Z" fill="white"/>
<path d="M1795.94 347.861L1785.75 350.06L1794.87 354.256L1784.95 353.121L1792.8 359.955L1783.24 355.788L1789.04 365.051L1780.79 357.799L1783.09 367.9L1777.82 358.956L1777.63 369.782L1774.65 359.148L1770.53 368.655L1771.56 358.355L1763.74 367.46L1768.87 356.655L1759.91 361.94L1766.84 354.216L1756.49 357.074L1765.67 351.273L1755.28 350.314L1765.47 348.118L1755.08 344.28L1766.27 345.055L1758.42 338.221L1767.98 342.39L1762.61 334.224L1770.43 340.378L1768.13 330.279L1773.39 339.22L1774.65 328.856L1776.58 339.028L1780.69 329.521L1779.66 339.821L1786.53 332.043L1782.35 341.521L1791.45 335.892L1784.38 343.96L1794.55 341.687L1785.55 346.903L1795.94 347.861Z" fill="white"/>
<path d="M1285 335.99L1277.01 337.714L1284.17 341.003L1276.39 340.113L1282.54 345.471L1275.05 342.204L1279.59 349.467L1273.13 343.781L1274.93 351.701L1270.8 344.688L1270.65 353.177L1268.31 344.838L1265.08 352.293L1265.89 344.217L1259.76 351.356L1263.78 342.884L1256.76 347.028L1262.19 340.971L1254.07 343.213L1261.27 338.664L1253.13 337.913L1261.12 336.191L1252.97 333.182L1261.74 333.789L1255.59 328.431L1263.08 331.7L1258.87 325.297L1265.01 330.122L1263.2 322.204L1267.33 329.214L1268.31 321.088L1269.82 329.064L1273.05 321.61L1272.24 329.686L1277.63 323.587L1274.35 331.019L1281.49 326.605L1275.94 332.931L1283.92 331.148L1276.86 335.238L1285 335.99Z" fill="white"/>
<path d="M8686.88 309.505L8726.03 297.046L8599 274.923L8728.01 284.729L8694.66 260.84L8733.71 273.615L8640.51 171.449L8742.58 264.8L8729.75 225.999L8753.78 259.142L8734.37 100.042L8766.18 257.196L8778.75 218.319L8778.58 259.152L8845.53 73.0019L8789.76 264.819L8822.95 240.701L8798.64 273.634L8939 196.109L8804.34 284.748L8931.25 271.038L8806.29 297.065L8845.44 309.553L8804.33 309.391L8933.95 401.171L8798.62 320.495L8822.91 353.457L8789.74 329.32L8846.82 498.608L8778.56 334.978L8778.69 375.81L8766.15 336.924L8722.6 526.002L8753.75 334.968L8729.7 368.092L8742.56 329.301L8620.82 436.096L8733.69 320.486L8694.64 333.232L8727.99 309.372L8686.88 309.505Z" fill="#E71D73"/>
<path d="M9145.3 324.972L9174.08 295.644L9051.46 335.516L9170.06 283.835L9129.41 278.322L9169.9 271.346L9039.74 224.644L9173.62 259.404L9144.13 231.112L9180.87 249.165L9089.3 117.623L9190.92 241.644L9183.85 201.403L9202.8 237.572L9180.87 74L9215.33 237.351L9233.38 200.51L9227.3 240.987L9315.09 106.809L9237.54 248.144L9343.29 176.661L9245.03 258.116L9285.47 250.842L9249.06 269.929L9406.56 290.414L9249.21 282.414L9286.09 300.187L9245.49 294.369L9375.13 417.289L9238.25 304.599L9257.47 340.626L9228.19 312.124L9278.15 499.61L9216.32 316.196L9210.56 356.721L9203.78 316.422L9146.13 467.762L9191.81 312.782L9163.26 342.313L9181.57 305.624L9145.3 324.972Z" fill="#E71D73"/>
<path d="M9699.44 353.496L9709.23 313.592L9624.09 410.437L9699.75 305.484L9661.97 321.478L9693.24 294.824L9557.46 321.051L9690.35 282.656L9650.55 273.363L9691.36 270.15L9545.5 203.72L9696.17 258.555L9669.56 227.552L9704.3 248.996L9580.4 94.7781L9714.97 242.413L9711.7 201.518L9727.12 239.432L9734.19 79.242L9739.58 240.366L9794.08 124.939L9751.11 245.123L9782.18 218.239L9760.6 253.228L9906.51 190.51L9767.1 263.891L9807.89 260.363L9769.99 276.073L9944.2 315.668L9768.99 288.562L9803.9 309.746L9764.18 300.165L9902.78 435.94L9756.04 309.724L9771.76 347.518L9745.37 316.315L9772.98 475.891L9733.22 319.288L9723.73 359.253L9720.76 318.354L9699.44 353.496Z" fill="#E71D73"/>
<path d="M10224.3 399.106L10221.8 358.099L10169.5 475.958L10210.3 353.194L10179 379.745L10200.9 344.967L10079.2 410.566L10194.5 334.218L10153.8 337.242L10191.7 321.981L10044.1 304.137L10192.9 309.479L10158.2 287.844L10197.8 297.925L10044.1 189.5L10206 288.456L10190.6 250.406L10216.7 281.979L10175.6 126.997L10228.9 279.149L10246.4 152.712L10241.3 280.244L10262.9 245.304L10252.8 285.142L10373.3 181.689L10262.1 293.377L10300 277.822L10268.5 304.137L10446.6 289.868L10271.3 316.356L10311 326.141L10270.2 328.866L10443 417.022L10265.3 340.42L10291.6 371.791L10257.1 349.899L10331.1 493.932L10246.4 356.366L10249.2 397.341L10234.2 359.196L10224.3 399.106Z" fill="#E71D73"/>
<path d="M10740.4 427.406L10729.1 387.907L10703.3 514.245L10716.9 385.577L10692 418.219L10705.9 379.558L10601.1 469.75L10697.4 370.432L10658.2 382.13L10692 359.074L10544 373.327L10690.4 346.622L10651.9 332.928L10692.8 334.284L10544 268.912L10698.7 323.274L10675.6 289.401L10707.8 314.65L10634.4 172.101L10719.1 309.276L10709.1 182.025L10731.5 307.68L10745.1 268.915L10743.7 310L10839.2 183.1L10754.7 316.029L10788.3 292.711L10763.2 325.165L10934.1 273.018L10768.5 336.504L10809.4 337.556L10770.1 348.965L10957.9 397.98L10767.8 361.303L10800.2 386.301L10761.8 372.323L10865 497.116L10752.8 380.937L10764.4 420.339L10741.5 386.311L10740.4 427.406Z" fill="#E71D73"/>
<path d="M11825 414.687L11784.9 405.647L11883.3 488.946L11777 415.277L11793.7 452.746L11766.4 421.986L11795.2 557.247L11754.3 425.107L11745.8 465.07L11741.8 424.328L11683.2 561.028L11730.1 419.74L11699.6 446.93L11720.4 411.784L11591.6 510.887L11713.6 401.244L11672.8 405.278L11710.4 389.147L11550.1 385.093L11711.1 376.676L11594.7 324.36L11715.7 365.062L11688.2 334.5L11723.6 355.419L11658.1 210.708L11734.1 348.723L11729.8 308.006L11746.2 345.598L11782.6 170.675L11758.7 346.368L11779.3 311.068L11770.4 350.961L11903.6 209.827L11780.1 358.916L11817.6 342.49L11786.9 369.462L11946 338.852L11790.1 381.553L11830.3 390.293L11789.4 394.024L11825 414.687Z" fill="#E71D73"/>
<path d="M8180.58 297.67L8222.71 288.579L8114.47 260.811L8226 275.925L8193.56 247.668L8233.06 264.897L8157.82 171.029L8243.21 256.585L8233.68 214.818L8255.47 251.8L8247.65 112.312L8268.62 251.007L8285.63 211.698L8281.37 254.286L8357.56 94.033L8292.49 261.316L8329.55 239.464L8300.88 271.401L8421.97 218.886L8305.73 283.567L8424.36 283.206L8306.54 296.614L8346.18 313.553L8303.26 309.279L8397.06 395.317L8296.19 320.296L8318.27 357.114L8286.03 328.617L8320.43 482.418L8273.79 333.404L8269.86 376.023L8260.63 334.195L8206.49 499.267L8247.88 330.916L8219.46 363.077L8236.76 323.886L8128.68 402.306L8228.37 313.802L8186.31 323.202L8223.53 301.636L8180.58 297.67Z" fill="#E71D73"/>
<path d="M7627.46 286.877L7668.33 273.17L7579.19 258.986L7670.19 260.229L7634.81 235.744L7675.99 248.487L7600.19 181.818L7685.15 239.101L7671.05 198.648L7696.81 232.986L7676.74 117.542L7709.78 230.741L7722.33 189.789L7722.82 232.586L7774.19 98.0426L7734.64 238.34L7769.06 212.514L7744.11 247.432L7830.69 189.789L7750.27 258.986L7842.69 248.487L7752.53 271.862L7793.8 284.303L7750.67 284.813L7819.19 335.542L7744.86 296.546L7770.89 330.69L7735.69 305.942L7770.89 416.542L7724.06 312.056L7724.87 354.849L7711.07 314.301L7685.15 443.042L7698.03 312.457L7673.35 347.57L7686.2 306.703L7611.69 375.042L7676.74 297.611L7635.99 311.615L7670.58 286.056L7627.46 286.877Z" fill="#E71D73"/>
<path d="M7129.12 312.652L7162.35 285.204L7092.15 296.425L7159.45 272.454L7117.65 262.283L7160.65 259.414L7085.15 227.778L7165.84 247.367L7138.18 214.66L7174.53 237.48L7129.12 157.087L7185.84 230.732L7182.87 188.004L7198.67 227.778L7204.17 118.088L7211.77 228.911L7234.64 192.462L7223.87 234.005L7278.72 171.086L7233.77 242.581L7298.15 214.661L7240.49 253.793L7283.47 250.609L7243.4 266.548L7303.15 279.583L7242.18 279.583L7278.72 302.127L7236.99 291.643L7290.15 358.587L7228.32 301.522L7244.42 341.178L7217 308.274L7228.32 409.087L7204.17 311.228L7193.72 352.856L7191.06 310.099L7154.15 382.587L7178.97 305.002L7145.95 332.687L7169.08 296.425L7129.12 312.652Z" fill="#E71D73"/>
<path d="M6647.96 386.532L6667.89 348.308L6617.79 377.823L6660.26 337.693L6617.79 344.603L6656.28 325.214L6595.49 318.585L6656.37 312.098L6618.15 292.744L6660.53 299.608L6606.99 254.823L6668.31 288.989L6648.94 250.791L6678.99 281.271L6656.37 197.886L6691.49 277.214L6698.36 234.737L6704.62 277.196L6735.01 212.324L6717.07 281.242L6758.49 238.324L6727.63 288.953L6765.98 269.281L6735.27 299.568L6776.89 292.744L6739.23 312.046L6781.66 318.585L6739.14 325.177L6793.99 355.996L6735.01 337.652L6765.28 367.907L6727.21 348.278L6758.49 408.823L6716.54 355.996L6723.12 398.407L6704.02 360.061L6694.99 423.323L6690.91 360.071L6671.27 398.43L6678.45 356.025L6647.96 386.532Z" fill="#E71D73"/>
<path d="M9824.41 289.05L9849.36 256.383L9723.06 318.661L9843.93 245.174L9802.9 244.773L9842.23 232.81L9702.09 209.28L9844.45 220.505L9811.71 196.126L9850.39 209.448L9772.33 90.1759L9859.44 200.739L9847.47 161.718L9870.72 195.221L9851.68 71.5189L9883.13 193.44L9896.52 154.66L9895.46 195.553L9978.91 112.21L9906.5 201.374L9940.12 177.669L9915.16 210.328L10008.4 190.453L9920.61 221.539L9961.63 221.946L9922.3 233.901L10018.6 264.715L9920.07 246.22L9952.82 270.585L9914.15 257.265L9990.99 350.904L9905.09 265.981L9917.06 305.001L9893.81 271.498L9893.08 312.4L9881.39 273.285L9854.88 392.853L9869.07 271.166L9844.36 304.008L9858.03 265.345L9824.41 289.05Z" fill="white"/>
<path d="M10324.4 300.261L10338.4 261.63L10236.5 358.805L10329.9 252.558L10290.6 264.433L10324.6 241.266L10183.8 260.686L10323 228.859L10284.5 215.378L10325.4 216.533L10215.2 126.036L10331.4 205.518L10308.3 171.856L10340.5 196.88L10285.4 84.5194L10351.8 191.472L10353 150.465L10364.2 189.804L10419 85.3347L10376.5 192.061L10401.5 159.394L10387.4 198.019L10470.5 151.182L10396 207.088L10435.2 195.221L10401.3 218.383L10502.4 219L10402.8 230.803L10441.4 244.27L10400.5 243.114L10501.8 309.513L10394.5 254.137L10417.5 287.798L10385.3 262.774L10396.9 302.026L10374 268.19L10384.4 390.218L10361.6 269.85L10347.9 308.573L10349.4 267.594L10324.4 300.261Z" fill="white"/>
<path d="M10816.9 309.401L10822.3 268.655L10743.6 385.437L10812 261.627L10776.2 281.651L10804.4 251.738L10671.1 300.91L10800.2 239.953L10759.7 235.055L10799.9 227.408L10672.9 162.65L10803.4 215.354L10773.7 187.429L10810.5 204.962L10732.5 107.048L10820.4 197.253L10812.7 156.946L10832.1 192.963L10863.2 79.1834L10844.6 192.533L10862 155.263L10856.6 196.006L10927.7 132.435L10866.9 203.029L10902.7 183.014L10874.5 212.923L10973.4 191.822L10878.7 224.72L10919.2 229.605L10879 237.248L10992.2 280.362L10875.5 249.31L10905.2 277.235L10868.4 259.703L10888.1 295.568L10858.5 267.42L10894.9 384.369L10846.8 271.702L10841.6 312.475L10834.3 272.131L10816.9 309.401Z" fill="white"/>
<path d="M11401.7 388.882L11407.6 423.099L11391.7 392.238L11390 388.854L11389.8 392.655L11385 514.834L11379.3 392.745L11377.4 392.352L11362.2 423.47L11367.4 389.15L11367.9 385.594L11365.6 388.364L11268.9 505.151L11357 382.273L11355.7 380.806L11325.2 396.937L11349.5 372.254L11352.1 369.554L11348.5 370.592L11196.2 413.998L11345.1 360.553L11344.9 358.623L11310.8 353.589L11344.8 348.009L11347.9 347.507L11345.1 346.127L11314.1 330.72L11348.2 336.01L11348.9 334.176L11185.3 230.928L11355.1 325.643L11358.1 327.275L11356.5 324.306L11340.4 293.559L11364.9 317.992L11367.3 320.367L11366.6 317.076L11340.4 193.685L11376.5 313.592L11377.6 317.089L11378.5 313.543L11393.1 254.372L11389 313.128L11390.9 313.635L11406.1 282.528L11400.9 316.848L11400.5 319.599L11402.6 317.741L11489.4 239.85L11411.4 323.634L11412.6 325.2L11443.1 309.066L11418.9 333.733L11416.7 335.943L11419.8 335.419L11511.2 319.729L11423.3 345.425L11423.4 347.374L11457.6 352.408L11423.5 357.988L11423.6 359.972L11524.5 367.578L11419.9 369.985L11417.6 370.04L11419.3 371.699L11444 395.962L11413.2 380.336L11411.9 381.822L11477.5 470.63L11403.4 388.045L11401.1 385.463L11401.7 388.882Z" fill="black" stroke="white" stroke-width="2"/>
<path d="M11291.5 436.95L11259.8 410.775L11309.9 529.56L11248.4 415.783L11246.3 456.756L11235.9 417.008L11200.5 550.675L11223.7 414.32L11198 446.111L11212.9 407.966L11098.9 503.443L11204.5 398.594L11165 409.07L11199.5 387.109L11053.5 414.32L11198.2 374.641L11159.9 359.794L11200.8 362.401L11059.6 286.356L11207 351.592L11126.8 252.312L11216.3 343.281L11205.7 303.608L11227.8 338.259L11234.8 179.591L11240.2 337.048L11254.8 298.785L11252.4 339.739L11363.9 200.099L11263.2 346.077L11297.5 323.86L11271.6 355.457L11454.1 289.712L11276.7 366.942L11317.5 369.228L11278 379.417L11433.7 423.966L11275.3 391.65L11307.2 417.582L11269.1 402.459L11291.5 436.95Z" fill="#E71D73"/>
<path d="M11314.8 299.198L11296 262.646L11298.1 403.459L11283.5 262.753L11265.6 299.637L11271.6 258.982L11190.3 375.489L11261.5 251.697L11225.4 270.822L11254 241.591L11112.8 260.957L11250 229.682L11209.6 223.759L11249.9 217.122L11130 181.269L11253.6 205.147L11224.3 176.424L11260.8 194.913L11221.3 83.7882L11270.8 187.438L11263.8 146.903L11282.6 183.457L11304.6 90.6761L11295.1 183.339L11313 146.464L11306.9 187.121L11376.1 113.301L11317.1 194.414L11353.2 175.281L11324.6 204.501L11442.1 175.243L11328.5 216.42L11368.9 222.343L11328.7 228.98L11365.3 247.183L11325 240.964L11421.6 316.195L11317.8 251.188L11336.8 287.589L11307.8 258.664L11314.8 299.198Z" fill="white"/>
<path d="M11783.5 281.259L11750.2 257.149L11815.7 381.824L11739.2 262.873L11739.8 303.89L11726.9 264.885L11706.9 405.582L11714.5 262.978L11691 296.335L11703.3 257.324L11586.1 338.412L11694.4 248.502L11655.7 261.465L11688.6 237.363L11565.4 259.561L11686.5 225.002L11647.4 212.614L11688.3 212.621L11602.8 131.334L11693.8 201.436L11669.2 168.437L11702.5 192.552L11680.3 99.8206L11713.6 186.815L11713 145.805L11725.9 184.816L11754.3 87.7137L11738.3 186.725L11761.8 153.366L11749.5 192.363L11841.1 113.15L11758.4 201.193L11797.1 188.23L11764.2 212.333L11805.1 212.019L11766.3 224.701L11886.5 248.147L11764.5 237.074L11798 260.93L11759 248.259L11783.5 281.259Z" fill="white"/>
<path d="M6164.02 460.852L6166.43 417.814L6131.6 457.882L6155.11 411.285L6119.25 435.073L6146.35 401.55L6098.23 420.496L6141.03 389.562L6098.23 387.667L6139.67 376.47L6085.6 360.382L6142.39 363.586L6109 336.758L6148.93 352.157L6109 301.772L6158.66 343.309L6147.43 301.772L6170.61 337.888L6170.61 280.277L6183.63 336.445L6196.42 297.382L6196.42 339.124L6223.27 305.401L6207.76 345.647L6242.87 322.289L6216.51 355.387L6257.86 343.871L6221.84 367.389L6273.6 367.389L6223.2 380.462L6263.25 395.562L6220.48 393.355L6263.25 427.884L6213.93 404.784L6237.4 440.718L6204.2 413.641L6216.51 462.096L6192.25 419.053L6190.16 462.096L6179.24 420.496L6164.02 460.852Z" fill="#E71D73"/>
<path d="M5699.58 490.751L5687.88 449.265L5675.04 490.751L5675.04 446.772L5648.87 480.921L5663.59 440.413L5624.31 466.163L5654.67 430.804L5613.58 442.922L5649.12 418.866L5609.81 418.866L5647.51 405.796L5613.58 392.86L5649.99 392.86L5618.81 367.584L5656.31 381.332L5632.19 345.701L5665.85 372.32L5649.99 330.165L5677.69 366.726L5677.1 325.625L5690.66 365.101L5705.09 324.482L5703.51 367.584L5729.12 334.083L5714.94 373.953L5750.31 349.62L5723.88 383.571L5765.81 370.163L5729.42 395.49L5772.21 396.755L5731.04 408.57L5774.81 424.663L5728.56 421.505L5762.43 447.861L5722.24 433.044L5749.63 474.868L5712.7 442.046L5724.71 483.432L5700.86 447.64L5699.58 490.751Z" fill="#E71D73"/>
<path d="M5234.6 468.703L5220.36 433.773L5213.26 471.104L5208.96 432.862L5189.54 465.118L5198.38 428.452L5166.74 454.688L5189.68 420.971L5155.13 435.529L5183.69 411.132L5149.51 414.979L5181.01 399.925L5150.23 391.997L5181.9 388.434L5152.31 369.505L5186.27 377.791L5161.8 349.168L5193.68 369.021L5175.76 333.917L5203.43 362.998L5198.89 327.316L5214.55 360.315L5223.12 323.583L5225.96 361.217L5244.95 329.58L5236.53 365.636L5264.9 341.017L5245.24 373.126L5280.39 357.364L5251.23 382.947L5288.55 379.861L5253.91 394.163L5293.55 403.874L5253.02 405.654L5285.06 425.258L5248.65 416.306L5276.56 449.995L5241.24 425.067L5255.73 459.88L5231.49 431.09L5234.6 468.703Z" fill="#E71D73"/>
<path d="M4793.9 454.109L4773.22 425.241L4774.89 460.978L4762.58 426.902L4751.85 460.687L4751.93 425.179L4728.7 456.125L4742.32 420.233L4713.87 441.123L4734.68 412.534L4704.23 423.537L4729.78 402.859L4699.86 402.334L4728.08 392.143L4696.85 381.284L4729.75 381.441L4701.08 360.585L4734.62 371.789L4710.53 343.566L4742.23 364.14L4730.26 332.462L4751.82 359.251L4751.63 323.741L4762.47 357.58L4772.94 324.454L4773.11 359.313L4793.7 330.562L4782.73 364.264L4811.46 342.14L4790.36 371.947L4823.86 360.954L4795.27 381.631L4833.69 381.848L4796.97 392.346L4830.59 403.287L4795.3 403.056L4828.23 427.797L4790.43 412.701L4811.32 441.407L4782.82 420.349L4793.9 454.109Z" fill="#E71D73"/>
<path d="M4323.61 442.511L4300.71 422.447L4309.07 451.953L4292.15 425.909L4289.79 456.202L4282.93 426.548L4269.57 456.91L4273.94 424.293L4254.27 447.278L4266.07 419.356L4242.79 434.481L4260.09 412.236L4235.01 417.633L4256.58 403.623L4228.39 400.65L4255.88 394.364L4227.89 382.546L4258.07 385.357L4232.45 366.497L4262.93 377.489L4246.76 353.379L4269.98 371.536L4262.9 341.931L4278.54 368.064L4280.82 338.372L4287.77 367.436L4299.35 339.419L4296.76 369.692L4316.43 345.62L4304.63 374.618L4330.45 358.907L4310.61 381.743L4342.73 374.431L4314.13 390.356L4344.32 392.931L4314.82 399.622L4347.13 413.852L4312.63 408.623L4335.67 428.511L4307.78 416.491L4323.61 442.511Z" fill="#E71D73"/>
<path d="M3855.35 404.981L3829.05 392.093L3844.22 417.401L3821.96 397.459L3827.38 426.192L3813.56 400.37L3808.78 431.928L3804.64 400.533L3792.14 426.824L3796.09 397.924L3778.26 417.821L3788.74 392.814L3766.81 404.125L3783.32 385.695L3756.39 390.013L3780.35 377.268L3751.38 373.321L3780.11 368.353L3751.59 357.267L3782.65 359.823L3761.58 341.488L3787.71 352.522L3773.7 326.8L3794.79 347.146L3789.45 318.992L3803.2 344.245L3806.92 315.312L3812.12 344.082L3824.35 316.781L3820.67 346.682L3840.71 325.602L3828.02 351.797L3856.01 336.937L3833.44 358.915L3862.14 353.722L3836.42 367.347L3870 372.45L3836.65 376.258L3863.04 388.946L3834.11 384.787L3855.35 404.981Z" fill="#E71D73"/>
<path d="M3354.31 375.797L3330.45 372.696L3348.92 388.389L3326.35 378.735L3338.13 399.663L3320.58 383.213L3325.17 409.023L3313.68 385.685L3310.88 409.43L3306.34 385.908L3297.71 406.08L3299.28 383.866L3285.19 398.44L3293.19 379.755L3273.37 390.204L3288.66 373.981L3265.08 378.537L3286.13 367.106L3261.02 365.992L3285.86 359.803L3264.64 351.085L3287.87 352.79L3270.2 336.468L3291.97 346.744L3280.4 326.246L3297.74 342.273L3293.02 318.783L3304.64 339.798L3306.97 315.339L3311.98 339.571L3322.02 317.896L3319.04 341.615L3336.91 322.685L3325.13 345.725L3346.1 334.13L3329.67 351.503L3357.14 346.631L3332.19 358.375L3356.07 361.298L3332.46 365.678L3354.31 375.797Z" fill="#E71D73"/>
<path d="M2836.9 326.306L2821.09 335.782L2839.65 336.432L2821.5 341.358L2838.52 348.335L2820.16 346.794L2835.18 360.12L2817.19 351.555L2826.79 367.154L2812.89 355.178L2817.29 371.401L2807.67 357.307L2806.13 372.76L2802.06 357.734L2795.12 373.43L2796.59 356.416L2784.59 370.361L2791.8 353.488L2776.18 364.755L2788.17 349.229L2771.28 354.078L2786.05 344.058L2767.67 342.652L2785.63 338.48L2768.94 331.662L2786.98 333.047L2772.98 321.177L2789.95 328.281L2779.72 312.48L2794.25 324.659L2789.98 306.863L2799.46 322.529L2801.2 302.662L2805.08 322.102L2812.16 305.173L2810.55 323.419L2824.74 307.433L2815.33 326.348L2831.06 316.758L2818.97 330.607L2836.9 326.306Z" fill="#E71D73"/>
<path d="M2311.65 305.869L2300.82 312.361L2313.53 312.806L2301.1 316.18L2312.76 320.96L2300.18 319.904L2310.47 329.033L2298.15 323.165L2304.72 333.851L2295.2 325.648L2298.21 336.761L2291.62 327.106L2290.57 337.692L2287.78 327.399L2283.02 338.151L2284.03 326.496L2275.81 336.049L2280.75 324.49L2270.05 332.208L2278.26 321.572L2266.69 324.894L2276.81 318.03L2264.22 317.067L2276.53 314.209L2265.09 309.538L2277.45 310.487L2267.86 302.356L2279.48 307.222L2272.48 296.398L2282.43 304.741L2279.5 292.55L2286 303.282L2287.19 289.673L2289.85 302.99L2294.7 291.392L2293.59 303.892L2303.32 292.941L2296.87 305.898L2307.65 299.329L2299.36 308.816L2311.65 305.869Z" fill="#E71D73"/>
<path d="M1784.26 317.268L1775.81 322.329L1785.72 322.676L1776.03 325.306L1785.12 329.032L1775.32 328.209L1783.34 335.326L1773.73 330.752L1778.86 339.082L1771.43 332.687L1773.78 341.35L1768.65 333.824L1767.83 342.076L1765.65 334.052L1761.95 342.434L1762.73 333.348L1756.32 340.795L1760.18 331.785L1751.83 337.801L1758.23 329.51L1749.21 332.099L1757.1 326.749L1747.29 325.998L1756.88 323.77L1747.97 320.129L1757.6 320.868L1750.12 314.529L1759.18 318.323L1753.72 309.885L1761.48 316.389L1759.2 306.886L1764.27 315.252L1765.19 304.642L1767.26 315.024L1771.05 305.983L1770.19 315.727L1777.76 307.19L1772.74 317.291L1781.14 312.17L1774.68 319.566L1784.26 317.268Z" fill="#E71D73"/>
<path d="M1257.5 326.957L1250.77 330.987L1258.67 331.264L1250.95 333.359L1258.19 336.326L1250.38 335.671L1256.77 341.339L1249.12 337.696L1253.2 344.33L1247.28 339.237L1249.16 346.137L1245.07 340.142L1244.41 346.715L1242.68 340.324L1239.73 347L1240.35 339.763L1235.25 345.695L1238.32 338.518L1231.68 343.31L1236.77 336.706L1229.59 338.769L1235.87 334.507L1228.05 333.909L1235.69 332.135L1228.59 329.235L1236.27 329.824L1230.31 324.775L1237.53 327.797L1233.18 321.076L1239.36 326.256L1237.54 318.687L1241.58 325.351L1242.32 316.901L1243.96 325.169L1246.98 317.968L1246.29 325.729L1252.33 318.93L1248.33 326.975L1255.02 322.896L1249.87 328.786L1257.5 326.957Z" fill="#E71D73"/>
<path d="M763.498 330.957L756.774 334.987L764.667 335.264L756.948 337.359L764.189 340.326L756.377 339.671L762.768 345.339L755.116 341.696L759.2 348.33L753.285 343.237L755.157 350.137L751.068 344.142L750.414 350.715L748.679 344.324L745.728 351L746.355 343.763L741.25 349.695L744.319 342.518L737.676 347.31L742.773 340.706L735.588 342.769L741.87 338.507L734.053 337.909L741.694 336.135L734.594 333.235L742.267 333.824L736.312 328.775L743.529 331.797L739.179 325.076L745.357 330.256L743.541 322.687L747.576 329.351L748.316 320.901L749.964 329.169L752.977 321.968L752.291 329.729L758.327 322.93L754.325 330.975L761.017 326.896L755.871 332.786L763.498 330.957Z" fill="#E71D73"/>
<path d="M266.498 339.957L259.774 343.987L267.667 344.264L259.948 346.359L267.189 349.326L259.377 348.671L265.768 354.339L258.116 350.696L262.2 357.33L256.285 352.237L258.157 359.137L254.068 353.142L253.414 359.715L251.679 353.324L248.728 360L249.355 352.763L244.25 358.695L247.319 351.518L240.676 356.31L245.773 349.706L238.588 351.769L244.87 347.507L237.053 346.909L244.694 345.135L237.594 342.235L245.267 342.824L239.312 337.775L246.529 340.797L242.179 334.076L248.357 339.256L246.541 331.687L250.576 338.351L251.316 329.901L252.964 338.169L255.977 330.968L255.291 338.729L261.327 331.93L257.325 339.975L264.017 335.896L258.871 341.786L266.498 339.957Z" fill="#E71D73"/>
<path d="M1 324V333.5" stroke="black" stroke-width="0.2"/>
</svg>
