<svg width="1302" height="1236" viewBox="0 0 1302 1236" fill="none" xmlns="http://www.w3.org/2000/svg">
<g clip-path="url(#clip0)">
<path d="M1058.54 0.2368L341.437 0.236816C332.14 0.236816 324.611 7.76583 324.611 17.0629L324.611 131.81L1075.36 131.81L1075.36 17.0629C1075.36 7.76582 1067.83 0.2368 1058.54 0.2368ZM593.033 98.335C572.892 98.335 556.567 82.0099 556.567 61.8539C556.567 41.7127 572.892 25.3876 593.033 25.3876C613.175 25.3876 629.514 41.7127 629.514 61.8539C629.5 82.0099 613.175 98.335 593.033 98.335ZM788.994 89.5094C777.693 89.5094 768.543 80.3449 768.543 69.0588C768.543 57.7726 777.708 48.6082 788.994 48.6082C800.295 48.6082 809.445 57.7726 809.445 69.0588C809.445 80.3449 800.295 89.5094 788.994 89.5094Z" fill="white"/>
</g>
<path d="M823.813 486.753C814.261 486.753 806.509 481.262 806.509 474.475L806.509 276.339C806.509 270.88 812.74 266.458 820.434 266.458L827.163 266.458C834.857 266.458 841.088 270.88 841.088 276.339L841.088 474.485C841.117 481.262 833.379 486.753 823.813 486.753Z" fill="white"/>
<path d="M824.515 193C814.847 193 807 190.981 807 188.486L807 115.633C807 113.626 813.307 112 821.095 112L827.905 112C835.693 112 842 113.626 842 115.633L842 188.489C842.03 190.981 834.197 193 824.515 193Z" fill="white"/>
<path d="M1058.01 226C1048.62 226 1041 221.938 1041 216.915L1041 70.3107C1041 66.2714 1047.13 63 1054.69 63L1061.31 63C1068.87 63 1075 66.2714 1075 70.3107L1075 216.923C1075.03 221.938 1067.42 226 1058.01 226Z" fill="white"/>
<path d="M1301.38 266.824C1301.38 278.871 1291.62 288.649 1279.55 288.649L1111.17 288.649C1101.46 288.649 1093.6 280.79 1093.6 271.086L1093.6 262.599C1093.6 252.895 1101.46 245.036 1111.17 245.036L1279.55 245.036C1291.62 245.017 1301.38 254.777 1301.38 266.824Z" fill="white"/>
<path d="M1239.34 435.264C1251.39 435.264 1261.16 445.025 1261.16 457.093L1261.16 493.187C1261.16 517.286 1241.63 536.827 1217.53 536.827L1217.53 457.093C1217.53 445.025 1227.29 435.264 1239.34 435.264Z" fill="white"/>
<path d="M438.691 708.956C447.21 717.475 447.222 731.292 438.688 739.825L413.166 765.347C396.126 782.388 368.493 782.39 351.455 765.353L407.836 708.972C416.369 700.439 430.173 700.438 438.691 708.956Z" fill="white"/>
<path d="M1111.47 763.108C1102.95 754.589 1102.94 740.773 1111.47 732.239L1137 706.717C1154.04 689.677 1181.67 689.674 1198.71 706.712L1142.33 763.092C1133.79 771.625 1119.99 771.627 1111.47 763.108Z" fill="white"/>
<path d="M342.714 274.078C352.266 274.078 360.019 268.817 360.019 262.313L360.019 72.4446C360.019 67.2133 353.787 62.9766 346.093 62.9766L339.365 62.9766C331.671 62.9766 325.439 67.2133 325.439 72.4446L325.439 262.323C325.41 268.817 333.148 274.078 342.714 274.078Z" fill="white"/>
<path d="M99.5136 314.88C99.5136 326.927 109.275 336.706 121.343 336.706L289.724 336.706C299.43 336.706 307.291 328.846 307.291 319.142L307.291 310.655C307.291 300.951 299.43 293.092 289.724 293.092L121.343 293.092C109.275 293.073 99.5136 302.833 99.5136 314.88Z" fill="white"/>
<path d="M467.737 1150.85C478.317 1150.85 486.904 1142.28 486.904 1131.68L486.904 947.305C486.904 938.781 480.002 931.877 471.479 931.877L464.026 931.877C455.504 931.877 448.601 938.781 448.601 947.305L448.601 1131.69C448.585 1142.28 457.156 1150.85 467.737 1150.85Z" fill="white"/>
<path d="M468.763 643.023C479.343 643.023 487.931 637.325 487.931 630.28L487.931 507.73C487.931 502.064 481.028 497.475 472.506 497.475L465.053 497.475C456.53 497.475 449.628 502.064 449.628 507.73L449.628 630.291C449.611 637.325 458.183 643.023 468.763 643.023Z" fill="white"/>
<path d="M590.342 1184.56C590.342 1173.97 581.771 1165.39 571.174 1165.39L516.604 1165.39C508.081 1165.39 501.179 1172.29 501.179 1180.81L501.179 1188.27C501.179 1196.79 508.081 1203.7 516.604 1203.7L571.174 1203.7C581.771 1203.71 590.342 1195.14 590.342 1184.56Z" fill="white"/>
<path d="M434.311 898.169C434.311 887.587 425.739 878.998 415.143 878.998L322.14 878.998C313.617 878.998 306.715 885.902 306.715 894.426L306.715 901.881C306.715 910.405 313.617 917.308 322.14 917.308L415.143 917.308C425.723 917.341 434.311 908.752 434.311 898.169Z" fill="white"/>
<path d="M19.2167 1146.41C8.63641 1146.41 0.0490198 1154.98 0.0490209 1165.58L0.0490243 1197.28C0.0490265 1218.44 17.2076 1235.6 38.3682 1235.6L38.3681 1165.58C38.3843 1155 29.797 1146.41 19.2167 1146.41Z" fill="white"/>
<path d="M623.785 1146.15C634.365 1146.15 642.952 1137.58 642.952 1126.98L642.952 792.07C642.952 783.546 636.05 776.642 627.527 776.642L620.074 776.642C611.552 776.642 604.649 783.546 604.649 792.07L604.649 1126.99C604.633 1137.58 613.204 1146.15 623.785 1146.15Z" fill="white"/>
<path d="M631.666 930.231L675.396 978.783" stroke="white" stroke-width="1.7449" stroke-miterlimit="10" stroke-linecap="round" stroke-linejoin="round"/>
<path d="M631.666 950.066L675.396 998.619" stroke="white" stroke-width="1.7449" stroke-miterlimit="10" stroke-linecap="round" stroke-linejoin="round"/>
<path d="M631.666 969.903L675.396 1018.46" stroke="white" stroke-width="1.7449" stroke-miterlimit="10" stroke-linecap="round" stroke-linejoin="round"/>
<path d="M631.665 797.684L675.396 846.237" stroke="white" stroke-width="1.7449" stroke-miterlimit="10" stroke-linecap="round" stroke-linejoin="round"/>
<path d="M631.666 817.52L675.396 866.089" stroke="white" stroke-width="1.7449" stroke-miterlimit="10" stroke-linecap="round" stroke-linejoin="round"/>
<path d="M631.666 837.356L675.396 885.925" stroke="white" stroke-width="1.7449" stroke-miterlimit="10" stroke-linecap="round" stroke-linejoin="round"/>
<path d="M631.665 989.739L675.396 1038.29" stroke="white" stroke-width="1.7449" stroke-miterlimit="10" stroke-linecap="round" stroke-linejoin="round"/>
<path d="M631.665 1009.57L675.396 1058.13" stroke="white" stroke-width="1.7449" stroke-miterlimit="10" stroke-linecap="round" stroke-linejoin="round"/>
<path d="M631.666 1029.41L675.396 1077.96" stroke="white" stroke-width="1.7449" stroke-miterlimit="10" stroke-linecap="round" stroke-linejoin="round"/>
<path d="M631.665 1049.25L675.396 1097.81" stroke="white" stroke-width="1.7449" stroke-miterlimit="10" stroke-linecap="round" stroke-linejoin="round"/>
<path d="M631.666 1069.08L675.396 1117.65" stroke="white" stroke-width="1.7449" stroke-miterlimit="10" stroke-linecap="round" stroke-linejoin="round"/>
<path d="M631.666 1088.93L675.396 1137.49" stroke="white" stroke-width="1.7449" stroke-miterlimit="10" stroke-linecap="round" stroke-linejoin="round"/>
<path d="M1198.34 394.103C1198.34 406.151 1188.58 415.929 1176.51 415.929L1008.13 415.929C998.427 415.929 990.566 408.069 990.566 398.365L990.566 389.878C990.566 380.174 998.427 372.315 1008.13 372.315L1176.51 372.315C1188.58 372.296 1198.34 382.056 1198.34 394.103Z" fill="white"/>
<path d="M973.972 446.393L1022.52 402.662" stroke="white" stroke-width="1.7449" stroke-miterlimit="10" stroke-linecap="round" stroke-linejoin="round"/>
<path d="M993.808 446.393L1042.36 402.662" stroke="white" stroke-width="1.7449" stroke-miterlimit="10" stroke-linecap="round" stroke-linejoin="round"/>
<path d="M1013.64 446.392L1062.2 402.662" stroke="white" stroke-width="1.7449" stroke-miterlimit="10" stroke-linecap="round" stroke-linejoin="round"/>
<path d="M1033.48 446.393L1082.03 402.662" stroke="white" stroke-width="1.7449" stroke-miterlimit="10" stroke-linecap="round" stroke-linejoin="round"/>
<path d="M1053.32 446.393L1101.87 402.662" stroke="white" stroke-width="1.7449" stroke-miterlimit="10" stroke-linecap="round" stroke-linejoin="round"/>
<path d="M1073.15 446.392L1121.7 402.662" stroke="white" stroke-width="1.7449" stroke-miterlimit="10" stroke-linecap="round" stroke-linejoin="round"/>
<path d="M1092.99 446.393L1141.56 402.662" stroke="white" stroke-width="1.7449" stroke-miterlimit="10" stroke-linecap="round" stroke-linejoin="round"/>
<path d="M1112.82 446.393L1161.39 402.662" stroke="white" stroke-width="1.7449" stroke-miterlimit="10" stroke-linecap="round" stroke-linejoin="round"/>
<path d="M1132.67 446.392L1181.23 402.662" stroke="white" stroke-width="1.7449" stroke-miterlimit="10" stroke-linecap="round" stroke-linejoin="round"/>
<path d="M623.784 702.469C634.365 702.469 642.952 693.896 642.952 683.298L642.952 441.622C642.952 433.097 636.05 426.194 627.527 426.194L620.074 426.194C611.552 426.194 604.649 433.097 604.649 441.622L604.649 683.298C604.633 693.88 613.204 702.469 623.784 702.469Z" fill="white"/>
<path d="M594.91 486.998C581.55 486.998 570.72 476.165 570.72 462.803C570.72 449.44 581.55 438.607 594.91 438.607C608.27 438.607 619.101 449.44 619.101 462.803C619.101 476.165 608.27 486.998 594.91 486.998Z" stroke="white" stroke-width="2.5438" stroke-miterlimit="10" stroke-linecap="round" stroke-linejoin="round"/>
<path d="M594.91 520.187C581.55 520.187 570.72 509.355 570.72 495.992C570.72 482.629 581.55 471.797 594.91 471.797C608.27 471.797 619.101 482.629 619.101 495.992C619.101 509.355 608.27 520.187 594.91 520.187Z" stroke="white" stroke-width="2.5438" stroke-miterlimit="10" stroke-linecap="round" stroke-linejoin="round"/>
<path d="M594.911 553.393C581.551 553.393 570.721 542.56 570.721 529.198C570.721 515.835 581.551 505.002 594.911 505.002C608.271 505.002 619.102 515.835 619.102 529.198C619.102 542.56 608.271 553.393 594.911 553.393Z" stroke="white" stroke-width="2.5438" stroke-miterlimit="10" stroke-linecap="round" stroke-linejoin="round"/>
<path d="M594.911 585.155C581.551 585.155 570.721 574.323 570.721 560.96C570.721 547.598 581.551 536.765 594.911 536.765C608.271 536.765 619.102 547.598 619.102 560.96C619.102 574.323 608.271 585.155 594.911 585.155Z" stroke="white" stroke-width="2.5438" stroke-miterlimit="10" stroke-linecap="round" stroke-linejoin="round"/>
<path d="M594.911 618.345C581.551 618.345 570.721 607.512 570.721 594.15C570.721 580.787 581.551 569.955 594.911 569.955C608.271 569.955 619.102 580.787 619.102 594.15C619.102 607.512 608.271 618.345 594.911 618.345Z" stroke="white" stroke-width="2.5438" stroke-miterlimit="10" stroke-linecap="round" stroke-linejoin="round"/>
<path d="M594.911 651.551C581.551 651.551 570.721 640.718 570.721 627.355C570.721 613.993 581.551 603.16 594.911 603.16C608.271 603.16 619.102 613.993 619.102 627.355C619.102 640.718 608.271 651.551 594.911 651.551Z" stroke="white" stroke-width="2.5438" stroke-miterlimit="10" stroke-linecap="round" stroke-linejoin="round"/>
<path d="M594.911 684.74C581.551 684.74 570.721 673.907 570.721 660.545C570.721 647.182 581.551 636.35 594.911 636.35C608.271 636.35 619.102 647.182 619.102 660.545C619.102 673.907 608.271 684.74 594.911 684.74Z" stroke="white" stroke-width="2.5438" stroke-miterlimit="10" stroke-linecap="round" stroke-linejoin="round"/>
<path d="M1059.7 774.342C1051.11 782.936 1034.6 780.375 1022.81 768.586L845.628 591.405C836.146 581.923 834.073 568.637 840.996 561.714L847.05 555.66C853.973 548.738 867.259 550.81 876.741 560.292L1053.92 737.473C1065.74 749.236 1068.31 765.734 1059.7 774.342Z" fill="white"/>
<path d="M917.265 584.991C907.818 594.438 892.5 594.437 883.051 584.988C873.603 575.539 873.601 560.221 883.048 550.774C892.495 541.327 907.813 541.329 917.262 550.777C926.711 560.226 926.712 575.544 917.265 584.991Z" stroke="white" stroke-width="2.5438" stroke-miterlimit="10" stroke-linecap="round" stroke-linejoin="round"/>
<path d="M940.734 608.46C931.287 617.907 915.969 617.905 906.52 608.456C897.071 599.008 897.07 583.689 906.517 574.242C915.964 564.795 931.282 564.797 940.731 574.246C950.179 583.695 950.181 599.013 940.734 608.46Z" stroke="white" stroke-width="2.5438" stroke-miterlimit="10" stroke-linecap="round" stroke-linejoin="round"/>
<path d="M964.214 631.94C954.767 641.387 939.449 641.385 930.001 631.936C920.552 622.487 920.55 607.169 929.997 597.722C939.444 588.275 954.762 588.277 964.211 597.726C973.66 607.175 973.661 622.493 964.214 631.94Z" stroke="white" stroke-width="2.5438" stroke-miterlimit="10" stroke-linecap="round" stroke-linejoin="round"/>
<path d="M986.674 654.399C977.227 663.846 961.909 663.844 952.461 654.395C943.012 644.946 943.01 629.628 952.457 620.181C961.904 610.734 977.222 610.736 986.671 620.185C996.12 629.634 996.121 644.952 986.674 654.399Z" stroke="white" stroke-width="2.5438" stroke-miterlimit="10" stroke-linecap="round" stroke-linejoin="round"/>
<path d="M1010.14 677.867C1000.7 687.314 985.377 687.313 975.928 677.864C966.48 668.415 966.478 653.097 975.925 643.65C985.372 634.203 1000.69 634.205 1010.14 643.653C1019.59 653.102 1019.59 668.42 1010.14 677.867Z" stroke="white" stroke-width="2.5438" stroke-miterlimit="10" stroke-linecap="round" stroke-linejoin="round"/>
<path d="M1033.62 701.347C1024.18 710.794 1008.86 710.793 999.409 701.344C989.96 691.895 989.959 676.577 999.405 667.13C1008.85 657.683 1024.17 657.685 1033.62 667.134C1043.07 676.582 1043.07 691.9 1033.62 701.347Z" stroke="white" stroke-width="2.5438" stroke-miterlimit="10" stroke-linecap="round" stroke-linejoin="round"/>
<path d="M1057.09 724.816C1047.64 734.263 1032.33 734.261 1022.88 724.813C1013.43 715.364 1013.43 700.046 1022.87 690.599C1032.32 681.152 1047.64 681.153 1057.09 690.602C1066.54 700.051 1066.54 715.369 1057.09 724.816Z" stroke="white" stroke-width="2.5438" stroke-miterlimit="10" stroke-linecap="round" stroke-linejoin="round"/>
<path d="M469.552 422.083C460.001 422.083 452.248 414.345 452.248 404.778L452.248 125.527C452.248 117.833 458.479 111.602 466.173 111.602L472.902 111.602C480.596 111.602 486.827 117.833 486.827 125.527L486.827 404.793C486.856 414.345 479.119 422.083 469.552 422.083Z" fill="white"/>
<path d="M446.389 189.957C433.029 189.957 422.198 179.125 422.198 165.762C422.198 152.399 433.029 141.567 446.389 141.567C459.749 141.567 470.579 152.399 470.579 165.762C470.579 179.125 459.749 189.957 446.389 189.957Z" stroke="white" stroke-width="2.5438" stroke-miterlimit="10" stroke-linecap="round" stroke-linejoin="round"/>
<path d="M446.389 223.147C433.029 223.147 422.198 212.314 422.198 198.952C422.198 185.589 433.029 174.756 446.389 174.756C459.749 174.756 470.579 185.589 470.579 198.952C470.579 212.314 459.749 223.147 446.389 223.147Z" stroke="white" stroke-width="2.5438" stroke-miterlimit="10" stroke-linecap="round" stroke-linejoin="round"/>
<path d="M446.39 256.352C433.03 256.352 422.199 245.52 422.199 232.157C422.199 218.794 433.03 207.962 446.39 207.962C459.75 207.962 470.58 218.794 470.58 232.157C470.58 245.52 459.75 256.352 446.39 256.352Z" stroke="white" stroke-width="2.5438" stroke-miterlimit="10" stroke-linecap="round" stroke-linejoin="round"/>
<path d="M446.39 288.115C433.03 288.115 422.199 277.282 422.199 263.92C422.199 250.557 433.03 239.725 446.39 239.725C459.75 239.725 470.58 250.557 470.58 263.92C470.58 277.282 459.75 288.115 446.39 288.115Z" stroke="white" stroke-width="2.5438" stroke-miterlimit="10" stroke-linecap="round" stroke-linejoin="round"/>
<path d="M446.39 321.304C433.03 321.304 422.199 310.472 422.199 297.109C422.199 283.747 433.03 272.914 446.39 272.914C459.75 272.914 470.58 283.747 470.58 297.109C470.58 310.472 459.75 321.304 446.39 321.304Z" stroke="white" stroke-width="2.5438" stroke-miterlimit="10" stroke-linecap="round" stroke-linejoin="round"/>
<path d="M446.39 354.51C433.03 354.51 422.199 343.678 422.199 330.315C422.199 316.952 433.03 306.12 446.39 306.12C459.75 306.12 470.58 316.952 470.58 330.315C470.58 343.678 459.75 354.51 446.39 354.51Z" stroke="white" stroke-width="2.5438" stroke-miterlimit="10" stroke-linecap="round" stroke-linejoin="round"/>
<path d="M446.39 387.699C433.03 387.699 422.199 376.867 422.199 363.504C422.199 350.142 433.03 339.309 446.39 339.309C459.75 339.309 470.58 350.142 470.58 363.504C470.58 376.867 459.75 387.699 446.39 387.699Z" stroke="white" stroke-width="2.5438" stroke-miterlimit="10" stroke-linecap="round" stroke-linejoin="round"/>
<path d="M273.273 1077.76C283.853 1077.76 292.44 1069.19 292.44 1058.59L292.44 947.289C292.44 938.765 285.538 931.861 277.015 931.861L269.562 931.861C261.04 931.861 254.137 938.765 254.137 947.289L254.137 1058.59C254.121 1069.19 262.692 1077.76 273.273 1077.76Z" fill="white"/>
<path d="M283.676 966.216L334.244 985.015L279.188 985.015" stroke="white" stroke-width="2" stroke-miterlimit="10" stroke-linecap="round" stroke-linejoin="round"/>
<path d="M283.676 985.015L334.244 1003.81L279.188 1003.81" stroke="white" stroke-width="2" stroke-miterlimit="10" stroke-linecap="round" stroke-linejoin="round"/>
<path d="M283.676 1003.81L334.244 1022.61L279.188 1022.61" stroke="white" stroke-width="2" stroke-miterlimit="10" stroke-linecap="round" stroke-linejoin="round"/>
<path d="M283.676 1022.61L334.244 1041.41L279.188 1041.41" stroke="white" stroke-width="2" stroke-miterlimit="10" stroke-linecap="round" stroke-linejoin="round"/>
<path d="M283.676 1041.41L334.244 1060.21L279.188 1060.21" stroke="white" stroke-width="2" stroke-miterlimit="10" stroke-linecap="round" stroke-linejoin="round"/>
<path d="M953.515 354C943.847 354 936 347.645 936 339.788L936 110.437C936 104.118 942.307 99 950.095 99L956.905 99C964.693 99 971 104.118 971 110.437L971 339.8C971.03 347.645 963.197 354 953.515 354Z" fill="white"/>
<path d="M950.947 140.649L1001.52 159.448L946.459 159.448" stroke="white" stroke-width="2" stroke-miterlimit="10" stroke-linecap="round" stroke-linejoin="round"/>
<path d="M950.947 159.448L1001.52 178.247L946.459 178.247" stroke="white" stroke-width="2" stroke-miterlimit="10" stroke-linecap="round" stroke-linejoin="round"/>
<path d="M950.947 178.247L1001.52 197.046L946.459 197.046" stroke="white" stroke-width="2" stroke-miterlimit="10" stroke-linecap="round" stroke-linejoin="round"/>
<path d="M950.947 197.046L1001.52 215.845L946.459 215.845" stroke="white" stroke-width="2" stroke-miterlimit="10" stroke-linecap="round" stroke-linejoin="round"/>
<path d="M950.947 215.844L1001.52 234.643L946.459 234.643" stroke="white" stroke-width="2" stroke-miterlimit="10" stroke-linecap="round" stroke-linejoin="round"/>
<path d="M951.654 234.695L1002.22 253.494L947.166 253.494" stroke="white" stroke-width="2" stroke-miterlimit="10" stroke-linecap="round" stroke-linejoin="round"/>
<path d="M951.654 253.494L1002.22 272.292L947.166 272.292" stroke="white" stroke-width="2" stroke-miterlimit="10" stroke-linecap="round" stroke-linejoin="round"/>
<path d="M951.654 272.292L1002.22 291.091L947.166 291.091" stroke="white" stroke-width="2" stroke-miterlimit="10" stroke-linecap="round" stroke-linejoin="round"/>
<path d="M951.654 291.091L1002.22 309.89L947.166 309.89" stroke="white" stroke-width="2" stroke-miterlimit="10" stroke-linecap="round" stroke-linejoin="round"/>
<path d="M951.654 309.89L1002.22 328.688L947.166 328.688" stroke="white" stroke-width="2" stroke-miterlimit="10" stroke-linecap="round" stroke-linejoin="round"/>
<path d="M237.773 1111.47C237.773 1100.89 229.202 1092.3 218.606 1092.3L70.125 1092.3C61.6024 1092.3 54.7002 1099.2 54.7002 1107.73L54.7002 1115.18C54.7002 1123.71 61.6025 1130.61 70.125 1130.61L218.606 1130.61C229.202 1130.64 237.773 1122.05 237.773 1111.47Z" fill="white"/>
<path d="M152.692 1099.43C152.692 1099.43 133.865 1083.58 152.692 1067.71C171.52 1051.86 148.512 1034.02 148.512 1034.02" stroke="white" stroke-width="2" stroke-miterlimit="10" stroke-linecap="round" stroke-linejoin="round"/>
<path d="M168.475 1099.43C168.475 1099.43 149.647 1083.58 168.475 1067.71C187.302 1051.86 164.294 1034.02 164.294 1034.02" stroke="white" stroke-width="2" stroke-miterlimit="10" stroke-linecap="round" stroke-linejoin="round"/>
<path d="M184.24 1099.43C184.24 1099.43 165.413 1083.58 184.24 1067.71C203.068 1051.86 180.06 1034.02 180.06 1034.02" stroke="white" stroke-width="2" stroke-miterlimit="10" stroke-linecap="round" stroke-linejoin="round"/>
<path d="M200.005 1099.43C200.005 1099.43 181.177 1083.58 200.005 1067.71C218.832 1051.86 195.825 1034.02 195.825 1034.02" stroke="white" stroke-width="2" stroke-miterlimit="10" stroke-linecap="round" stroke-linejoin="round"/>
<path d="M215.786 1099.43C215.786 1099.43 196.959 1083.58 215.786 1067.71C234.614 1051.85 211.606 1034.02 211.606 1034.02" stroke="white" stroke-width="2" stroke-miterlimit="10" stroke-linecap="round" stroke-linejoin="round"/>
<path d="M75.3251 1099.43C75.3251 1099.43 56.4977 1083.58 75.3251 1067.71C94.1526 1051.85 71.1448 1034.02 71.1448 1034.02" stroke="white" stroke-width="2" stroke-miterlimit="10" stroke-linecap="round" stroke-linejoin="round"/>
<path d="M91.0908 1099.43C91.0908 1099.43 72.2634 1083.58 91.0908 1067.71C109.918 1051.85 86.9105 1034.02 86.9105 1034.02" stroke="white" stroke-width="2" stroke-miterlimit="10" stroke-linecap="round" stroke-linejoin="round"/>
<path d="M106.855 1099.43C106.855 1099.43 88.0279 1083.58 106.855 1067.71C125.683 1051.86 102.675 1034.02 102.675 1034.02" stroke="white" stroke-width="2" stroke-miterlimit="10" stroke-linecap="round" stroke-linejoin="round"/>
<path d="M122.637 1099.43C122.637 1099.43 103.809 1083.58 122.637 1067.71C141.464 1051.86 118.456 1034.02 118.456 1034.02" stroke="white" stroke-width="2" stroke-miterlimit="10" stroke-linecap="round" stroke-linejoin="round"/>
<path d="M138.403 1099.43C138.403 1099.43 119.576 1083.58 138.403 1067.71C157.231 1051.86 134.223 1034.02 134.223 1034.02" stroke="white" stroke-width="2" stroke-miterlimit="10" stroke-linecap="round" stroke-linejoin="round"/>
<path d="M630.227 349.413C620.675 349.413 612.923 343.178 612.923 335.471L612.923 110.478C612.923 104.279 619.154 99.2583 626.848 99.2583L633.577 99.2583C641.271 99.2583 647.502 104.279 647.502 110.478L647.502 335.482C647.531 343.178 639.793 349.413 630.227 349.413Z" fill="white"/>
<path d="M630.392 246.883C630.392 246.883 646.241 228.055 662.106 246.883C677.955 265.71 695.798 242.702 695.798 242.702" stroke="white" stroke-width="2" stroke-miterlimit="10" stroke-linecap="round" stroke-linejoin="round"/>
<path d="M630.392 262.665C630.392 262.665 646.241 243.838 662.106 262.665C677.955 281.492 695.798 258.485 695.798 258.485" stroke="white" stroke-width="2" stroke-miterlimit="10" stroke-linecap="round" stroke-linejoin="round"/>
<path d="M630.392 278.43C630.392 278.43 646.241 259.603 662.106 278.43C677.955 297.258 695.798 274.25 695.798 274.25" stroke="white" stroke-width="2" stroke-miterlimit="10" stroke-linecap="round" stroke-linejoin="round"/>
<path d="M630.392 294.195C630.392 294.195 646.241 275.368 662.106 294.195C677.955 313.023 695.798 290.015 695.798 290.015" stroke="white" stroke-width="2" stroke-miterlimit="10" stroke-linecap="round" stroke-linejoin="round"/>
<path d="M630.391 309.976C630.391 309.976 646.24 291.149 662.105 309.976C677.971 328.804 695.797 305.796 695.797 305.796" stroke="white" stroke-width="2" stroke-miterlimit="10" stroke-linecap="round" stroke-linejoin="round"/>
<path d="M630.392 169.516C630.392 169.516 646.241 150.689 662.106 169.516C677.972 188.343 695.798 165.336 695.798 165.336" stroke="white" stroke-width="2" stroke-miterlimit="10" stroke-linecap="round" stroke-linejoin="round"/>
<path d="M630.392 185.281C630.392 185.281 646.241 166.454 662.106 185.281C677.972 204.109 695.798 181.101 695.798 181.101" stroke="white" stroke-width="2" stroke-miterlimit="10" stroke-linecap="round" stroke-linejoin="round"/>
<path d="M630.392 201.046C630.392 201.046 646.241 182.218 662.106 201.046C677.955 219.873 695.798 196.865 695.798 196.865" stroke="white" stroke-width="2" stroke-miterlimit="10" stroke-linecap="round" stroke-linejoin="round"/>
<path d="M630.392 216.827C630.392 216.827 646.241 198 662.106 216.827C677.955 235.654 695.798 212.647 695.798 212.647" stroke="white" stroke-width="2" stroke-miterlimit="10" stroke-linecap="round" stroke-linejoin="round"/>
<path d="M630.392 232.593C630.392 232.593 646.241 213.766 662.106 232.593C677.955 251.421 695.798 228.413 695.798 228.413" stroke="white" stroke-width="2" stroke-miterlimit="10" stroke-linecap="round" stroke-linejoin="round"/>
<defs>
<clipPath id="clip0">
<rect width="750.75" height="131.574" fill="white" transform="translate(324.611 0.236816)"/>
</clipPath>
</defs>
</svg>
