<svg width="67" height="68" viewBox="0 0 67 68" fill="none" xmlns="http://www.w3.org/2000/svg">
<path d="M28.144 67.3996L33.4422 50.7564L38.7405 67.3996L38.6757 49.9137L48.8185 64.0937L43.3906 47.499L57.3734 57.8058L47.1334 43.7231L63.5952 49.1682L49.5314 38.9586L66.8682 39.0233L50.3577 33.6917L66.8682 28.3438L49.5314 28.4248L63.5952 18.199L47.1172 23.6603L57.3572 9.56133L43.3744 19.8844L48.7861 3.28972L38.6594 17.4697L38.7243 2.98746e-06L33.426 16.6432L28.1277 4.11227e-06L28.1926 17.4697L18.0497 3.30594L23.4776 19.9006L9.49476 9.57755L19.7348 23.6766L3.27297 18.2152L17.3368 28.4248L3.35297e-05 28.3763L16.5105 33.7079L3.46616e-05 39.0396L17.3368 38.9748L3.27297 49.2006L19.7348 43.7231L9.49476 57.8221L23.4938 47.499L18.066 64.0937L28.2088 49.9299L28.144 67.3996Z" fill="white"/>
</svg>
