<svg width="552" height="96" viewBox="0 0 552 96" fill="none" xmlns="http://www.w3.org/2000/svg">
<path d="M12.3716 96L539.628 96C546.464 96 552 90.5066 552 83.7232L552 14.5C552 14.5 552 4.4771e-05 540.5 4.4771e-05C466.654 4.46366e-05 28.9468 4.48253e-05 17.5 4.48253e-05C5.00002 4.48253e-05 1.30892e-05 4.49999 7.08124e-06 15C1.07327e-06 25.5 1.07327e-06 83.7231 1.07327e-06 83.7231C4.80247e-07 90.5066 5.53577 96 12.3716 96ZM354.639 24.4247C369.448 24.4247 381.451 36.336 381.451 51.0423C381.451 65.738 369.448 77.6493 354.639 77.6493C339.83 77.6493 327.816 65.738 327.816 51.0423C327.826 36.336 339.83 24.4246 354.639 24.4247ZM210.556 30.8641C218.865 30.8641 225.593 37.5507 225.593 45.7854C225.593 54.0202 218.854 60.7068 210.556 60.7068C202.247 60.7068 195.519 54.0201 195.519 45.7854C195.519 37.5507 202.247 30.8641 210.556 30.8641Z" fill="white"/>
</svg>
