<svg width="230" height="62" viewBox="0 0 230 62" fill="none" xmlns="http://www.w3.org/2000/svg">
<path d="M-5.13522e-06 49.5105C-5.21757e-06 42.6049 5.7321 37 12.8187 37L219.684 37C225.384 37 230 41.5051 230 47.0676L230 51.9323C230 57.4949 225.384 61.9999 219.684 61.9999L12.8079 61.9999C5.73211 62.0211 -5.05274e-06 56.4267 -5.13522e-06 49.5105Z" fill="white"/>
<path d="M167.773 44.6886C167.773 44.6886 180.351 34.102 167.773 23.5046C155.195 12.9072 170.566 1 170.566 1" stroke="white" stroke-width="2" stroke-miterlimit="10" stroke-linecap="round" stroke-linejoin="round"/>
<path d="M157.241 44.6886C157.241 44.6886 169.819 34.102 157.241 23.5046C144.662 12.9072 160.033 1 160.033 1" stroke="white" stroke-width="2" stroke-miterlimit="10" stroke-linecap="round" stroke-linejoin="round"/>
<path d="M146.708 44.6886C146.708 44.6886 159.287 34.102 146.708 23.5046C134.13 12.9072 149.501 1 149.501 1" stroke="white" stroke-width="2" stroke-miterlimit="10" stroke-linecap="round" stroke-linejoin="round"/>
<path d="M136.165 44.6886C136.165 44.6886 148.743 34.102 136.165 23.5046C123.586 12.9072 138.957 1 138.957 1" stroke="white" stroke-width="2" stroke-miterlimit="10" stroke-linecap="round" stroke-linejoin="round"/>
<path d="M125.632 44.6886C125.632 44.6886 138.211 34.102 125.632 23.5046C113.054 12.9072 128.425 1 128.425 1" stroke="white" stroke-width="2" stroke-miterlimit="10" stroke-linecap="round" stroke-linejoin="round"/>
<path d="M94.0239 44.6886C94.0239 44.6886 106.602 34.102 94.0239 23.5046C81.4456 12.9072 96.8167 1 96.8167 1" stroke="white" stroke-width="2" stroke-miterlimit="10" stroke-linecap="round" stroke-linejoin="round"/>
<path d="M83.4917 44.6886C83.4917 44.6886 96.07 34.102 83.4917 23.5046C70.9133 12.918 86.2845 1 86.2845 1" stroke="white" stroke-width="2" stroke-miterlimit="10" stroke-linecap="round" stroke-linejoin="round"/>
<path d="M72.9487 44.6886C72.9487 44.6886 85.527 34.102 72.9487 23.5046C60.3704 12.918 75.7415 1 75.7415 1" stroke="white" stroke-width="2" stroke-miterlimit="10" stroke-linecap="round" stroke-linejoin="round"/>
</svg>
