<svg width="97" height="55" viewBox="0 0 97 55" fill="none" xmlns="http://www.w3.org/2000/svg">
<path d="M-2.75556e-06 41.6141C-2.4537e-06 34.7084 5.69956 29.1035 12.7459 29.1035L86.743 29.1035C92.4102 29.1035 97 33.6086 97 39.1712L97 44.0358C97 49.5984 92.4102 54.1035 86.743 54.1035L12.7459 54.1035C5.69956 54.1141 -3.05742e-06 48.5198 -2.75556e-06 41.6141Z" fill="white"/>
<path d="M74.4336 34.7839L61.8769 0.999999L61.8769 37.7824" stroke="white" stroke-width="2" stroke-miterlimit="10" stroke-linecap="round" stroke-linejoin="round"/>
<path d="M61.877 34.7839L49.3203 0.999999L49.3203 37.7824" stroke="white" stroke-width="2" stroke-miterlimit="10" stroke-linecap="round" stroke-linejoin="round"/>
<path d="M49.3203 34.7839L36.7636 0.999999L36.7636 37.7824" stroke="white" stroke-width="2" stroke-miterlimit="10" stroke-linecap="round" stroke-linejoin="round"/>
<path d="M36.7637 34.7839L24.207 0.999999L24.207 37.7824" stroke="white" stroke-width="2" stroke-miterlimit="10" stroke-linecap="round" stroke-linejoin="round"/>
<path d="M24.2061 34.7839L11.6494 0.999999L11.6494 37.7824" stroke="white" stroke-width="2" stroke-miterlimit="10" stroke-linecap="round" stroke-linejoin="round"/>
</svg>
