<svg width="331" height="52" viewBox="0 0 331 52" fill="none" xmlns="http://www.w3.org/2000/svg">
<path d="M331 38.3924C331 45.5743 323.321 51.4034 313.826 51.4034L13.8201 51.4033C6.18423 51.4033 6.144e-07 46.718 1.37303e-06 40.9329L2.03646e-06 35.8737C2.79509e-06 30.0886 6.18423 25.4033 13.8201 25.4033L313.841 25.4033C323.321 25.3923 331 31.2105 331 38.3924Z" fill="white"/>
<path d="M179.023 0.999898L211.454 30.2158" stroke="white" stroke-width="1.7449" stroke-miterlimit="10" stroke-linecap="round" stroke-linejoin="round"/>
<path d="M192.273 0.999898L224.704 30.2158" stroke="white" stroke-width="1.7449" stroke-miterlimit="10" stroke-linecap="round" stroke-linejoin="round"/>
<path d="M205.523 0.999898L237.954 30.2158" stroke="white" stroke-width="1.7449" stroke-miterlimit="10" stroke-linecap="round" stroke-linejoin="round"/>
<path d="M90.4883 0.999898L122.919 30.2158" stroke="white" stroke-width="1.7449" stroke-miterlimit="10" stroke-linecap="round" stroke-linejoin="round"/>
<path d="M103.738 0.999898L136.169 30.2158" stroke="white" stroke-width="1.7449" stroke-miterlimit="10" stroke-linecap="round" stroke-linejoin="round"/>
<path d="M116.987 0.999898L149.429 30.2158" stroke="white" stroke-width="1.7449" stroke-miterlimit="10" stroke-linecap="round" stroke-linejoin="round"/>
<path d="M218.771 0.999898L251.202 30.2158" stroke="white" stroke-width="1.7449" stroke-miterlimit="10" stroke-linecap="round" stroke-linejoin="round"/>
<path d="M232.021 0.999898L264.452 30.2158" stroke="white" stroke-width="1.7449" stroke-miterlimit="10" stroke-linecap="round" stroke-linejoin="round"/>
<path d="M245.271 0.999898L277.702 30.2158" stroke="white" stroke-width="1.7449" stroke-miterlimit="10" stroke-linecap="round" stroke-linejoin="round"/>
<path d="M258.521 0.999898L290.951 30.2158" stroke="white" stroke-width="1.7449" stroke-miterlimit="10" stroke-linecap="round" stroke-linejoin="round"/>
<path d="M271.77 0.999898L304.211 30.2158" stroke="white" stroke-width="1.7449" stroke-miterlimit="10" stroke-linecap="round" stroke-linejoin="round"/>
<path d="M285.03 0.999898L317.461 30.2158" stroke="white" stroke-width="1.7449" stroke-miterlimit="10" stroke-linecap="round" stroke-linejoin="round"/>
</svg>
