<svg width="123" height="45" viewBox="0 0 123 45" fill="none" xmlns="http://www.w3.org/2000/svg">
<path d="M-2.18741e-06 31.6795C-9.79986e-07 24.7738 5.75864 19.1689 12.878 19.1689L112.637 19.169C118.363 19.169 123 23.674 123 29.2366L123 34.1013C123 39.6639 118.363 44.1689 112.637 44.1689L12.878 44.1689C5.75863 44.1795 -3.39484e-06 38.5852 -2.18741e-06 31.6795Z" fill="white"/>
<path d="M69.831 12.0845C69.831 18.2063 74.7937 23.169 80.9155 23.169C87.0373 23.169 92 18.2063 92 12.0845C92 5.9627 87.0373 1 80.9155 1C74.7937 0.999999 69.831 5.9627 69.831 12.0845Z" stroke="white" stroke-width="1.7449" stroke-miterlimit="10" stroke-linecap="round" stroke-linejoin="round"/>
<path d="M54.622 12.0845C54.622 18.2063 59.5847 23.169 65.7065 23.169C71.8283 23.169 76.791 18.2063 76.791 12.0845C76.791 5.9627 71.8283 1 65.7065 1C59.5847 0.999999 54.622 5.9627 54.622 12.0845Z" stroke="white" stroke-width="1.7449" stroke-miterlimit="10" stroke-linecap="round" stroke-linejoin="round"/>
<path d="M39.414 12.0845C39.414 18.2063 44.3767 23.169 50.4985 23.169C56.6203 23.169 61.583 18.2063 61.583 12.0845C61.583 5.9627 56.6203 1 50.4985 1C44.3767 0.999999 39.414 5.9627 39.414 12.0845Z" stroke="white" stroke-width="1.7449" stroke-miterlimit="10" stroke-linecap="round" stroke-linejoin="round"/>
<path d="M24.204 12.0845C24.204 18.2063 29.1667 23.169 35.2885 23.169C41.4103 23.169 46.373 18.2063 46.373 12.0845C46.373 5.9627 41.4104 1 35.2885 1C29.1667 0.999999 24.204 5.9627 24.204 12.0845Z" stroke="white" stroke-width="1.7449" stroke-miterlimit="10" stroke-linecap="round" stroke-linejoin="round"/>
</svg>
