<svg width="918" height="172" viewBox="0 0 918 172" fill="none" xmlns="http://www.w3.org/2000/svg">
<path d="M918 130.465C918 153.392 901.226 172 880.489 172L30.1868 172C13.508 172 -1.30756e-06 157.043 -2.92207e-06 138.575L-4.33402e-06 122.425C-5.94853e-06 103.957 13.508 89 30.1868 89L880.52 89C901.226 88.9649 918 107.538 918 130.465Z" fill="white"/>
<line x1="2.60834" y1="2.66622" x2="87.6083" y2="97.6662" stroke="white" stroke-width="7"/>
<line x1="51.6083" y1="2.66622" x2="136.608" y2="97.6662" stroke="white" stroke-width="7"/>
<line x1="100.608" y1="2.66622" x2="185.608" y2="97.6662" stroke="white" stroke-width="7"/>
<line x1="149.608" y1="2.66622" x2="234.608" y2="97.6662" stroke="white" stroke-width="7"/>
<line x1="198.608" y1="2.66622" x2="283.608" y2="97.6662" stroke="white" stroke-width="7"/>
<line x1="247.608" y1="2.66622" x2="332.608" y2="97.6662" stroke="white" stroke-width="7"/>
<line x1="296.608" y1="2.66622" x2="381.608" y2="97.6662" stroke="white" stroke-width="7"/>
<line x1="345.608" y1="2.66622" x2="430.608" y2="97.6662" stroke="white" stroke-width="7"/>
<line x1="492.608" y1="2.66622" x2="577.608" y2="97.6662" stroke="white" stroke-width="7"/>
<line x1="541.608" y1="2.66622" x2="626.608" y2="97.6662" stroke="white" stroke-width="7"/>
<line x1="590.608" y1="2.66622" x2="675.608" y2="97.6662" stroke="white" stroke-width="7"/>
<line x1="639.608" y1="2.66622" x2="724.608" y2="97.6662" stroke="white" stroke-width="7"/>
<line x1="688.608" y1="2.66622" x2="773.608" y2="97.6662" stroke="white" stroke-width="7"/>
<line x1="737.608" y1="2.66622" x2="822.608" y2="97.6662" stroke="white" stroke-width="7"/>
<line x1="786.608" y1="2.66622" x2="871.608" y2="97.6662" stroke="white" stroke-width="7"/>
</svg>
