<svg width="665" height="181" viewBox="0 0 665 181" fill="none" xmlns="http://www.w3.org/2000/svg">
<path d="M665 139.465C665 162.392 652.849 181 637.827 181L21.8674 181C9.78522 181 -1.30756e-06 166.043 -2.92207e-06 147.575L-4.33402e-06 131.425C-5.94853e-06 112.957 9.78521 98 21.8674 98L637.85 98C652.849 97.9649 665 116.538 665 139.465Z" fill="white"/>
<path d="M601.253 129.324L554.692 4L554.692 140.447" stroke="white" stroke-width="7" stroke-miterlimit="10" stroke-linecap="round" stroke-linejoin="round"/>
<path d="M554.692 129.324L508.131 4L508.131 140.447" stroke="white" stroke-width="7" stroke-miterlimit="10" stroke-linecap="round" stroke-linejoin="round"/>
<path d="M508.131 129.324L461.57 4L461.57 140.447" stroke="white" stroke-width="7" stroke-miterlimit="10" stroke-linecap="round" stroke-linejoin="round"/>
<path d="M461.571 129.324L415.011 4L415.011 140.447" stroke="white" stroke-width="7" stroke-miterlimit="10" stroke-linecap="round" stroke-linejoin="round"/>
<path d="M415.01 129.324L368.449 4L368.449 140.447" stroke="white" stroke-width="7" stroke-miterlimit="10" stroke-linecap="round" stroke-linejoin="round"/>
<path d="M320.122 129.324L273.561 4L273.561 140.447" stroke="white" stroke-width="7" stroke-miterlimit="10" stroke-linecap="round" stroke-linejoin="round"/>
<path d="M273.561 129.324L227 4L227 140.447" stroke="white" stroke-width="7" stroke-miterlimit="10" stroke-linecap="round" stroke-linejoin="round"/>
<path d="M227 129.324L180.439 4L180.439 140.447" stroke="white" stroke-width="7" stroke-miterlimit="10" stroke-linecap="round" stroke-linejoin="round"/>
<path d="M180.44 129.324L133.88 4L133.88 140.447" stroke="white" stroke-width="7" stroke-miterlimit="10" stroke-linecap="round" stroke-linejoin="round"/>
<path d="M133.879 129.324L87.3186 4L87.3186 140.447" stroke="white" stroke-width="7" stroke-miterlimit="10" stroke-linecap="round" stroke-linejoin="round"/>
</svg>
