<svg width="1333" height="178" viewBox="0 0 1333 178" fill="none" xmlns="http://www.w3.org/2000/svg">
<path d="M3.63111e-06 136.006C1.62678e-06 158.933 24.3569 177.541 54.4692 177.541L1289.17 177.541C1313.39 177.541 1333 162.584 1333 144.116L1333 127.966C1333 109.498 1313.39 94.5411 1289.17 94.5411L54.4232 94.541C24.3569 94.5058 5.63544e-06 113.079 3.63111e-06 136.006Z" fill="white"/>
<path d="M819.401 4.00025C855.042 4.00025 883.935 33.5913 883.935 70.0933C883.935 106.595 855.042 136.186 819.401 136.186C783.761 136.186 754.868 106.595 754.868 70.0933C754.868 33.5912 783.761 4.00025 819.401 4.00025Z" stroke="white" stroke-width="7" stroke-miterlimit="10" stroke-linecap="round" stroke-linejoin="round"/>
<path d="M730.879 4.00025C766.52 4.00025 795.413 33.5913 795.413 70.0933C795.413 106.595 766.52 136.186 730.879 136.186C695.239 136.186 666.346 106.595 666.346 70.0933C666.346 33.5912 695.239 4.00025 730.879 4.00025Z" stroke="white" stroke-width="7" stroke-miterlimit="10" stroke-linecap="round" stroke-linejoin="round"/>
<path d="M1214.47 4.00025C1250.11 4.00025 1279 33.5913 1279 70.0933C1279 106.595 1250.11 136.186 1214.47 136.186C1178.83 136.186 1149.93 106.595 1149.93 70.0933C1149.93 33.5912 1178.83 4.00025 1214.47 4.00025Z" stroke="white" stroke-width="7" stroke-miterlimit="10" stroke-linecap="round" stroke-linejoin="round"/>
<path d="M207.099 4.00025C242.74 4.00025 271.632 33.5913 271.632 70.0933C271.632 106.595 242.74 136.186 207.099 136.186C171.458 136.186 142.566 106.595 142.566 70.0933C142.566 33.5912 171.458 4.00025 207.099 4.00025Z" stroke="white" stroke-width="7" stroke-miterlimit="10" stroke-linecap="round" stroke-linejoin="round"/>
<path d="M1125.9 4.00025C1161.54 4.00025 1190.43 33.5913 1190.43 70.0933C1190.43 106.595 1161.54 136.186 1125.9 136.186C1090.26 136.186 1061.37 106.595 1061.37 70.0933C1061.37 33.5912 1090.26 4.00025 1125.9 4.00025Z" stroke="white" stroke-width="7" stroke-miterlimit="10" stroke-linecap="round" stroke-linejoin="round"/>
<path d="M118.533 4.00025C154.174 4.00025 183.066 33.5913 183.066 70.0933C183.066 106.595 154.174 136.186 118.533 136.186C82.8924 136.186 54 106.595 54 70.0933C54 33.5912 82.8925 4.00025 118.533 4.00025Z" stroke="white" stroke-width="7" stroke-miterlimit="10" stroke-linecap="round" stroke-linejoin="round"/>
<path d="M642.356 4.00025C677.997 4.00025 706.889 33.5913 706.889 70.0933C706.889 106.595 677.997 136.186 642.356 136.186C606.716 136.186 577.823 106.595 577.823 70.0933C577.823 33.5912 606.716 4.00025 642.356 4.00025Z" stroke="white" stroke-width="7" stroke-miterlimit="10" stroke-linecap="round" stroke-linejoin="round"/>
<path d="M557.597 4.00025C593.237 4.00025 622.13 33.5913 622.13 70.0933C622.13 106.595 593.237 136.186 557.597 136.186C521.956 136.186 493.063 106.595 493.063 70.0933C493.063 33.5912 521.956 4.00025 557.597 4.00025Z" stroke="white" stroke-width="7" stroke-miterlimit="10" stroke-linecap="round" stroke-linejoin="round"/>
<path d="M469.073 4.00025C504.714 4.00025 533.606 33.5913 533.606 70.0933C533.606 106.595 504.714 136.186 469.073 136.186C433.432 136.186 404.54 106.595 404.54 70.0933C404.54 33.5912 433.432 4.00025 469.073 4.00025Z" stroke="white" stroke-width="7" stroke-miterlimit="10" stroke-linecap="round" stroke-linejoin="round"/>
<path d="M380.551 4.00025C416.192 4.00025 445.084 33.5913 445.084 70.0933C445.084 106.595 416.192 136.186 380.551 136.186C344.91 136.186 316.018 106.595 316.018 70.0933C316.018 33.5912 344.911 4.00025 380.551 4.00025Z" stroke="white" stroke-width="7" stroke-miterlimit="10" stroke-linecap="round" stroke-linejoin="round"/>
<path d="M291.985 4.00025C327.626 4.00025 356.518 33.5913 356.518 70.0933C356.518 106.595 327.626 136.186 291.985 136.186C256.345 136.186 227.452 106.595 227.452 70.0933C227.452 33.5912 256.345 4.00025 291.985 4.00025Z" stroke="white" stroke-width="7" stroke-miterlimit="10" stroke-linecap="round" stroke-linejoin="round"/>
</svg>
