<svg width="1160" height="179" viewBox="0 0 1160 179" fill="none" xmlns="http://www.w3.org/2000/svg">
<path d="M1160 137.465C1160 160.392 1138.8 179 1112.6 179L38.1444 179C17.0688 179 -1.30756e-06 164.043 -2.92208e-06 145.575L-4.33402e-06 129.425C-5.94853e-06 110.957 17.0688 96 38.1444 96L1112.64 96C1138.8 95.9648 1160 114.538 1160 137.465Z" fill="white"/>
<path d="M753.373 4.00002C753.373 4.00002 707.534 36.5538 753.373 69.1409C799.212 101.728 743.195 138.343 743.195 138.343" stroke="white" stroke-width="7" stroke-miterlimit="10" stroke-linecap="round" stroke-linejoin="round"/>
<path d="M791.796 4.00002C791.796 4.00002 745.957 36.5538 791.796 69.1409C837.635 101.728 781.579 138.343 781.579 138.343" stroke="white" stroke-width="7" stroke-miterlimit="10" stroke-linecap="round" stroke-linejoin="round"/>
<path d="M830.179 4C830.179 4 784.34 36.5538 830.179 69.1409C876.018 101.728 820.001 138.343 820.001 138.343" stroke="white" stroke-width="7" stroke-miterlimit="10" stroke-linecap="round" stroke-linejoin="round"/>
<path d="M868.562 4C868.562 4 822.723 36.5538 868.562 69.1409C914.401 101.728 858.385 138.343 858.385 138.343" stroke="white" stroke-width="7" stroke-miterlimit="10" stroke-linecap="round" stroke-linejoin="round"/>
<path d="M906.984 4C906.984 4 861.145 36.5538 906.984 69.1409C952.822 101.728 896.767 138.343 896.767 138.343" stroke="white" stroke-width="7" stroke-miterlimit="10" stroke-linecap="round" stroke-linejoin="round"/>
<path d="M976.334 4C976.334 4 930.495 36.5538 976.334 69.1409C1022.17 101.728 966.117 138.343 966.117 138.343" stroke="white" stroke-width="7" stroke-miterlimit="10" stroke-linecap="round" stroke-linejoin="round"/>
<path d="M1014.72 4.00002C1014.72 4.00002 968.878 36.5538 1014.72 69.1409C1060.56 101.728 1004.54 138.343 1004.54 138.343" stroke="white" stroke-width="7" stroke-miterlimit="10" stroke-linecap="round" stroke-linejoin="round"/>
<path d="M1053.1 4.00002C1053.1 4.00002 1007.26 36.5538 1053.1 69.1409C1098.94 101.728 1042.92 138.343 1042.92 138.343" stroke="white" stroke-width="7" stroke-miterlimit="10" stroke-linecap="round" stroke-linejoin="round"/>
<path d="M415.373 4.00002C415.373 4.00002 369.534 36.5538 415.373 69.1409C461.212 101.728 405.195 138.343 405.195 138.343" stroke="white" stroke-width="7" stroke-miterlimit="10" stroke-linecap="round" stroke-linejoin="round"/>
<path d="M453.796 4.00002C453.796 4.00002 407.957 36.5538 453.796 69.1409C499.635 101.728 443.579 138.343 443.579 138.343" stroke="white" stroke-width="7" stroke-miterlimit="10" stroke-linecap="round" stroke-linejoin="round"/>
<path d="M492.179 4C492.179 4 446.34 36.5538 492.179 69.1409C538.018 101.728 482.001 138.343 482.001 138.343" stroke="white" stroke-width="7" stroke-miterlimit="10" stroke-linecap="round" stroke-linejoin="round"/>
<path d="M530.562 4C530.562 4 484.723 36.5538 530.562 69.1409C576.401 101.728 520.385 138.343 520.385 138.343" stroke="white" stroke-width="7" stroke-miterlimit="10" stroke-linecap="round" stroke-linejoin="round"/>
<path d="M568.984 4C568.984 4 523.145 36.5538 568.984 69.1409C614.822 101.728 558.767 138.343 558.767 138.343" stroke="white" stroke-width="7" stroke-miterlimit="10" stroke-linecap="round" stroke-linejoin="round"/>
<path d="M638.334 4C638.334 4 592.495 36.5538 638.334 69.1409C684.173 101.728 628.117 138.343 628.117 138.343" stroke="white" stroke-width="7" stroke-miterlimit="10" stroke-linecap="round" stroke-linejoin="round"/>
<path d="M676.717 4.00002C676.717 4.00002 630.878 36.5538 676.717 69.1409C722.556 101.728 666.539 138.343 666.539 138.343" stroke="white" stroke-width="7" stroke-miterlimit="10" stroke-linecap="round" stroke-linejoin="round"/>
<path d="M715.1 4.00002C715.1 4.00002 669.261 36.5538 715.1 69.1409C760.939 101.728 704.922 138.343 704.922 138.343" stroke="white" stroke-width="7" stroke-miterlimit="10" stroke-linecap="round" stroke-linejoin="round"/>
<path d="M77.3728 4.00002C77.3728 4.00002 31.534 36.5538 77.3728 69.1409C123.212 101.728 67.1952 138.343 67.1952 138.343" stroke="white" stroke-width="7" stroke-miterlimit="10" stroke-linecap="round" stroke-linejoin="round"/>
<path d="M115.796 4.00002C115.796 4.00002 69.9573 36.5538 115.796 69.1409C161.635 101.728 105.579 138.343 105.579 138.343" stroke="white" stroke-width="7" stroke-miterlimit="10" stroke-linecap="round" stroke-linejoin="round"/>
<path d="M154.179 4C154.179 4 108.34 36.5538 154.179 69.1409C200.018 101.728 144.001 138.343 144.001 138.343" stroke="white" stroke-width="7" stroke-miterlimit="10" stroke-linecap="round" stroke-linejoin="round"/>
<path d="M192.562 4C192.562 4 146.723 36.5538 192.562 69.1409C238.401 101.728 182.385 138.343 182.385 138.343" stroke="white" stroke-width="7" stroke-miterlimit="10" stroke-linecap="round" stroke-linejoin="round"/>
<path d="M230.984 4C230.984 4 185.145 36.5538 230.984 69.1409C276.822 101.728 220.767 138.343 220.767 138.343" stroke="white" stroke-width="7" stroke-miterlimit="10" stroke-linecap="round" stroke-linejoin="round"/>
<path d="M300.334 4C300.334 4 254.495 36.5538 300.334 69.1409C346.173 101.728 290.117 138.343 290.117 138.343" stroke="white" stroke-width="7" stroke-miterlimit="10" stroke-linecap="round" stroke-linejoin="round"/>
<path d="M338.717 4.00002C338.717 4.00002 292.878 36.5538 338.717 69.1409C384.556 101.728 328.539 138.343 328.539 138.343" stroke="white" stroke-width="7" stroke-miterlimit="10" stroke-linecap="round" stroke-linejoin="round"/>
<path d="M377.1 4.00002C377.1 4.00002 331.261 36.5538 377.1 69.1409C422.939 101.728 366.922 138.343 366.922 138.343" stroke="white" stroke-width="7" stroke-miterlimit="10" stroke-linecap="round" stroke-linejoin="round"/>
</svg>
