<svg width="38" height="29" viewBox="0 0 38 29" fill="none" xmlns="http://www.w3.org/2000/svg">
<g clip-path="url(#clip0)">
<path d="M38.0005 4.02265V0.814216C38.0005 0.366246 37.6327 0 37.1759 0H2.06974C1.61298 0 1.24512 0.363219 1.24512 0.814216V4.02265V6.36238V14.4682C1.24512 14.9344 1.62831 15.3097 2.09733 15.3097C2.56942 15.3097 2.94954 14.9313 2.94954 14.4682V6.35936H6.25109V14.4682C6.25109 14.9344 6.63427 15.3097 7.1033 15.3097C7.57538 15.3097 7.95551 14.9313 7.95551 14.4682V6.35936H11.2571V14.4682C11.2571 14.9344 11.6402 15.3097 12.1093 15.3097C12.5814 15.3097 12.9615 14.9313 12.9615 14.4682V6.35936H16.263V14.4682C16.263 14.9344 16.6462 15.3097 17.1152 15.3097C17.5873 15.3097 17.9674 14.9313 17.9674 14.4682V6.35936H21.269V14.4682C21.269 14.9344 21.6522 15.3097 22.1212 15.3097C22.5933 15.3097 22.9734 14.9313 22.9734 14.4682V6.35936H26.275V14.4682C26.275 14.9344 26.6582 15.3097 27.1272 15.3097C27.5993 15.3097 27.9794 14.9313 27.9794 14.4682V6.35936H31.2809V14.4682C31.2809 14.9344 31.6641 15.3097 32.1331 15.3097C32.6052 15.3097 32.9854 14.9313 32.9854 14.4682V6.35936H36.2869V14.4682C36.2869 14.9344 36.6701 15.3097 37.1391 15.3097C37.6112 15.3097 37.9913 14.9313 37.9913 14.4682L38.0005 4.02265ZM14.3869 4.74303C13.3998 4.74303 12.5997 3.95303 12.5997 2.9784C12.5997 2.00376 13.3998 1.21376 14.3869 1.21376C15.374 1.21376 16.1741 2.00376 16.1741 2.9784C16.1741 3.95303 15.371 4.74303 14.3869 4.74303ZM23.982 4.31625C23.4302 4.31625 22.9795 3.87434 22.9795 3.32648C22.9795 2.78165 23.4271 2.33671 23.982 2.33671C24.5338 2.33671 24.9844 2.77862 24.9844 3.32648C24.9813 3.87131 24.5338 4.31625 23.982 4.31625Z" fill="white"/>
<path d="M0.0674411 18.3124C0.110358 18.1883 0.174734 18.0793 0.263633 17.9916C0.349468 17.9007 0.450629 17.8342 0.576315 17.7827C0.702001 17.7312 0.833817 17.707 0.987093 17.707C1.14343 17.707 1.28138 17.7312 1.404 17.7827C1.52662 17.8342 1.62778 17.9007 1.71055 17.9916C1.79332 18.0824 1.86076 18.1883 1.90674 18.3124C1.94966 18.4335 1.97112 18.5697 1.97112 18.718C1.97112 18.8663 1.94966 18.9995 1.90674 19.1236C1.86076 19.2477 1.79332 19.3566 1.71055 19.4444C1.62778 19.5292 1.52662 19.6018 1.404 19.6533C1.28138 19.7047 1.14343 19.7289 0.987093 19.7289C0.833817 19.7289 0.702001 19.7047 0.576315 19.6533C0.450629 19.6018 0.352533 19.5322 0.263633 19.4444C0.177799 19.3536 0.110358 19.2477 0.0674411 19.1236C0.024524 18.9995 0 18.8633 0 18.718C0 18.5727 0.024524 18.4335 0.0674411 18.3124ZM0.548725 18.9268C0.564053 18.9995 0.588577 19.063 0.628429 19.1175C0.665215 19.175 0.711197 19.2204 0.769442 19.2537C0.827686 19.287 0.901258 19.3052 0.987093 19.3052C1.07906 19.3052 1.15263 19.287 1.21087 19.2537C1.26912 19.2204 1.3151 19.175 1.35189 19.1206C1.38867 19.0661 1.4132 19.0055 1.42853 18.9329C1.44385 18.8603 1.44998 18.7906 1.44998 18.715C1.44998 18.6393 1.44385 18.5697 1.42853 18.497C1.4132 18.4244 1.38867 18.3608 1.35189 18.3063C1.3151 18.2519 1.26912 18.2095 1.21087 18.1732C1.15263 18.1399 1.07599 18.1278 0.987093 18.1278C0.901258 18.1278 0.827686 18.1459 0.769442 18.1792C0.711197 18.2125 0.665215 18.2579 0.628429 18.3124C0.588577 18.3699 0.564053 18.4304 0.548725 18.5031C0.533398 18.5727 0.521136 18.6453 0.521136 18.718C0.521136 18.7876 0.533398 18.8603 0.548725 18.9268Z" fill="white"/>
<path d="M5.0955 18.3061C5.08018 18.2668 5.05872 18.2335 5.03419 18.2093C5.0066 18.182 4.97288 18.1639 4.9361 18.1488C4.89625 18.1366 4.85026 18.1306 4.79508 18.1306C4.71232 18.1306 4.64794 18.1488 4.59583 18.1881C4.54371 18.2275 4.50386 18.2729 4.47934 18.3304C4.45175 18.3909 4.43642 18.4545 4.42416 18.5241C4.41803 18.5907 4.40883 18.6573 4.40883 18.7178C4.40883 18.7783 4.4119 18.848 4.42109 18.9145C4.42722 18.9872 4.44255 19.0477 4.47321 19.1052C4.49773 19.1627 4.53452 19.2112 4.5897 19.2475C4.64181 19.2868 4.70925 19.305 4.79508 19.305C4.85333 19.305 4.90238 19.2929 4.94836 19.2687C4.98821 19.2475 5.025 19.2172 5.05259 19.187C5.08018 19.1506 5.1047 19.1143 5.11696 19.075C5.12923 19.0386 5.13536 19.0023 5.13536 18.9721H5.65649C5.65649 19.0053 5.65343 19.0447 5.64116 19.0931C5.62584 19.1476 5.60744 19.196 5.58292 19.2535C5.5584 19.308 5.52161 19.3655 5.48176 19.423C5.43578 19.4806 5.38366 19.529 5.31929 19.5744C5.25491 19.6198 5.18134 19.6561 5.0955 19.6864C5.00967 19.7136 4.90544 19.7288 4.79508 19.7288C4.65101 19.7288 4.51919 19.7076 4.40577 19.6652C4.29234 19.6198 4.20038 19.5532 4.12374 19.4685C4.0471 19.3837 3.98886 19.2778 3.94901 19.1506C3.90915 19.0265 3.8877 18.8812 3.8877 18.7208C3.8877 18.5574 3.90915 18.4121 3.95207 18.288C3.99499 18.1669 4.0563 18.0579 4.136 17.9732C4.2157 17.8884 4.31074 17.8219 4.42109 17.7795C4.52839 17.7341 4.65714 17.7129 4.79202 17.7129C4.85026 17.7129 4.91157 17.7189 4.97595 17.728C5.03726 17.7341 5.09857 17.7522 5.15988 17.7734C5.22119 17.7976 5.27943 17.8279 5.33768 17.8642C5.39286 17.9006 5.44191 17.946 5.49095 18.0004C5.53387 18.0549 5.57066 18.1185 5.59825 18.1911C5.62584 18.2638 5.64423 18.3485 5.65343 18.4454H5.13229C5.12309 18.3879 5.1139 18.3394 5.0955 18.3061Z" fill="white"/>
<path d="M8.69689 18.4274C8.81645 18.4274 8.9268 18.4395 9.01877 18.4637C9.11073 18.488 9.19044 18.5273 9.25481 18.5788C9.31919 18.6302 9.3713 18.6938 9.40502 18.7725C9.43874 18.8512 9.45714 18.945 9.45714 19.051C9.45714 19.1478 9.44181 19.2295 9.41728 19.2992C9.38969 19.3718 9.35291 19.4293 9.30999 19.4717C9.26708 19.5231 9.21496 19.5534 9.16285 19.5837C9.10767 19.6079 9.05249 19.6291 9.00344 19.6412C8.95133 19.6563 8.90228 19.6654 8.85936 19.6684C8.81645 19.6715 8.77966 19.6714 8.7582 19.6714H7.69141V17.7676H8.19108V18.4305H8.69689V18.4274ZM8.72448 19.287C8.76127 19.284 8.79805 19.2689 8.82871 19.2507C8.8563 19.2326 8.88389 19.2083 8.90228 19.1751C8.92374 19.1418 8.92987 19.0994 8.92987 19.051C8.92987 19.0025 8.92374 18.9601 8.90228 18.9269C8.88389 18.8936 8.85936 18.8693 8.82258 18.8512C8.78886 18.833 8.749 18.8179 8.70609 18.8118C8.66317 18.8058 8.61412 18.7997 8.56507 18.7997H8.18495V19.2961H8.60799C8.64784 19.2961 8.68463 19.2931 8.72448 19.287Z" fill="white"/>
<path d="M12.5383 19.1449L12.8571 17.7646H13.5898V19.6685H13.1208V18.1369H13.1146L12.7529 19.6685H12.2931L11.9313 18.1369H11.9252V19.6685H11.4531V17.7646H12.2072L12.5322 19.1449H12.5383V19.1449Z" fill="white"/>
<path d="M16.2441 18.9391L16.9461 17.7646H17.4734V19.6685H16.9737V18.5183H16.9675L16.287 19.6685H15.7383V17.7646H16.238V18.9391H16.2441V18.9391Z" fill="white"/>
<path d="M20.8575 18.4517V17.7646H21.3571V19.6685H20.8575V18.8513H20.1217V19.6685H19.6221V17.7646H20.1217V18.4517H20.8575V18.4517Z" fill="white"/>
<path d="M23.4571 18.3124C23.5 18.1883 23.5644 18.0793 23.6533 17.9916C23.7391 17.9007 23.8403 17.8342 23.966 17.7827C24.0916 17.7312 24.2235 17.707 24.3767 17.707C24.5331 17.707 24.671 17.7312 24.7936 17.7827C24.9163 17.8342 25.0174 17.9007 25.1002 17.9916C25.183 18.0824 25.2504 18.1883 25.2964 18.3124C25.3393 18.4335 25.3608 18.5697 25.3608 18.718C25.3608 18.8663 25.3393 18.9995 25.2964 19.1236C25.2504 19.2477 25.183 19.3566 25.1002 19.4444C25.0174 19.5292 24.9163 19.6018 24.7936 19.6533C24.671 19.7047 24.5331 19.7289 24.3767 19.7289C24.2235 19.7289 24.0916 19.7047 23.966 19.6533C23.8403 19.6018 23.7422 19.5322 23.6533 19.4444C23.5674 19.3536 23.5 19.2477 23.4571 19.1236C23.4142 19.0025 23.3896 18.8663 23.3896 18.718C23.3896 18.5697 23.4142 18.4335 23.4571 18.3124ZM23.9353 18.9268C23.9506 18.9995 23.9752 19.063 24.015 19.1175C24.0518 19.175 24.0978 19.2204 24.156 19.2537C24.2143 19.287 24.2878 19.3052 24.3737 19.3052C24.4656 19.3052 24.5392 19.287 24.5975 19.2537C24.6557 19.2204 24.7017 19.175 24.7385 19.1206C24.7753 19.0661 24.7998 19.0055 24.8151 18.9329C24.8304 18.8603 24.8366 18.7906 24.8366 18.715C24.8366 18.6393 24.8304 18.5697 24.8151 18.497C24.7998 18.4244 24.7753 18.3608 24.7385 18.3063C24.7017 18.2519 24.6557 18.2095 24.5975 18.1732C24.5392 18.1399 24.4626 18.1278 24.3737 18.1278C24.2878 18.1278 24.2143 18.1459 24.156 18.1792C24.0978 18.2125 24.0518 18.2579 24.015 18.3124C23.9752 18.3699 23.9506 18.4304 23.9353 18.5031C23.923 18.5727 23.9108 18.6453 23.9108 18.718C23.9108 18.7876 23.923 18.8603 23.9353 18.9268Z" fill="white"/>
<path d="M30.1152 17.7646L29.4653 18.6455L30.1458 19.6685H29.5419L29.0116 18.8604H28.9166V19.6685H28.4169V18.8604H28.3096L27.767 19.6685H27.1846L27.8712 18.6455L27.2306 17.7646H27.8038L28.328 18.5214H28.423V17.7646H28.9227V18.5214H29.0177L29.5481 17.7646H30.1152V17.7646Z" fill="white"/>
<path d="M33.3218 17.7646H33.9901L33.193 18.5547L34.0238 19.6685H33.3708L32.8006 18.8634L32.5983 19.0662V19.6685H32.0986V17.7646H32.5983V18.4881L33.3218 17.7646Z" fill="white"/>
<path d="M37.5376 19.4323C37.5406 19.4686 37.5529 19.4989 37.5621 19.5171C37.5744 19.5413 37.5836 19.5564 37.5989 19.5685C37.6142 19.5806 37.6234 19.5867 37.6418 19.5897V19.6684H37.0869L37.0593 19.5776C37.044 19.5413 37.041 19.4989 37.041 19.4444L36.9275 19.5564C36.8877 19.5897 36.8478 19.617 36.8018 19.6412C36.7559 19.6654 36.7037 19.6866 36.6424 19.7017C36.5811 19.7168 36.5076 19.7229 36.4248 19.7229C36.339 19.7229 36.2593 19.7108 36.1857 19.6866C36.1121 19.6624 36.0508 19.623 35.9956 19.5746C35.9435 19.5231 35.9006 19.4626 35.873 19.3869C35.8454 19.3143 35.8301 19.2295 35.8301 19.1327C35.8301 19.054 35.8423 18.9813 35.8669 18.9147C35.8914 18.8481 35.9282 18.7906 35.9711 18.7392C36.0171 18.6877 36.0723 18.6453 36.1366 18.6151C36.201 18.5788 36.2746 18.5576 36.3573 18.5485L36.8478 18.4758C36.8662 18.4728 36.8846 18.4728 36.9061 18.4637C36.9275 18.4607 36.9459 18.4516 36.9643 18.4395C36.9827 18.4274 36.998 18.4153 37.0072 18.3971C37.0195 18.376 37.0256 18.3517 37.0256 18.3185C37.0256 18.2852 37.0195 18.2579 37.0103 18.2337C36.998 18.2065 36.9827 18.1822 36.9582 18.1671C36.9337 18.1459 36.903 18.1308 36.8632 18.1217C36.8233 18.1096 36.7743 18.1066 36.716 18.1066C36.6486 18.1066 36.5965 18.1126 36.5566 18.1247C36.5137 18.1399 36.48 18.1611 36.4585 18.1822C36.434 18.2065 36.4156 18.2367 36.4033 18.264L36.3819 18.3669H35.8822C35.8822 18.3457 35.8853 18.3124 35.8945 18.27C35.9006 18.2307 35.9159 18.1853 35.9374 18.1338C35.9558 18.0884 35.9895 18.037 36.0232 17.9885C36.0569 17.9401 36.106 17.8917 36.1703 17.8493C36.2286 17.8099 36.3052 17.7736 36.3911 17.7494C36.4769 17.7252 36.5811 17.7101 36.7038 17.707C36.8754 17.707 37.0164 17.7252 37.1237 17.7585C37.228 17.7948 37.3138 17.8402 37.3751 17.8947C37.4333 17.9522 37.4732 18.0127 37.4947 18.0793C37.513 18.1459 37.5222 18.2155 37.5222 18.2821V19.2901C37.5284 19.3506 37.5314 19.396 37.5376 19.4323ZM36.9367 18.7816C36.903 18.7967 36.8632 18.8088 36.8141 18.8179L36.6792 18.8421C36.621 18.8542 36.5689 18.8633 36.526 18.8784C36.483 18.8935 36.4462 18.9117 36.4187 18.9329C36.3911 18.9571 36.3665 18.9874 36.3543 19.0176C36.339 19.0509 36.3328 19.0903 36.3328 19.1387C36.3328 19.1781 36.339 19.2144 36.3512 19.2416C36.3665 19.2749 36.3849 19.2961 36.4095 19.3173C36.4309 19.3355 36.4554 19.3536 36.4861 19.3597C36.5198 19.3718 36.5505 19.3748 36.5873 19.3748C36.6057 19.3748 36.6302 19.3718 36.6608 19.3688C36.6884 19.3657 36.7191 19.3567 36.7559 19.3476C36.7896 19.3324 36.8202 19.3203 36.854 19.2961C36.8877 19.278 36.9153 19.2507 36.9398 19.2174C36.9674 19.1841 36.9919 19.1448 37.0042 19.0963C37.0195 19.0509 37.0287 18.9965 37.0287 18.9329V18.7392C36.998 18.7573 36.9643 18.7694 36.9367 18.7816Z" fill="white"/>
<path d="M1.20781 22.6012C1.19248 22.5618 1.17102 22.5285 1.1465 22.5043C1.11891 22.4771 1.08519 22.4589 1.0484 22.4438C1.00855 22.4317 0.962569 22.4256 0.90739 22.4256C0.824621 22.4256 0.760245 22.4438 0.708132 22.4831C0.656018 22.5225 0.616167 22.5679 0.591643 22.6254C0.564053 22.6859 0.548725 22.7495 0.536463 22.8191C0.530332 22.8857 0.521136 22.9523 0.521136 23.0128C0.521136 23.0734 0.524201 23.143 0.533398 23.2096C0.539529 23.2822 0.554856 23.3427 0.585512 23.4002C0.610036 23.4578 0.646822 23.5062 0.702001 23.5425C0.754114 23.5819 0.821555 23.6 0.90739 23.6C0.965634 23.6 1.01468 23.5879 1.06066 23.5637C1.10052 23.5425 1.1373 23.5122 1.16489 23.482C1.19248 23.4457 1.21701 23.4093 1.22927 23.37C1.24153 23.3337 1.24766 23.2973 1.24766 23.2671H1.7688C1.7688 23.3004 1.76573 23.3397 1.75347 23.3881C1.73814 23.4426 1.71975 23.4911 1.69522 23.5486C1.6707 23.603 1.63391 23.6606 1.59406 23.7181C1.54808 23.7756 1.49597 23.824 1.43159 23.8694C1.36722 23.9148 1.29364 23.9511 1.20781 23.9814C1.12197 24.0086 1.01775 24.0238 0.90739 24.0238C0.763311 24.0238 0.631494 24.0026 0.51807 23.9602C0.404647 23.9118 0.312682 23.8482 0.236044 23.7604C0.159406 23.6757 0.101162 23.5698 0.0613101 23.4426C0.0214585 23.3185 0 23.1732 0 23.0128C0 22.8494 0.0214585 22.7041 0.0643756 22.58C0.107293 22.4589 0.168603 22.3499 0.248306 22.2652C0.328009 22.1804 0.42304 22.1138 0.533398 22.0715C0.640691 22.0261 0.769442 22.0049 0.904324 22.0049C0.962569 22.0049 1.02388 22.0109 1.08825 22.02C1.14956 22.0261 1.21087 22.0442 1.27218 22.0654C1.33349 22.0896 1.39174 22.1199 1.44998 22.1562C1.50516 22.1925 1.55421 22.2379 1.60326 22.2924C1.64618 22.3469 1.68296 22.4105 1.71055 22.4831C1.73814 22.5558 1.75653 22.6405 1.76573 22.7374H1.2446C1.2354 22.6829 1.2262 22.6375 1.20781 22.6012Z" fill="white"/>
<path d="M5.37057 23.7303C5.37364 23.7666 5.3859 23.7969 5.3951 23.815C5.40736 23.8392 5.41655 23.8544 5.43188 23.8665C5.44721 23.8786 5.45641 23.8846 5.4748 23.8877V23.9664H4.91994L4.89235 23.8756C4.87703 23.8392 4.87396 23.7969 4.87396 23.7424L4.76054 23.8544C4.72069 23.8877 4.68083 23.9149 4.63485 23.9391C4.58887 23.9633 4.53676 23.9845 4.47544 23.9997C4.41413 24.0148 4.34056 24.0208 4.25779 24.0208C4.17196 24.0208 4.09226 24.0087 4.01868 23.9845C3.94511 23.9603 3.8838 23.921 3.82862 23.8725C3.77651 23.8211 3.73359 23.7605 3.706 23.6849C3.67841 23.6122 3.66309 23.5275 3.66309 23.4306C3.66309 23.3519 3.67535 23.2793 3.69987 23.2127C3.7244 23.1461 3.76118 23.0886 3.8041 23.0371C3.85008 22.9857 3.90526 22.9433 3.96964 22.913C4.03401 22.8767 4.10758 22.8555 4.19035 22.8464L4.68083 22.7738C4.69923 22.7708 4.71762 22.7708 4.73908 22.7617C4.76054 22.7587 4.77893 22.7496 4.79732 22.7375C4.81572 22.7254 4.83104 22.7133 4.84024 22.6951C4.8525 22.6739 4.85863 22.6497 4.85863 22.6164C4.85863 22.5831 4.8525 22.5559 4.84331 22.5316C4.83104 22.5044 4.81572 22.4802 4.79119 22.462C4.76667 22.4408 4.73601 22.4257 4.69616 22.4166C4.65631 22.4045 4.60726 22.4015 4.54902 22.4015C4.48158 22.4015 4.42946 22.4075 4.38961 22.4197C4.34669 22.4348 4.31297 22.456 4.29151 22.4772C4.26699 22.5014 4.2486 22.5316 4.23634 22.5589L4.21488 22.6618H3.7152C3.7152 22.6406 3.71827 22.6073 3.72746 22.5649C3.73359 22.5256 3.74892 22.4802 3.77038 22.4287C3.78877 22.3833 3.82249 22.3319 3.85621 22.2834C3.88993 22.235 3.93898 22.1866 4.00336 22.1442C4.0616 22.1049 4.13824 22.0685 4.22407 22.0443C4.30991 22.0201 4.41413 22.005 4.53675 22.002C4.70842 22.002 4.84944 22.0201 4.95673 22.0534C5.06096 22.0897 5.14679 22.1351 5.2081 22.1896C5.26635 22.2471 5.3062 22.3077 5.32765 22.3773C5.34605 22.4439 5.35524 22.5135 5.35524 22.5801V23.588C5.35831 23.6455 5.36138 23.6939 5.37057 23.7303ZM4.76667 23.0765C4.73295 23.0916 4.6931 23.1037 4.64405 23.1128L4.50917 23.137C4.45092 23.1491 4.39881 23.1582 4.35589 23.1733C4.31297 23.1885 4.27619 23.2066 4.2486 23.2278C4.22101 23.252 4.19648 23.2823 4.18422 23.3126C4.16889 23.3459 4.16276 23.3852 4.16276 23.4336C4.16276 23.473 4.16889 23.5093 4.18116 23.5366C4.19648 23.5698 4.21488 23.591 4.2394 23.6122C4.26086 23.6304 4.28538 23.6485 4.31604 23.6546C4.34976 23.6667 4.38041 23.6697 4.4172 23.6697C4.43559 23.6697 4.46012 23.6667 4.49077 23.6637C4.51836 23.6607 4.54902 23.6516 4.5858 23.6425C4.61952 23.6274 4.65018 23.6153 4.6839 23.591C4.71762 23.5729 4.74521 23.5456 4.76973 23.5123C4.79732 23.479 4.82185 23.4397 4.83411 23.3913C4.84944 23.3459 4.85863 23.2914 4.85863 23.2278V23.0341C4.82798 23.0523 4.79732 23.0674 4.76667 23.0765Z" fill="white"/>
<path d="M8.23039 22.462L8.22425 22.8162C8.21812 23.0159 8.2028 23.1915 8.1844 23.3428C8.16294 23.4942 8.12922 23.6183 8.08631 23.7182C8.04032 23.8181 7.97901 23.8937 7.90238 23.9482C7.82574 23.9997 7.72458 24.0239 7.60502 24.0239C7.54678 24.0239 7.5008 24.0209 7.45481 24.0178C7.4119 24.0118 7.37818 23.9997 7.35059 23.9906V23.5759C7.36898 23.582 7.39044 23.591 7.41496 23.5971C7.43949 23.6001 7.47014 23.6032 7.50693 23.6032C7.54678 23.6032 7.5805 23.591 7.60809 23.5668C7.63568 23.5456 7.66327 23.5063 7.68473 23.4458C7.70618 23.3852 7.72151 23.3035 7.73684 23.1945C7.7491 23.0886 7.75523 22.9524 7.7583 22.7829L7.77363 22.0625H9.32477V23.9664H8.82816V22.462H8.23039V22.462Z" fill="white"/>
<path d="M11.4708 22.6073C11.5137 22.4832 11.5781 22.3743 11.667 22.2865C11.7528 22.1957 11.8539 22.1291 11.9796 22.0776C12.1053 22.0262 12.2371 22.002 12.3904 22.002C12.5468 22.002 12.6847 22.0262 12.8073 22.0776C12.9299 22.1291 13.0311 22.1957 13.1139 22.2865C13.1966 22.3773 13.2641 22.4832 13.3101 22.6073C13.353 22.7284 13.3744 22.8646 13.3744 23.0129C13.3744 23.1612 13.353 23.2944 13.3101 23.4185C13.2641 23.5426 13.1966 23.6516 13.1139 23.7394C13.0311 23.8241 12.9299 23.8967 12.8073 23.9482C12.6847 23.9997 12.5468 24.0239 12.3904 24.0239C12.2371 24.0239 12.1053 23.9997 11.9796 23.9482C11.8539 23.8967 11.7559 23.8271 11.667 23.7394C11.5811 23.6485 11.5137 23.5426 11.4708 23.4185C11.4278 23.2974 11.4033 23.1612 11.4033 23.0129C11.4033 22.8646 11.4248 22.7314 11.4708 22.6073ZM11.949 23.2248C11.9643 23.2974 11.9888 23.361 12.0287 23.4155C12.0655 23.473 12.1115 23.5184 12.1697 23.5517C12.2279 23.585 12.3015 23.6031 12.3873 23.6031C12.4793 23.6031 12.5529 23.585 12.6111 23.5517C12.6694 23.5184 12.7154 23.473 12.7521 23.4185C12.7889 23.364 12.8135 23.3035 12.8288 23.2308C12.8441 23.1582 12.8502 23.0886 12.8502 23.0129C12.8502 22.9372 12.8441 22.8676 12.8288 22.795C12.8135 22.7223 12.7889 22.6588 12.7521 22.6043C12.7154 22.5498 12.6694 22.5074 12.6111 22.4711C12.5529 22.4378 12.4762 22.4257 12.3873 22.4257C12.3015 22.4257 12.2279 22.4439 12.1697 22.4772C12.1115 22.5105 12.0655 22.5559 12.0287 22.6103C11.9888 22.6679 11.9643 22.7284 11.949 22.801C11.9337 22.8737 11.9245 22.9433 11.9245 23.0159C11.9214 23.0856 11.9337 23.1552 11.949 23.2248Z" fill="white"/>
<path d="M16.6397 22.7496V22.0625H17.1394V23.9664H16.6397V23.1491H15.904V23.9664H15.4043V22.0625H15.904V22.7496H16.6397Z" fill="white"/>
<path d="M1.35191 26.3574H2.02019L1.22316 27.1474L2.05391 28.2613H1.39789L0.833837 27.4562L0.631513 27.659V28.2613H0.131836V26.3574H0.631513V27.0808L1.35191 26.3574Z" fill="white"/>
<path d="M4.4697 26.6297C4.50342 26.5722 4.54021 26.5238 4.58006 26.4784C4.61685 26.439 4.65976 26.4027 4.70268 26.3785C4.74866 26.3543 4.80078 26.3331 4.85902 26.321C4.9142 26.3059 4.97551 26.2998 5.04908 26.2998C5.10733 26.2998 5.16864 26.3059 5.22995 26.321C5.29126 26.3361 5.35257 26.3573 5.41388 26.3906C5.47212 26.4179 5.53037 26.4633 5.57941 26.5087C5.63459 26.5601 5.68058 26.6237 5.72043 26.6933C5.76028 26.7659 5.794 26.8477 5.81546 26.9445C5.83998 27.0414 5.85224 27.1473 5.85224 27.2744C5.85224 27.4288 5.83692 27.5711 5.80013 27.6982C5.76641 27.8284 5.71736 27.9373 5.64686 28.0311C5.57941 28.122 5.49358 28.1916 5.39242 28.2461C5.28819 28.2975 5.16864 28.3217 5.02762 28.3217C4.98164 28.3217 4.92953 28.3187 4.88354 28.3066C4.83143 28.3005 4.78545 28.2824 4.73947 28.2612C4.68735 28.24 4.64444 28.2067 4.60458 28.1704C4.56167 28.131 4.52488 28.0856 4.49116 28.0281H4.48503V29.0028H3.98535V26.3603H4.46357V26.6328H4.4697V26.6297ZM4.69655 26.7932C4.64137 26.8295 4.59845 26.8719 4.56473 26.9264C4.52795 26.9808 4.50649 27.0414 4.48809 27.108C4.47277 27.1746 4.46664 27.2411 4.46664 27.3077C4.46664 27.3441 4.46664 27.3834 4.47277 27.4258C4.47583 27.4682 4.48503 27.5105 4.49423 27.5559C4.50955 27.5983 4.52181 27.6407 4.54634 27.68C4.56473 27.7224 4.58926 27.7587 4.62298 27.792C4.6567 27.8193 4.69655 27.8465 4.73947 27.8677C4.78238 27.8859 4.83756 27.8949 4.89887 27.8949C4.96018 27.8949 5.01536 27.8828 5.05828 27.8677C5.1012 27.8465 5.14105 27.8223 5.17477 27.792C5.20236 27.7587 5.23301 27.7254 5.25447 27.68C5.27286 27.6407 5.28819 27.5983 5.30045 27.5559C5.31272 27.5136 5.31885 27.4712 5.32498 27.4258C5.32804 27.3834 5.32804 27.3441 5.32804 27.3077C5.32804 27.2411 5.32191 27.1746 5.30658 27.108C5.28819 27.0383 5.26673 26.9778 5.23301 26.9264C5.19623 26.8719 5.15331 26.8295 5.09813 26.7932C5.03988 26.7599 4.97551 26.7417 4.89581 26.7417C4.81917 26.7447 4.75173 26.7629 4.69655 26.7932Z" fill="white"/>
<path d="M9.45456 28.0251C9.45762 28.0614 9.46988 28.0917 9.47908 28.1098C9.49134 28.1341 9.50054 28.1492 9.51587 28.1613C9.5312 28.1734 9.54039 28.1795 9.55878 28.1825V28.2612H9.00393L8.97634 28.1704C8.96101 28.1341 8.95794 28.0917 8.95794 28.0372L8.84452 28.1492C8.80467 28.1825 8.76482 28.2097 8.71884 28.2339C8.67285 28.2582 8.62074 28.2794 8.55943 28.2945C8.49812 28.3096 8.42455 28.3157 8.34178 28.3157C8.25594 28.3157 8.17624 28.3036 8.10267 28.2793C8.0291 28.2551 7.96779 28.2158 7.91261 28.1674C7.86049 28.1159 7.81758 28.0554 7.78999 27.9797C7.7624 27.9071 7.74707 27.8223 7.74707 27.7254C7.74707 27.6467 7.75933 27.5741 7.78386 27.5075C7.80838 27.4409 7.84517 27.3834 7.88808 27.332C7.93407 27.2805 7.98925 27.2381 8.05362 27.2079C8.118 27.1715 8.19157 27.1503 8.27434 27.1413L8.76482 27.0686C8.78321 27.0656 8.8016 27.0656 8.82306 27.0565C8.84452 27.0535 8.86291 27.0444 8.88131 27.0323C8.8997 27.0202 8.91503 27.0081 8.92422 26.9899C8.93649 26.9687 8.94262 26.9445 8.94262 26.9112C8.94262 26.8779 8.93649 26.8507 8.92729 26.8265C8.91503 26.7992 8.8997 26.775 8.87518 26.7599C8.85065 26.7387 8.82 26.7236 8.78015 26.7145C8.74029 26.7024 8.69125 26.6993 8.633 26.6993C8.56556 26.6993 8.51345 26.7054 8.47359 26.7175C8.43068 26.7326 8.39696 26.7538 8.3755 26.775C8.35097 26.7992 8.33258 26.8295 8.32032 26.8567L8.29886 26.9597H7.79918C7.79918 26.9385 7.80225 26.9052 7.81145 26.8628C7.81758 26.8234 7.8329 26.778 7.85436 26.7266C7.87276 26.6812 7.90648 26.6297 7.9402 26.5813C7.97392 26.5329 8.02297 26.4844 8.08734 26.4421C8.14559 26.4027 8.22222 26.3664 8.30806 26.3422C8.39389 26.318 8.49812 26.3028 8.62074 26.2998C8.79241 26.2998 8.93342 26.318 9.04071 26.3513C9.14494 26.3876 9.23078 26.433 9.29209 26.4875C9.35033 26.545 9.39018 26.6055 9.41164 26.6721C9.43003 26.7387 9.43923 26.8083 9.43923 26.8749V27.8828C9.4423 27.9434 9.44536 27.9888 9.45456 28.0251ZM8.85065 27.3743C8.81693 27.3895 8.77708 27.4016 8.72803 27.4106L8.59315 27.4349C8.53491 27.447 8.48279 27.4561 8.43987 27.4712C8.39696 27.4863 8.36017 27.5045 8.33258 27.5257C8.30499 27.5499 8.28047 27.5802 8.26821 27.6104C8.25288 27.6437 8.24675 27.6831 8.24675 27.7315C8.24675 27.7708 8.25288 27.8072 8.26514 27.8344C8.28047 27.8677 8.29886 27.8889 8.32339 27.9101C8.34484 27.9282 8.36937 27.9464 8.40002 27.9525C8.43374 27.9646 8.4644 27.9676 8.50118 27.9676C8.51958 27.9676 8.5441 27.9646 8.57476 27.9615C8.60235 27.9585 8.633 27.9494 8.66979 27.9403C8.70351 27.9252 8.73416 27.9131 8.76788 27.8889C8.8016 27.8707 8.82919 27.8435 8.85372 27.8102C8.88131 27.7769 8.90583 27.7375 8.91809 27.6891C8.93342 27.6437 8.94262 27.5892 8.94262 27.5257V27.332C8.91196 27.3471 8.88131 27.3622 8.85065 27.3743Z" fill="white"/>
<path d="M12.657 26.8999C12.6417 26.8605 12.6202 26.8273 12.5957 26.803C12.5681 26.7758 12.5344 26.7576 12.4976 26.7425C12.4578 26.7304 12.4118 26.7243 12.3566 26.7243C12.2738 26.7243 12.2095 26.7425 12.1574 26.7819C12.1052 26.8212 12.0654 26.8666 12.0409 26.9241C12.0133 26.9846 11.9979 27.0482 11.9857 27.1178C11.9796 27.1844 11.9704 27.251 11.9704 27.3115C11.9704 27.3721 11.9734 27.4417 11.9826 27.5083C11.9887 27.5809 12.0041 27.6415 12.0347 27.699C12.0593 27.7565 12.096 27.8049 12.1512 27.8412C12.2033 27.8806 12.2708 27.8987 12.3566 27.8987C12.4149 27.8987 12.4639 27.8866 12.5099 27.8624C12.5497 27.8412 12.5865 27.811 12.6141 27.7807C12.6417 27.7444 12.6662 27.7081 12.6785 27.6687C12.6907 27.6324 12.6969 27.5961 12.6969 27.5658H13.218C13.218 27.5991 13.215 27.6384 13.2027 27.6869C13.1874 27.7414 13.169 27.7898 13.1444 27.8473C13.1199 27.9018 13.0831 27.9593 13.0433 28.0168C12.9973 28.0743 12.9452 28.1227 12.8808 28.1681C12.8164 28.2135 12.7429 28.2499 12.657 28.2801C12.5712 28.3074 12.467 28.3225 12.3566 28.3225C12.2125 28.3225 12.0807 28.3013 11.9673 28.2589C11.8539 28.2135 11.7619 28.1469 11.6853 28.0622C11.6086 27.9774 11.5504 27.8715 11.5105 27.7444C11.4707 27.6203 11.4492 27.475 11.4492 27.3146C11.4492 27.1511 11.4707 27.0058 11.5136 26.8817C11.5565 26.7607 11.6178 26.6517 11.6975 26.5669C11.7772 26.4822 11.8723 26.4156 11.9826 26.3732C12.0899 26.3278 12.2187 26.3066 12.3535 26.3066C12.4118 26.3066 12.4731 26.3127 12.5375 26.3218C12.5988 26.3278 12.6601 26.346 12.7214 26.3672C12.7827 26.3914 12.841 26.4217 12.8992 26.458C12.9544 26.4943 13.0034 26.5397 13.0525 26.5942C13.0954 26.6487 13.1322 26.7122 13.1598 26.7849C13.1874 26.8575 13.2058 26.9423 13.215 27.0391H12.6938C12.6877 26.9816 12.6754 26.9332 12.657 26.8999Z" fill="white"/>
<path d="M15.2051 26.9052C15.2481 26.7811 15.3124 26.6721 15.4013 26.5843C15.4872 26.4935 15.5883 26.4269 15.714 26.3755C15.8397 26.324 15.9715 26.2998 16.1248 26.2998C16.2811 26.2998 16.4191 26.324 16.5417 26.3755C16.6643 26.4269 16.7655 26.4935 16.8482 26.5843C16.931 26.6751 16.9985 26.7811 17.0444 26.9052C17.0874 27.0262 17.1088 27.1625 17.1088 27.3108C17.1088 27.4591 17.0874 27.5923 17.0444 27.7164C16.9985 27.8405 16.931 27.9494 16.8482 28.0372C16.7655 28.122 16.6643 28.1946 16.5417 28.2461C16.4191 28.2975 16.2811 28.3217 16.1248 28.3217C15.9715 28.3217 15.8397 28.2975 15.714 28.2461C15.5883 28.1946 15.4902 28.125 15.4013 28.0372C15.3155 27.9464 15.2481 27.8405 15.2051 27.7164C15.1622 27.5953 15.1377 27.4591 15.1377 27.3108C15.1377 27.1625 15.1622 27.0262 15.2051 26.9052ZM15.6834 27.5196C15.6987 27.5923 15.7232 27.6558 15.7631 27.7103C15.7998 27.7678 15.8458 27.8132 15.9041 27.8465C15.9623 27.8798 16.0359 27.898 16.1217 27.898C16.2137 27.898 16.2873 27.8798 16.3455 27.8465C16.4038 27.8132 16.4497 27.7678 16.4865 27.7133C16.5233 27.6588 16.5478 27.5983 16.5632 27.5257C16.5785 27.453 16.5846 27.3834 16.5846 27.3077C16.5846 27.2321 16.5785 27.1625 16.5632 27.0898C16.5478 27.0172 16.5233 26.9536 16.4865 26.8991C16.4497 26.8446 16.4038 26.8023 16.3455 26.7659C16.2873 26.7326 16.2106 26.7205 16.1217 26.7205C16.0359 26.7205 15.9623 26.7387 15.9041 26.772C15.8458 26.8053 15.7998 26.8507 15.7631 26.9052C15.7232 26.9627 15.6987 27.0232 15.6834 27.0959C15.668 27.1685 15.6588 27.2381 15.6588 27.3108C15.6588 27.3804 15.668 27.453 15.6834 27.5196Z" fill="white"/>
<path d="M20.6402 26.3574V26.757H20.0577V28.2613H19.558V26.757H18.9756V26.3574H20.6402V26.3574Z" fill="white"/>
<path d="M23.5766 27.0203C23.693 27.0203 23.8003 27.0324 23.8954 27.0566C23.9904 27.0808 24.067 27.1202 24.1314 27.1716C24.1958 27.2231 24.2479 27.2867 24.2786 27.3654C24.3153 27.4441 24.3337 27.5379 24.3337 27.6438C24.3337 27.7407 24.3184 27.8224 24.2908 27.892C24.2632 27.9647 24.2264 28.0222 24.1805 28.0645C24.1375 28.116 24.0854 28.1463 24.0333 28.1765C23.9781 28.2008 23.926 28.2219 23.8739 28.2341C23.8218 28.2492 23.7758 28.2583 23.7329 28.2613C23.6869 28.2643 23.6532 28.2643 23.6287 28.2643H22.6201V26.3604H23.1198V27.0233H23.5766V27.0203ZM23.6011 27.8799C23.6409 27.8769 23.6747 27.8618 23.7053 27.8436C23.739 27.8254 23.7605 27.8012 23.7819 27.7679C23.8003 27.7346 23.8095 27.6923 23.8095 27.6438C23.8095 27.5954 23.7973 27.553 23.7819 27.5197C23.7605 27.4864 23.736 27.4622 23.7022 27.444C23.6655 27.4259 23.6287 27.4108 23.5858 27.4047C23.5398 27.3986 23.4907 27.3926 23.4417 27.3926H23.1198V27.889H23.4846C23.5275 27.889 23.5674 27.886 23.6011 27.8799ZM24.5545 28.2613V26.3574H25.0541V28.2613H24.5545Z" fill="white"/>
</g>
<defs>
<clipPath id="clip0">
<rect width="38" height="29" fill="white"/>
</clipPath>
</defs>
</svg>
