<svg width="4432" height="185" viewBox="0 0 4432 185" fill="none" xmlns="http://www.w3.org/2000/svg">
<path d="M1249 141.006C1249 163.933 1273.36 182.541 1303.47 182.541L2538.17 182.541C2562.39 182.541 2582 167.584 2582 149.116L2582 132.966C2582 114.498 2562.39 99.5411 2538.17 99.5411L1303.42 99.541C1273.36 99.5058 1249 118.079 1249 141.006Z" fill="white"/>
<path d="M2068.4 9.00025C2104.04 9.00025 2132.93 38.5913 2132.93 75.0933C2132.93 111.595 2104.04 141.186 2068.4 141.186C2032.76 141.186 2003.87 111.595 2003.87 75.0933C2003.87 38.5912 2032.76 9.00025 2068.4 9.00025Z" stroke="white" stroke-width="7" stroke-miterlimit="10" stroke-linecap="round" stroke-linejoin="round"/>
<path d="M1979.88 9.00025C2015.52 9.00025 2044.41 38.5913 2044.41 75.0933C2044.41 111.595 2015.52 141.186 1979.88 141.186C1944.24 141.186 1915.35 111.595 1915.35 75.0933C1915.35 38.5912 1944.24 9.00025 1979.88 9.00025Z" stroke="white" stroke-width="7" stroke-miterlimit="10" stroke-linecap="round" stroke-linejoin="round"/>
<path d="M2463.47 9.00025C2499.11 9.00025 2528 38.5913 2528 75.0933C2528 111.595 2499.11 141.186 2463.47 141.186C2427.83 141.186 2398.93 111.595 2398.93 75.0933C2398.93 38.5912 2427.83 9.00025 2463.47 9.00025Z" stroke="white" stroke-width="7" stroke-miterlimit="10" stroke-linecap="round" stroke-linejoin="round"/>
<path d="M1456.1 9.00025C1491.74 9.00025 1520.63 38.5913 1520.63 75.0933C1520.63 111.595 1491.74 141.186 1456.1 141.186C1420.46 141.186 1391.57 111.595 1391.57 75.0933C1391.57 38.5912 1420.46 9.00025 1456.1 9.00025Z" stroke="white" stroke-width="7" stroke-miterlimit="10" stroke-linecap="round" stroke-linejoin="round"/>
<path d="M2374.9 9.00025C2410.54 9.00025 2439.43 38.5913 2439.43 75.0933C2439.43 111.595 2410.54 141.186 2374.9 141.186C2339.26 141.186 2310.37 111.595 2310.37 75.0933C2310.37 38.5912 2339.26 9.00025 2374.9 9.00025Z" stroke="white" stroke-width="7" stroke-miterlimit="10" stroke-linecap="round" stroke-linejoin="round"/>
<path d="M1367.53 9.00025C1403.17 9.00025 1432.07 38.5913 1432.07 75.0933C1432.07 111.595 1403.17 141.186 1367.53 141.186C1331.89 141.186 1303 111.595 1303 75.0933C1303 38.5912 1331.89 9.00025 1367.53 9.00025Z" stroke="white" stroke-width="7" stroke-miterlimit="10" stroke-linecap="round" stroke-linejoin="round"/>
<path d="M1891.36 9.00025C1927 9.00025 1955.89 38.5913 1955.89 75.0933C1955.89 111.595 1927 141.186 1891.36 141.186C1855.72 141.186 1826.82 111.595 1826.82 75.0933C1826.82 38.5912 1855.72 9.00025 1891.36 9.00025Z" stroke="white" stroke-width="7" stroke-miterlimit="10" stroke-linecap="round" stroke-linejoin="round"/>
<path d="M1806.6 9.00025C1842.24 9.00025 1871.13 38.5913 1871.13 75.0933C1871.13 111.595 1842.24 141.186 1806.6 141.186C1770.96 141.186 1742.06 111.595 1742.06 75.0933C1742.06 38.5912 1770.96 9.00025 1806.6 9.00025Z" stroke="white" stroke-width="7" stroke-miterlimit="10" stroke-linecap="round" stroke-linejoin="round"/>
<path d="M1718.07 9.00025C1753.71 9.00025 1782.61 38.5913 1782.61 75.0933C1782.61 111.595 1753.71 141.186 1718.07 141.186C1682.43 141.186 1653.54 111.595 1653.54 75.0933C1653.54 38.5912 1682.43 9.00025 1718.07 9.00025Z" stroke="white" stroke-width="7" stroke-miterlimit="10" stroke-linecap="round" stroke-linejoin="round"/>
<path d="M1629.55 9.00025C1665.19 9.00025 1694.08 38.5913 1694.08 75.0933C1694.08 111.595 1665.19 141.186 1629.55 141.186C1593.91 141.186 1565.02 111.595 1565.02 75.0933C1565.02 38.5912 1593.91 9.00025 1629.55 9.00025Z" stroke="white" stroke-width="7" stroke-miterlimit="10" stroke-linecap="round" stroke-linejoin="round"/>
<path d="M1540.99 9.00025C1576.63 9.00025 1605.52 38.5913 1605.52 75.0933C1605.52 111.595 1576.63 141.186 1540.99 141.186C1505.34 141.186 1476.45 111.595 1476.45 75.0933C1476.45 38.5912 1505.34 9.00025 1540.99 9.00025Z" stroke="white" stroke-width="7" stroke-miterlimit="10" stroke-linecap="round" stroke-linejoin="round"/>
<path d="M1160 137.465C1160 160.392 1138.8 179 1112.6 179L38.1444 179C17.0688 179 -1.30756e-06 164.043 -2.92208e-06 145.575L-4.33402e-06 129.425C-5.94853e-06 110.957 17.0688 96 38.1444 96L1112.64 96C1138.8 95.9648 1160 114.538 1160 137.465Z" fill="white"/>
<path d="M753.373 4.00002C753.373 4.00002 707.534 36.5538 753.373 69.1409C799.212 101.728 743.195 138.343 743.195 138.343" stroke="white" stroke-width="7" stroke-miterlimit="10" stroke-linecap="round" stroke-linejoin="round"/>
<path d="M791.796 4.00002C791.796 4.00002 745.957 36.5538 791.796 69.1409C837.635 101.728 781.579 138.343 781.579 138.343" stroke="white" stroke-width="7" stroke-miterlimit="10" stroke-linecap="round" stroke-linejoin="round"/>
<path d="M830.179 4C830.179 4 784.34 36.5538 830.179 69.1409C876.018 101.728 820.002 138.343 820.002 138.343" stroke="white" stroke-width="7" stroke-miterlimit="10" stroke-linecap="round" stroke-linejoin="round"/>
<path d="M868.562 4C868.562 4 822.723 36.5538 868.562 69.1409C914.401 101.728 858.384 138.343 858.384 138.343" stroke="white" stroke-width="7" stroke-miterlimit="10" stroke-linecap="round" stroke-linejoin="round"/>
<path d="M906.984 4C906.984 4 861.145 36.5538 906.984 69.1409C952.823 101.728 896.767 138.343 896.767 138.343" stroke="white" stroke-width="7" stroke-miterlimit="10" stroke-linecap="round" stroke-linejoin="round"/>
<path d="M976.334 4C976.334 4 930.495 36.5538 976.334 69.1409C1022.17 101.728 966.117 138.343 966.117 138.343" stroke="white" stroke-width="7" stroke-miterlimit="10" stroke-linecap="round" stroke-linejoin="round"/>
<path d="M1014.72 4.00002C1014.72 4.00002 968.878 36.5538 1014.72 69.1409C1060.56 101.728 1004.54 138.343 1004.54 138.343" stroke="white" stroke-width="7" stroke-miterlimit="10" stroke-linecap="round" stroke-linejoin="round"/>
<path d="M1053.1 4.00002C1053.1 4.00002 1007.26 36.5538 1053.1 69.1409C1098.94 101.728 1042.92 138.343 1042.92 138.343" stroke="white" stroke-width="7" stroke-miterlimit="10" stroke-linecap="round" stroke-linejoin="round"/>
<path d="M415.373 4.00002C415.373 4.00002 369.534 36.5538 415.373 69.1409C461.212 101.728 405.195 138.343 405.195 138.343" stroke="white" stroke-width="7" stroke-miterlimit="10" stroke-linecap="round" stroke-linejoin="round"/>
<path d="M453.796 4.00002C453.796 4.00002 407.957 36.5538 453.796 69.1409C499.635 101.728 443.579 138.343 443.579 138.343" stroke="white" stroke-width="7" stroke-miterlimit="10" stroke-linecap="round" stroke-linejoin="round"/>
<path d="M492.179 4C492.179 4 446.34 36.5538 492.179 69.1409C538.018 101.728 482.002 138.343 482.002 138.343" stroke="white" stroke-width="7" stroke-miterlimit="10" stroke-linecap="round" stroke-linejoin="round"/>
<path d="M530.562 4C530.562 4 484.723 36.5538 530.562 69.1409C576.401 101.728 520.384 138.343 520.384 138.343" stroke="white" stroke-width="7" stroke-miterlimit="10" stroke-linecap="round" stroke-linejoin="round"/>
<path d="M568.984 4C568.984 4 523.145 36.5538 568.984 69.1409C614.823 101.728 558.767 138.343 558.767 138.343" stroke="white" stroke-width="7" stroke-miterlimit="10" stroke-linecap="round" stroke-linejoin="round"/>
<path d="M638.334 4C638.334 4 592.495 36.5538 638.334 69.1409C684.173 101.728 628.117 138.343 628.117 138.343" stroke="white" stroke-width="7" stroke-miterlimit="10" stroke-linecap="round" stroke-linejoin="round"/>
<path d="M676.717 4.00002C676.717 4.00002 630.878 36.5538 676.717 69.1409C722.556 101.728 666.539 138.343 666.539 138.343" stroke="white" stroke-width="7" stroke-miterlimit="10" stroke-linecap="round" stroke-linejoin="round"/>
<path d="M715.1 4.00002C715.1 4.00002 669.261 36.5538 715.1 69.1409C760.939 101.728 704.922 138.343 704.922 138.343" stroke="white" stroke-width="7" stroke-miterlimit="10" stroke-linecap="round" stroke-linejoin="round"/>
<path d="M77.3728 4.00002C77.3728 4.00002 31.534 36.5538 77.3728 69.1409C123.212 101.728 67.1952 138.343 67.1952 138.343" stroke="white" stroke-width="7" stroke-miterlimit="10" stroke-linecap="round" stroke-linejoin="round"/>
<path d="M115.796 4.00002C115.796 4.00002 69.9572 36.5538 115.796 69.1409C161.635 101.728 105.579 138.343 105.579 138.343" stroke="white" stroke-width="7" stroke-miterlimit="10" stroke-linecap="round" stroke-linejoin="round"/>
<path d="M154.179 4C154.179 4 108.34 36.5538 154.179 69.1409C200.018 101.728 144.001 138.343 144.001 138.343" stroke="white" stroke-width="7" stroke-miterlimit="10" stroke-linecap="round" stroke-linejoin="round"/>
<path d="M192.562 4C192.562 4 146.723 36.5538 192.562 69.1409C238.401 101.728 182.384 138.343 182.384 138.343" stroke="white" stroke-width="7" stroke-miterlimit="10" stroke-linecap="round" stroke-linejoin="round"/>
<path d="M230.984 4C230.984 4 185.145 36.5538 230.984 69.1409C276.823 101.728 220.767 138.343 220.767 138.343" stroke="white" stroke-width="7" stroke-miterlimit="10" stroke-linecap="round" stroke-linejoin="round"/>
<path d="M300.334 4C300.334 4 254.495 36.5538 300.334 69.1409C346.173 101.728 290.117 138.343 290.117 138.343" stroke="white" stroke-width="7" stroke-miterlimit="10" stroke-linecap="round" stroke-linejoin="round"/>
<path d="M338.717 4.00002C338.717 4.00002 292.878 36.5538 338.717 69.1409C384.556 101.728 328.539 138.343 328.539 138.343" stroke="white" stroke-width="7" stroke-miterlimit="10" stroke-linecap="round" stroke-linejoin="round"/>
<path d="M377.1 4.00002C377.1 4.00002 331.261 36.5538 377.1 69.1409C422.939 101.728 366.922 138.343 366.922 138.343" stroke="white" stroke-width="7" stroke-miterlimit="10" stroke-linecap="round" stroke-linejoin="round"/>
<path d="M1197.46 185L1204.51 163.023L1211.56 185L1211.48 161.91L1224.98 180.635L1217.75 158.722L1236.36 172.332L1222.73 153.736L1244.64 160.926L1225.93 147.444L1249 147.53L1227.02 140.489L1249 133.428L1225.93 133.534L1244.64 120.031L1222.71 127.243L1236.34 108.626L1217.73 122.257L1224.93 100.344L1211.45 119.068L1211.54 96L1204.49 117.977L1197.44 96L1197.52 119.068L1184.02 100.365L1191.25 122.278L1172.64 108.647L1186.27 127.264L1164.36 120.053L1183.07 133.534L1160 133.47L1181.98 140.511L1160 147.551L1183.07 147.466L1164.36 160.969L1186.27 153.736L1172.64 172.353L1191.27 158.722L1184.05 180.635L1197.55 161.932L1197.46 185Z" fill="white"/>
<path d="M2619.46 185L2626.51 163.023L2633.56 185L2633.48 161.91L2646.98 180.635L2639.75 158.722L2658.36 172.332L2644.73 153.736L2666.64 160.926L2647.93 147.444L2671 147.53L2649.02 140.489L2671 133.428L2647.93 133.534L2666.64 120.031L2644.71 127.243L2658.34 108.626L2639.73 122.257L2646.93 100.344L2633.45 119.068L2633.54 96L2626.49 117.977L2619.44 96L2619.52 119.068L2606.02 100.365L2613.25 122.278L2594.64 108.647L2608.27 127.264L2586.36 120.053L2605.07 133.534L2582 133.47L2603.98 140.511L2582 147.551L2605.07 147.466L2586.36 160.969L2608.27 153.736L2594.64 172.353L2613.27 158.722L2606.05 180.635L2619.55 161.932L2619.46 185Z" fill="white"/>
<path d="M3373.46 185L3380.51 163.023L3387.56 185L3387.48 161.91L3400.98 180.635L3393.75 158.722L3412.36 172.332L3398.73 153.736L3420.64 160.926L3401.93 147.444L3425 147.53L3403.02 140.489L3425 133.428L3401.93 133.534L3420.64 120.031L3398.71 127.243L3412.34 108.626L3393.73 122.257L3400.93 100.344L3387.45 119.068L3387.54 96L3380.49 117.977L3373.44 96L3373.52 119.068L3360.02 100.365L3367.25 122.278L3348.64 108.647L3362.27 127.264L3340.36 120.053L3359.07 133.534L3336 133.47L3357.98 140.511L3336 147.551L3359.07 147.466L3340.36 160.969L3362.27 153.736L3348.64 172.353L3367.27 158.722L3360.05 180.635L3373.55 161.932L3373.46 185Z" fill="white"/>
<path d="M4380.46 185L4387.51 163.023L4394.56 185L4394.48 161.91L4407.98 180.635L4400.75 158.722L4419.36 172.332L4405.73 153.736L4427.64 160.926L4408.93 147.444L4432 147.53L4410.02 140.489L4432 133.428L4408.93 133.534L4427.64 120.031L4405.71 127.243L4419.34 108.626L4400.73 122.257L4407.93 100.344L4394.45 119.068L4394.54 96L4387.49 117.977L4380.44 96L4380.52 119.068L4367.02 100.365L4374.25 122.278L4355.64 108.647L4369.27 127.264L4347.36 120.053L4366.07 133.534L4343 133.47L4364.98 140.511L4343 147.551L4366.07 147.466L4347.36 160.969L4369.27 153.736L4355.64 172.353L4374.27 158.722L4367.05 180.635L4380.55 161.932L4380.46 185Z" fill="white"/>
<path d="M3336 143.465C3336 166.392 3323.85 185 3308.83 185L2692.87 185C2680.79 185 2671 170.043 2671 151.575L2671 135.425C2671 116.957 2680.79 102 2692.87 102L3308.85 102C3323.85 101.965 3336 120.538 3336 143.465Z" fill="white"/>
<path d="M3272.25 133.324L3225.69 8L3225.69 144.447" stroke="white" stroke-width="7" stroke-miterlimit="10" stroke-linecap="round" stroke-linejoin="round"/>
<path d="M3225.69 133.324L3179.13 8L3179.13 144.447" stroke="white" stroke-width="7" stroke-miterlimit="10" stroke-linecap="round" stroke-linejoin="round"/>
<path d="M3179.13 133.324L3132.57 8L3132.57 144.447" stroke="white" stroke-width="7" stroke-miterlimit="10" stroke-linecap="round" stroke-linejoin="round"/>
<path d="M3132.57 133.324L3086.01 8L3086.01 144.447" stroke="white" stroke-width="7" stroke-miterlimit="10" stroke-linecap="round" stroke-linejoin="round"/>
<path d="M3086.01 133.324L3039.45 8L3039.45 144.447" stroke="white" stroke-width="7" stroke-miterlimit="10" stroke-linecap="round" stroke-linejoin="round"/>
<path d="M2991.12 133.324L2944.56 8L2944.56 144.447" stroke="white" stroke-width="7" stroke-miterlimit="10" stroke-linecap="round" stroke-linejoin="round"/>
<path d="M2944.56 133.324L2898 8L2898 144.447" stroke="white" stroke-width="7" stroke-miterlimit="10" stroke-linecap="round" stroke-linejoin="round"/>
<path d="M2898 133.324L2851.44 8L2851.44 144.447" stroke="white" stroke-width="7" stroke-miterlimit="10" stroke-linecap="round" stroke-linejoin="round"/>
<path d="M2851.44 133.324L2804.88 8L2804.88 144.447" stroke="white" stroke-width="7" stroke-miterlimit="10" stroke-linecap="round" stroke-linejoin="round"/>
<path d="M2804.88 133.324L2758.32 8L2758.32 144.447" stroke="white" stroke-width="7" stroke-miterlimit="10" stroke-linecap="round" stroke-linejoin="round"/>
<path d="M4343 143.465C4343 166.392 4326.23 185 4305.49 185L3455.19 185C3438.51 185 3425 170.043 3425 151.575L3425 135.425C3425 116.957 3438.51 102 3455.19 102L4305.52 102C4326.23 101.965 4343 120.538 4343 143.465Z" fill="white"/>
<line x1="3427.61" y1="15.6662" x2="3512.61" y2="110.666" stroke="white" stroke-width="7"/>
<line x1="3476.61" y1="15.6662" x2="3561.61" y2="110.666" stroke="white" stroke-width="7"/>
<line x1="3525.61" y1="15.6662" x2="3610.61" y2="110.666" stroke="white" stroke-width="7"/>
<line x1="3574.61" y1="15.6662" x2="3659.61" y2="110.666" stroke="white" stroke-width="7"/>
<line x1="3623.61" y1="15.6662" x2="3708.61" y2="110.666" stroke="white" stroke-width="7"/>
<line x1="3672.61" y1="15.6662" x2="3757.61" y2="110.666" stroke="white" stroke-width="7"/>
<line x1="3721.61" y1="15.6662" x2="3806.61" y2="110.666" stroke="white" stroke-width="7"/>
<line x1="3770.61" y1="15.6662" x2="3855.61" y2="110.666" stroke="white" stroke-width="7"/>
<line x1="3917.61" y1="15.6662" x2="4002.61" y2="110.666" stroke="white" stroke-width="7"/>
<line x1="3966.61" y1="15.6662" x2="4051.61" y2="110.666" stroke="white" stroke-width="7"/>
<line x1="4015.61" y1="15.6662" x2="4100.61" y2="110.666" stroke="white" stroke-width="7"/>
<line x1="4064.61" y1="15.6662" x2="4149.61" y2="110.666" stroke="white" stroke-width="7"/>
<line x1="4113.61" y1="15.6662" x2="4198.61" y2="110.666" stroke="white" stroke-width="7"/>
<line x1="4162.61" y1="15.6662" x2="4247.61" y2="110.666" stroke="white" stroke-width="7"/>
<line x1="4211.61" y1="15.6662" x2="4296.61" y2="110.666" stroke="white" stroke-width="7"/>
</svg>
